G75*
%MOIN*%
%OFA0B0*%
%FSLAX25Y25*%
%IPPOS*%
%LPD*%
%AMOC8*
5,1,8,0,0,1.08239X$1,22.5*
%
%ADD10R,0.03150X0.08661*%
%ADD11R,0.01181X0.07382*%
%ADD12R,0.04724X0.10827*%
%ADD13C,0.00591*%
%ADD14R,0.01000X0.03200*%
%ADD15R,0.10600X0.10600*%
%ADD16C,0.00100*%
%ADD17C,0.00945*%
%ADD18R,0.03150X0.03543*%
%ADD19R,0.02362X0.02362*%
%ADD20R,0.04331X0.05118*%
%ADD21C,0.00039*%
%ADD22R,0.07087X0.06299*%
%ADD23R,0.06417X0.24528*%
%ADD24C,0.00630*%
D10*
X0251565Y0013752D03*
X0255502Y0013752D03*
X0259439Y0013752D03*
X0263376Y0013752D03*
X0267313Y0013752D03*
X0271250Y0013752D03*
X0275187Y0013752D03*
X0279124Y0013752D03*
X0283061Y0013752D03*
X0286998Y0013752D03*
X0290935Y0013752D03*
X0294872Y0013752D03*
X0298809Y0013752D03*
X0302746Y0013752D03*
X0306683Y0013752D03*
X0310620Y0013752D03*
X0314557Y0013752D03*
X0318494Y0013752D03*
X0322431Y0013752D03*
X0326368Y0013752D03*
X0330305Y0013752D03*
X0334242Y0013752D03*
X0338179Y0013752D03*
X0342116Y0013752D03*
X0346053Y0013752D03*
X0349990Y0013752D03*
X0353927Y0013752D03*
X0357864Y0013752D03*
X0361801Y0013752D03*
X0365738Y0013752D03*
X0369675Y0013752D03*
X0373612Y0013752D03*
X0377549Y0013752D03*
X0381486Y0013752D03*
X0385423Y0013752D03*
X0389360Y0013752D03*
X0409045Y0013752D03*
X0412982Y0013752D03*
X0416919Y0013752D03*
X0420856Y0013752D03*
X0424793Y0013752D03*
X0428730Y0013752D03*
X0432667Y0013752D03*
X0436604Y0013752D03*
X0440541Y0013752D03*
X0444478Y0013752D03*
X0448415Y0013752D03*
X0452352Y0013752D03*
X0456289Y0013752D03*
X0460226Y0013752D03*
X0464163Y0013752D03*
X0468100Y0013752D03*
X0472037Y0013752D03*
X0475975Y0013752D03*
X0479912Y0013752D03*
X0483849Y0013752D03*
X0487786Y0013752D03*
X0491723Y0013752D03*
X0495660Y0013752D03*
X0499597Y0013752D03*
D11*
X0197431Y0071971D03*
X0195463Y0071971D03*
X0193494Y0071971D03*
X0191526Y0071971D03*
X0189557Y0071971D03*
X0187589Y0071971D03*
X0185620Y0071971D03*
X0183652Y0071971D03*
X0181683Y0071971D03*
X0179715Y0071971D03*
X0177746Y0071971D03*
X0175778Y0071971D03*
X0173809Y0071971D03*
X0171841Y0071971D03*
X0169872Y0071971D03*
X0167904Y0071971D03*
X0165935Y0071971D03*
X0163967Y0071971D03*
X0161998Y0071971D03*
X0160030Y0071971D03*
X0158061Y0071971D03*
X0156093Y0071971D03*
X0154124Y0071971D03*
X0152156Y0071971D03*
X0150187Y0071971D03*
X0148219Y0071971D03*
X0146250Y0071971D03*
X0144282Y0071971D03*
X0142313Y0071971D03*
X0132471Y0071971D03*
X0130502Y0071971D03*
X0128534Y0071971D03*
X0126565Y0071971D03*
X0124597Y0071971D03*
X0099006Y0071971D03*
X0097037Y0071971D03*
X0095069Y0071971D03*
X0093100Y0071971D03*
X0091132Y0071971D03*
X0089163Y0071971D03*
X0087195Y0071971D03*
X0085226Y0071971D03*
X0083258Y0071971D03*
X0081289Y0071971D03*
X0079321Y0071971D03*
X0077352Y0071971D03*
X0075384Y0071971D03*
X0073415Y0071971D03*
X0071447Y0071971D03*
X0069478Y0071971D03*
X0067510Y0071971D03*
X0065541Y0071971D03*
X0063573Y0071971D03*
X0061604Y0071971D03*
X0059636Y0071971D03*
X0057667Y0071971D03*
X0055699Y0071971D03*
X0053730Y0071971D03*
X0051762Y0071971D03*
X0049793Y0071971D03*
X0047825Y0071971D03*
X0045856Y0071971D03*
X0043888Y0071971D03*
X0034045Y0071971D03*
X0032077Y0071971D03*
X0030108Y0071971D03*
X0028140Y0071971D03*
X0026171Y0071971D03*
X0027156Y0084274D03*
X0029124Y0084274D03*
X0031093Y0084274D03*
X0033061Y0084274D03*
X0042904Y0084274D03*
X0044872Y0084274D03*
X0046841Y0084274D03*
X0048809Y0084274D03*
X0050778Y0084274D03*
X0052746Y0084274D03*
X0054715Y0084274D03*
X0056683Y0084274D03*
X0058652Y0084274D03*
X0060620Y0084274D03*
X0062589Y0084274D03*
X0064557Y0084274D03*
X0066526Y0084274D03*
X0068494Y0084274D03*
X0070463Y0084274D03*
X0072431Y0084274D03*
X0074400Y0084274D03*
X0076368Y0084274D03*
X0078337Y0084274D03*
X0080305Y0084274D03*
X0082274Y0084274D03*
X0084242Y0084274D03*
X0086211Y0084274D03*
X0088179Y0084274D03*
X0090148Y0084274D03*
X0092116Y0084274D03*
X0094085Y0084274D03*
X0096053Y0084274D03*
X0098022Y0084274D03*
X0125581Y0084274D03*
X0127549Y0084274D03*
X0129518Y0084274D03*
X0131486Y0084274D03*
X0141329Y0084274D03*
X0143297Y0084274D03*
X0145266Y0084274D03*
X0147234Y0084274D03*
X0149203Y0084274D03*
X0151171Y0084274D03*
X0153140Y0084274D03*
X0155108Y0084274D03*
X0157077Y0084274D03*
X0159045Y0084274D03*
X0161014Y0084274D03*
X0162982Y0084274D03*
X0164951Y0084274D03*
X0166919Y0084274D03*
X0168888Y0084274D03*
X0170856Y0084274D03*
X0172825Y0084274D03*
X0174793Y0084274D03*
X0176762Y0084274D03*
X0178730Y0084274D03*
X0180699Y0084274D03*
X0182667Y0084274D03*
X0184636Y0084274D03*
X0186604Y0084274D03*
X0188573Y0084274D03*
X0190541Y0084274D03*
X0192510Y0084274D03*
X0194478Y0084274D03*
X0196447Y0084274D03*
D12*
X0206093Y0075957D03*
X0115935Y0075957D03*
X0107667Y0075957D03*
X0017510Y0075957D03*
D13*
X0333357Y0083929D02*
X0333357Y0085701D01*
X0333357Y0083929D02*
X0331191Y0083929D01*
X0331191Y0085701D01*
X0333357Y0085701D01*
X0333357Y0084519D02*
X0331191Y0084519D01*
X0331191Y0085109D02*
X0333357Y0085109D01*
X0333357Y0085699D02*
X0331191Y0085699D01*
X0337294Y0085701D02*
X0337294Y0083929D01*
X0335128Y0083929D01*
X0335128Y0085701D01*
X0337294Y0085701D01*
X0337294Y0084519D02*
X0335128Y0084519D01*
X0335128Y0085109D02*
X0337294Y0085109D01*
X0337294Y0085699D02*
X0335128Y0085699D01*
X0337294Y0087866D02*
X0337294Y0089638D01*
X0337294Y0087866D02*
X0335128Y0087866D01*
X0335128Y0089638D01*
X0337294Y0089638D01*
X0337294Y0088456D02*
X0335128Y0088456D01*
X0335128Y0089046D02*
X0337294Y0089046D01*
X0337294Y0089636D02*
X0335128Y0089636D01*
X0333357Y0089638D02*
X0333357Y0087866D01*
X0331191Y0087866D01*
X0331191Y0089638D01*
X0333357Y0089638D01*
X0333357Y0088456D02*
X0331191Y0088456D01*
X0331191Y0089046D02*
X0333357Y0089046D01*
X0333357Y0089636D02*
X0331191Y0089636D01*
X0463671Y0085701D02*
X0463671Y0083929D01*
X0463671Y0085701D02*
X0465837Y0085701D01*
X0465837Y0083929D01*
X0463671Y0083929D01*
X0463671Y0084519D02*
X0465837Y0084519D01*
X0465837Y0085109D02*
X0463671Y0085109D01*
X0463671Y0085699D02*
X0465837Y0085699D01*
X0468002Y0085701D02*
X0468002Y0083929D01*
X0468002Y0085701D02*
X0470168Y0085701D01*
X0470168Y0083929D01*
X0468002Y0083929D01*
X0468002Y0084519D02*
X0470168Y0084519D01*
X0470168Y0085109D02*
X0468002Y0085109D01*
X0468002Y0085699D02*
X0470168Y0085699D01*
X0468002Y0081764D02*
X0468002Y0079992D01*
X0468002Y0081764D02*
X0470168Y0081764D01*
X0470168Y0079992D01*
X0468002Y0079992D01*
X0468002Y0080582D02*
X0470168Y0080582D01*
X0470168Y0081172D02*
X0468002Y0081172D01*
X0468002Y0081762D02*
X0470168Y0081762D01*
X0463671Y0081764D02*
X0463671Y0079992D01*
X0463671Y0081764D02*
X0465837Y0081764D01*
X0465837Y0079992D01*
X0463671Y0079992D01*
X0463671Y0080582D02*
X0465837Y0080582D01*
X0465837Y0081172D02*
X0463671Y0081172D01*
X0463671Y0081762D02*
X0465837Y0081762D01*
X0470168Y0077827D02*
X0470168Y0076055D01*
X0468002Y0076055D01*
X0468002Y0077827D01*
X0470168Y0077827D01*
X0470168Y0076645D02*
X0468002Y0076645D01*
X0468002Y0077235D02*
X0470168Y0077235D01*
X0470168Y0077825D02*
X0468002Y0077825D01*
X0470168Y0073890D02*
X0470168Y0072118D01*
X0468002Y0072118D01*
X0468002Y0073890D01*
X0470168Y0073890D01*
X0470168Y0072708D02*
X0468002Y0072708D01*
X0468002Y0073298D02*
X0470168Y0073298D01*
X0470168Y0073888D02*
X0468002Y0073888D01*
X0468396Y0061685D02*
X0466624Y0061685D01*
X0466624Y0063851D01*
X0468396Y0063851D01*
X0468396Y0061685D01*
X0468396Y0062275D02*
X0466624Y0062275D01*
X0466624Y0062865D02*
X0468396Y0062865D01*
X0468396Y0063455D02*
X0466624Y0063455D01*
X0470561Y0061685D02*
X0472333Y0061685D01*
X0470561Y0061685D02*
X0470561Y0063851D01*
X0472333Y0063851D01*
X0472333Y0061685D01*
X0472333Y0062275D02*
X0470561Y0062275D01*
X0470561Y0062865D02*
X0472333Y0062865D01*
X0472333Y0063455D02*
X0470561Y0063455D01*
X0504025Y0066607D02*
X0504025Y0068379D01*
X0506191Y0068379D01*
X0506191Y0066607D01*
X0504025Y0066607D01*
X0504025Y0067197D02*
X0506191Y0067197D01*
X0506191Y0067787D02*
X0504025Y0067787D01*
X0504025Y0068377D02*
X0506191Y0068377D01*
X0504025Y0070544D02*
X0504025Y0072316D01*
X0506191Y0072316D01*
X0506191Y0070544D01*
X0504025Y0070544D01*
X0504025Y0071134D02*
X0506191Y0071134D01*
X0506191Y0071724D02*
X0504025Y0071724D01*
X0504025Y0072314D02*
X0506191Y0072314D01*
D14*
G36*
X0457940Y0075489D02*
X0458647Y0074782D01*
X0456386Y0072521D01*
X0455679Y0073228D01*
X0457940Y0075489D01*
G37*
G36*
X0456548Y0076881D02*
X0457255Y0076174D01*
X0454994Y0073913D01*
X0454287Y0074620D01*
X0456548Y0076881D01*
G37*
G36*
X0455156Y0078273D02*
X0455863Y0077566D01*
X0453602Y0075305D01*
X0452895Y0076012D01*
X0455156Y0078273D01*
G37*
G36*
X0453764Y0079665D02*
X0454471Y0078958D01*
X0452210Y0076697D01*
X0451503Y0077404D01*
X0453764Y0079665D01*
G37*
G36*
X0452372Y0081057D02*
X0453079Y0080350D01*
X0450818Y0078089D01*
X0450111Y0078796D01*
X0452372Y0081057D01*
G37*
G36*
X0450981Y0082449D02*
X0451688Y0081742D01*
X0449427Y0079481D01*
X0448720Y0080188D01*
X0450981Y0082449D01*
G37*
G36*
X0448111Y0080188D02*
X0447404Y0079481D01*
X0445143Y0081742D01*
X0445850Y0082449D01*
X0448111Y0080188D01*
G37*
G36*
X0446719Y0078796D02*
X0446012Y0078089D01*
X0443751Y0080350D01*
X0444458Y0081057D01*
X0446719Y0078796D01*
G37*
G36*
X0445327Y0077404D02*
X0444620Y0076697D01*
X0442359Y0078958D01*
X0443066Y0079665D01*
X0445327Y0077404D01*
G37*
G36*
X0443936Y0076012D02*
X0443229Y0075305D01*
X0440968Y0077566D01*
X0441675Y0078273D01*
X0443936Y0076012D01*
G37*
G36*
X0442544Y0074620D02*
X0441837Y0073913D01*
X0439576Y0076174D01*
X0440283Y0076881D01*
X0442544Y0074620D01*
G37*
G36*
X0441152Y0073228D02*
X0440445Y0072521D01*
X0438184Y0074782D01*
X0438891Y0075489D01*
X0441152Y0073228D01*
G37*
G36*
X0440445Y0071913D02*
X0441152Y0071206D01*
X0438891Y0068945D01*
X0438184Y0069652D01*
X0440445Y0071913D01*
G37*
G36*
X0441837Y0070521D02*
X0442544Y0069814D01*
X0440283Y0067553D01*
X0439576Y0068260D01*
X0441837Y0070521D01*
G37*
G36*
X0443229Y0069129D02*
X0443936Y0068422D01*
X0441675Y0066161D01*
X0440968Y0066868D01*
X0443229Y0069129D01*
G37*
G36*
X0444620Y0067737D02*
X0445327Y0067030D01*
X0443066Y0064769D01*
X0442359Y0065476D01*
X0444620Y0067737D01*
G37*
G36*
X0446012Y0066345D02*
X0446719Y0065638D01*
X0444458Y0063377D01*
X0443751Y0064084D01*
X0446012Y0066345D01*
G37*
G36*
X0453079Y0064084D02*
X0452372Y0063377D01*
X0450111Y0065638D01*
X0450818Y0066345D01*
X0453079Y0064084D01*
G37*
G36*
X0451688Y0062692D02*
X0450981Y0061985D01*
X0448720Y0064246D01*
X0449427Y0064953D01*
X0451688Y0062692D01*
G37*
G36*
X0447404Y0064953D02*
X0448111Y0064246D01*
X0445850Y0061985D01*
X0445143Y0062692D01*
X0447404Y0064953D01*
G37*
G36*
X0454471Y0065476D02*
X0453764Y0064769D01*
X0451503Y0067030D01*
X0452210Y0067737D01*
X0454471Y0065476D01*
G37*
G36*
X0455863Y0066868D02*
X0455156Y0066161D01*
X0452895Y0068422D01*
X0453602Y0069129D01*
X0455863Y0066868D01*
G37*
G36*
X0457255Y0068260D02*
X0456548Y0067553D01*
X0454287Y0069814D01*
X0454994Y0070521D01*
X0457255Y0068260D01*
G37*
G36*
X0458647Y0069652D02*
X0457940Y0068945D01*
X0455679Y0071206D01*
X0456386Y0071913D01*
X0458647Y0069652D01*
G37*
D15*
G36*
X0440920Y0072217D02*
X0448415Y0079712D01*
X0455910Y0072217D01*
X0448415Y0064722D01*
X0440920Y0072217D01*
G37*
D16*
X0441477Y0072217D02*
X0444668Y0069026D01*
X0447859Y0072217D01*
X0444668Y0075408D01*
X0441477Y0072217D01*
X0441519Y0072175D02*
X0447816Y0072175D01*
X0447803Y0072273D02*
X0441533Y0072273D01*
X0441632Y0072372D02*
X0447704Y0072372D01*
X0447605Y0072470D02*
X0441730Y0072470D01*
X0441829Y0072569D02*
X0447507Y0072569D01*
X0447408Y0072667D02*
X0441927Y0072667D01*
X0442026Y0072766D02*
X0447310Y0072766D01*
X0447211Y0072864D02*
X0442124Y0072864D01*
X0442223Y0072963D02*
X0447113Y0072963D01*
X0447014Y0073061D02*
X0442321Y0073061D01*
X0442420Y0073160D02*
X0446916Y0073160D01*
X0446817Y0073258D02*
X0442518Y0073258D01*
X0442617Y0073357D02*
X0446719Y0073357D01*
X0446620Y0073455D02*
X0442715Y0073455D01*
X0442814Y0073554D02*
X0446522Y0073554D01*
X0446423Y0073652D02*
X0442912Y0073652D01*
X0443011Y0073751D02*
X0446325Y0073751D01*
X0446226Y0073849D02*
X0443109Y0073849D01*
X0443208Y0073948D02*
X0446128Y0073948D01*
X0446029Y0074046D02*
X0443306Y0074046D01*
X0443405Y0074145D02*
X0445931Y0074145D01*
X0445832Y0074243D02*
X0443503Y0074243D01*
X0443602Y0074342D02*
X0445734Y0074342D01*
X0445635Y0074440D02*
X0443700Y0074440D01*
X0443799Y0074539D02*
X0445537Y0074539D01*
X0445438Y0074637D02*
X0443897Y0074637D01*
X0443996Y0074736D02*
X0445340Y0074736D01*
X0445241Y0074834D02*
X0444094Y0074834D01*
X0444193Y0074933D02*
X0445143Y0074933D01*
X0445044Y0075031D02*
X0444291Y0075031D01*
X0444390Y0075130D02*
X0444946Y0075130D01*
X0444847Y0075228D02*
X0444488Y0075228D01*
X0444587Y0075327D02*
X0444749Y0075327D01*
X0445271Y0075918D02*
X0451560Y0075918D01*
X0451606Y0075965D02*
X0448415Y0072774D01*
X0445225Y0075965D01*
X0448415Y0079156D01*
X0451606Y0075965D01*
X0451554Y0076017D02*
X0445276Y0076017D01*
X0445375Y0076115D02*
X0451456Y0076115D01*
X0451357Y0076214D02*
X0445474Y0076214D01*
X0445572Y0076312D02*
X0451259Y0076312D01*
X0451160Y0076411D02*
X0445671Y0076411D01*
X0445769Y0076509D02*
X0451062Y0076509D01*
X0450963Y0076608D02*
X0445868Y0076608D01*
X0445966Y0076706D02*
X0450865Y0076706D01*
X0450766Y0076805D02*
X0446065Y0076805D01*
X0446163Y0076903D02*
X0450668Y0076903D01*
X0450569Y0077002D02*
X0446262Y0077002D01*
X0446360Y0077100D02*
X0450471Y0077100D01*
X0450372Y0077199D02*
X0446459Y0077199D01*
X0446557Y0077297D02*
X0450274Y0077297D01*
X0450175Y0077396D02*
X0446656Y0077396D01*
X0446754Y0077494D02*
X0450077Y0077494D01*
X0449978Y0077593D02*
X0446853Y0077593D01*
X0446951Y0077691D02*
X0449880Y0077691D01*
X0449781Y0077790D02*
X0447050Y0077790D01*
X0447148Y0077888D02*
X0449683Y0077888D01*
X0449584Y0077987D02*
X0447247Y0077987D01*
X0447345Y0078085D02*
X0449486Y0078085D01*
X0449387Y0078184D02*
X0447444Y0078184D01*
X0447542Y0078282D02*
X0449289Y0078282D01*
X0449190Y0078381D02*
X0447641Y0078381D01*
X0447739Y0078479D02*
X0449092Y0078479D01*
X0448993Y0078578D02*
X0447838Y0078578D01*
X0447936Y0078676D02*
X0448895Y0078676D01*
X0448796Y0078775D02*
X0448035Y0078775D01*
X0448133Y0078873D02*
X0448698Y0078873D01*
X0448599Y0078972D02*
X0448232Y0078972D01*
X0448330Y0079070D02*
X0448501Y0079070D01*
X0451461Y0075820D02*
X0445370Y0075820D01*
X0445468Y0075721D02*
X0451363Y0075721D01*
X0451264Y0075623D02*
X0445567Y0075623D01*
X0445665Y0075524D02*
X0451166Y0075524D01*
X0451067Y0075426D02*
X0445764Y0075426D01*
X0445862Y0075327D02*
X0450969Y0075327D01*
X0450870Y0075228D02*
X0445961Y0075228D01*
X0446059Y0075130D02*
X0450772Y0075130D01*
X0450673Y0075031D02*
X0446158Y0075031D01*
X0446256Y0074933D02*
X0450575Y0074933D01*
X0450476Y0074834D02*
X0446355Y0074834D01*
X0446453Y0074736D02*
X0450378Y0074736D01*
X0450279Y0074637D02*
X0446552Y0074637D01*
X0446650Y0074539D02*
X0450181Y0074539D01*
X0450082Y0074440D02*
X0446749Y0074440D01*
X0446847Y0074342D02*
X0449984Y0074342D01*
X0449885Y0074243D02*
X0446946Y0074243D01*
X0447044Y0074145D02*
X0449787Y0074145D01*
X0449688Y0074046D02*
X0447143Y0074046D01*
X0447241Y0073948D02*
X0449590Y0073948D01*
X0449491Y0073849D02*
X0447340Y0073849D01*
X0447438Y0073751D02*
X0449392Y0073751D01*
X0449294Y0073652D02*
X0447537Y0073652D01*
X0447635Y0073554D02*
X0449195Y0073554D01*
X0449097Y0073455D02*
X0447734Y0073455D01*
X0447832Y0073357D02*
X0448998Y0073357D01*
X0448900Y0073258D02*
X0447931Y0073258D01*
X0448029Y0073160D02*
X0448801Y0073160D01*
X0448703Y0073061D02*
X0448128Y0073061D01*
X0448226Y0072963D02*
X0448604Y0072963D01*
X0448506Y0072864D02*
X0448325Y0072864D01*
X0448972Y0072217D02*
X0452163Y0069026D01*
X0455354Y0072217D01*
X0452163Y0075408D01*
X0448972Y0072217D01*
X0449015Y0072175D02*
X0455312Y0072175D01*
X0455298Y0072273D02*
X0449028Y0072273D01*
X0449127Y0072372D02*
X0455199Y0072372D01*
X0455101Y0072470D02*
X0449225Y0072470D01*
X0449324Y0072569D02*
X0455002Y0072569D01*
X0454904Y0072667D02*
X0449422Y0072667D01*
X0449521Y0072766D02*
X0454805Y0072766D01*
X0454707Y0072864D02*
X0449619Y0072864D01*
X0449718Y0072963D02*
X0454608Y0072963D01*
X0454510Y0073061D02*
X0449816Y0073061D01*
X0449915Y0073160D02*
X0454411Y0073160D01*
X0454313Y0073258D02*
X0450013Y0073258D01*
X0450112Y0073357D02*
X0454214Y0073357D01*
X0454116Y0073455D02*
X0450211Y0073455D01*
X0450309Y0073554D02*
X0454017Y0073554D01*
X0453919Y0073652D02*
X0450408Y0073652D01*
X0450506Y0073751D02*
X0453820Y0073751D01*
X0453722Y0073849D02*
X0450605Y0073849D01*
X0450703Y0073948D02*
X0453623Y0073948D01*
X0453525Y0074046D02*
X0450802Y0074046D01*
X0450900Y0074145D02*
X0453426Y0074145D01*
X0453328Y0074243D02*
X0450999Y0074243D01*
X0451097Y0074342D02*
X0453229Y0074342D01*
X0453131Y0074440D02*
X0451196Y0074440D01*
X0451294Y0074539D02*
X0453032Y0074539D01*
X0452934Y0074637D02*
X0451393Y0074637D01*
X0451491Y0074736D02*
X0452835Y0074736D01*
X0452737Y0074834D02*
X0451590Y0074834D01*
X0451688Y0074933D02*
X0452638Y0074933D01*
X0452540Y0075031D02*
X0451787Y0075031D01*
X0451885Y0075130D02*
X0452441Y0075130D01*
X0452343Y0075228D02*
X0451984Y0075228D01*
X0452082Y0075327D02*
X0452244Y0075327D01*
X0455213Y0072076D02*
X0449113Y0072076D01*
X0449212Y0071978D02*
X0455115Y0071978D01*
X0455016Y0071879D02*
X0449310Y0071879D01*
X0449409Y0071781D02*
X0454918Y0071781D01*
X0454819Y0071682D02*
X0449507Y0071682D01*
X0449606Y0071584D02*
X0454721Y0071584D01*
X0454622Y0071485D02*
X0449704Y0071485D01*
X0449803Y0071387D02*
X0454524Y0071387D01*
X0454425Y0071288D02*
X0449901Y0071288D01*
X0450000Y0071190D02*
X0454327Y0071190D01*
X0454228Y0071091D02*
X0450098Y0071091D01*
X0450197Y0070993D02*
X0454130Y0070993D01*
X0454031Y0070894D02*
X0450295Y0070894D01*
X0450394Y0070795D02*
X0453932Y0070795D01*
X0453834Y0070697D02*
X0450492Y0070697D01*
X0450591Y0070598D02*
X0453735Y0070598D01*
X0453637Y0070500D02*
X0450689Y0070500D01*
X0450788Y0070401D02*
X0453538Y0070401D01*
X0453440Y0070303D02*
X0450886Y0070303D01*
X0450985Y0070204D02*
X0453341Y0070204D01*
X0453243Y0070106D02*
X0451083Y0070106D01*
X0451182Y0070007D02*
X0453144Y0070007D01*
X0453046Y0069909D02*
X0451280Y0069909D01*
X0451379Y0069810D02*
X0452947Y0069810D01*
X0452849Y0069712D02*
X0451477Y0069712D01*
X0451576Y0069613D02*
X0452750Y0069613D01*
X0452652Y0069515D02*
X0451674Y0069515D01*
X0451773Y0069416D02*
X0452553Y0069416D01*
X0452455Y0069318D02*
X0451871Y0069318D01*
X0451970Y0069219D02*
X0452356Y0069219D01*
X0452258Y0069121D02*
X0452068Y0069121D01*
X0451546Y0068530D02*
X0445285Y0068530D01*
X0445225Y0068469D02*
X0448415Y0065278D01*
X0451606Y0068469D01*
X0448415Y0071660D01*
X0445225Y0068469D01*
X0445263Y0068431D02*
X0451568Y0068431D01*
X0451470Y0068333D02*
X0445361Y0068333D01*
X0445460Y0068234D02*
X0451371Y0068234D01*
X0451273Y0068136D02*
X0445558Y0068136D01*
X0445657Y0068037D02*
X0451174Y0068037D01*
X0451076Y0067939D02*
X0445755Y0067939D01*
X0445854Y0067840D02*
X0450977Y0067840D01*
X0450879Y0067742D02*
X0445952Y0067742D01*
X0446051Y0067643D02*
X0450780Y0067643D01*
X0450682Y0067545D02*
X0446149Y0067545D01*
X0446248Y0067446D02*
X0450583Y0067446D01*
X0450485Y0067348D02*
X0446346Y0067348D01*
X0446445Y0067249D02*
X0450386Y0067249D01*
X0450288Y0067151D02*
X0446543Y0067151D01*
X0446642Y0067052D02*
X0450189Y0067052D01*
X0450091Y0066954D02*
X0446740Y0066954D01*
X0446839Y0066855D02*
X0449992Y0066855D01*
X0449894Y0066757D02*
X0446937Y0066757D01*
X0447036Y0066658D02*
X0449795Y0066658D01*
X0449697Y0066559D02*
X0447134Y0066559D01*
X0447233Y0066461D02*
X0449598Y0066461D01*
X0449499Y0066362D02*
X0447331Y0066362D01*
X0447430Y0066264D02*
X0449401Y0066264D01*
X0449302Y0066165D02*
X0447528Y0066165D01*
X0447627Y0066067D02*
X0449204Y0066067D01*
X0449105Y0065968D02*
X0447725Y0065968D01*
X0447824Y0065870D02*
X0449007Y0065870D01*
X0448908Y0065771D02*
X0447922Y0065771D01*
X0448021Y0065673D02*
X0448810Y0065673D01*
X0448711Y0065574D02*
X0448120Y0065574D01*
X0448218Y0065476D02*
X0448613Y0065476D01*
X0448514Y0065377D02*
X0448317Y0065377D01*
X0448415Y0065279D02*
X0448416Y0065279D01*
X0451447Y0068628D02*
X0445383Y0068628D01*
X0445482Y0068727D02*
X0451349Y0068727D01*
X0451250Y0068825D02*
X0445580Y0068825D01*
X0445679Y0068924D02*
X0451152Y0068924D01*
X0451053Y0069022D02*
X0445778Y0069022D01*
X0445876Y0069121D02*
X0450955Y0069121D01*
X0450856Y0069219D02*
X0445975Y0069219D01*
X0446073Y0069318D02*
X0450758Y0069318D01*
X0450659Y0069416D02*
X0446172Y0069416D01*
X0446270Y0069515D02*
X0450561Y0069515D01*
X0450462Y0069613D02*
X0446369Y0069613D01*
X0446467Y0069712D02*
X0450364Y0069712D01*
X0450265Y0069810D02*
X0446566Y0069810D01*
X0446664Y0069909D02*
X0450167Y0069909D01*
X0450068Y0070007D02*
X0446763Y0070007D01*
X0446861Y0070106D02*
X0449970Y0070106D01*
X0449871Y0070204D02*
X0446960Y0070204D01*
X0447058Y0070303D02*
X0449773Y0070303D01*
X0449674Y0070401D02*
X0447157Y0070401D01*
X0447255Y0070500D02*
X0449576Y0070500D01*
X0449477Y0070598D02*
X0447354Y0070598D01*
X0447452Y0070697D02*
X0449379Y0070697D01*
X0449280Y0070795D02*
X0447551Y0070795D01*
X0447649Y0070894D02*
X0449182Y0070894D01*
X0449083Y0070993D02*
X0447748Y0070993D01*
X0447846Y0071091D02*
X0448985Y0071091D01*
X0448886Y0071190D02*
X0447945Y0071190D01*
X0448043Y0071288D02*
X0448788Y0071288D01*
X0448689Y0071387D02*
X0448142Y0071387D01*
X0448240Y0071485D02*
X0448591Y0071485D01*
X0448492Y0071584D02*
X0448339Y0071584D01*
X0447718Y0072076D02*
X0441618Y0072076D01*
X0441716Y0071978D02*
X0447619Y0071978D01*
X0447521Y0071879D02*
X0441815Y0071879D01*
X0441913Y0071781D02*
X0447422Y0071781D01*
X0447324Y0071682D02*
X0442012Y0071682D01*
X0442110Y0071584D02*
X0447225Y0071584D01*
X0447127Y0071485D02*
X0442209Y0071485D01*
X0442307Y0071387D02*
X0447028Y0071387D01*
X0446930Y0071288D02*
X0442406Y0071288D01*
X0442504Y0071190D02*
X0446831Y0071190D01*
X0446733Y0071091D02*
X0442603Y0071091D01*
X0442701Y0070993D02*
X0446634Y0070993D01*
X0446536Y0070894D02*
X0442800Y0070894D01*
X0442898Y0070795D02*
X0446437Y0070795D01*
X0446339Y0070697D02*
X0442997Y0070697D01*
X0443095Y0070598D02*
X0446240Y0070598D01*
X0446142Y0070500D02*
X0443194Y0070500D01*
X0443292Y0070401D02*
X0446043Y0070401D01*
X0445945Y0070303D02*
X0443391Y0070303D01*
X0443489Y0070204D02*
X0445846Y0070204D01*
X0445748Y0070106D02*
X0443588Y0070106D01*
X0443686Y0070007D02*
X0445649Y0070007D01*
X0445551Y0069909D02*
X0443785Y0069909D01*
X0443884Y0069810D02*
X0445452Y0069810D01*
X0445354Y0069712D02*
X0443982Y0069712D01*
X0444081Y0069613D02*
X0445255Y0069613D01*
X0445157Y0069515D02*
X0444179Y0069515D01*
X0444278Y0069416D02*
X0445058Y0069416D01*
X0444959Y0069318D02*
X0444376Y0069318D01*
X0444475Y0069219D02*
X0444861Y0069219D01*
X0444762Y0069121D02*
X0444573Y0069121D01*
D17*
X0455162Y0063512D02*
X0456164Y0064514D01*
X0457444Y0063234D01*
X0456442Y0062232D01*
X0455162Y0063512D01*
X0455498Y0063176D02*
X0457386Y0063176D01*
X0456558Y0064120D02*
X0455770Y0064120D01*
X0453381Y0061730D02*
X0452379Y0060728D01*
X0453381Y0061730D02*
X0454661Y0060450D01*
X0453659Y0059448D01*
X0452379Y0060728D01*
X0452715Y0060392D02*
X0454603Y0060392D01*
X0453775Y0061336D02*
X0452987Y0061336D01*
X0445338Y0058267D02*
X0444336Y0059269D01*
X0445616Y0060549D01*
X0446618Y0059547D01*
X0445338Y0058267D01*
X0446282Y0059211D02*
X0444394Y0059211D01*
X0445222Y0060155D02*
X0446010Y0060155D01*
X0442554Y0061051D02*
X0441552Y0062053D01*
X0442832Y0063333D01*
X0443834Y0062331D01*
X0442554Y0061051D01*
X0443498Y0061995D02*
X0441610Y0061995D01*
X0442438Y0062939D02*
X0443226Y0062939D01*
X0462052Y0074623D02*
X0463054Y0073621D01*
X0462052Y0074623D02*
X0463332Y0075903D01*
X0464334Y0074901D01*
X0463054Y0073621D01*
X0463998Y0074565D02*
X0462110Y0074565D01*
X0462938Y0075509D02*
X0463726Y0075509D01*
X0460270Y0076405D02*
X0459268Y0077407D01*
X0460548Y0078687D01*
X0461550Y0077685D01*
X0460270Y0076405D01*
X0461214Y0077349D02*
X0459326Y0077349D01*
X0460154Y0078293D02*
X0460942Y0078293D01*
X0459216Y0080019D02*
X0458214Y0081021D01*
X0459216Y0080019D02*
X0457936Y0078739D01*
X0456934Y0079741D01*
X0458214Y0081021D01*
X0458880Y0079683D02*
X0456992Y0079683D01*
X0457820Y0080627D02*
X0458608Y0080627D01*
X0456432Y0082803D02*
X0455430Y0083805D01*
X0456432Y0082803D02*
X0455152Y0081523D01*
X0454150Y0082525D01*
X0455430Y0083805D01*
X0456096Y0082467D02*
X0454208Y0082467D01*
X0455036Y0083411D02*
X0455824Y0083411D01*
X0451093Y0086903D02*
X0449675Y0086903D01*
X0451093Y0086903D02*
X0451093Y0085091D01*
X0449675Y0085091D01*
X0449675Y0086903D01*
X0449675Y0086035D02*
X0451093Y0086035D01*
X0447156Y0086903D02*
X0445738Y0086903D01*
X0447156Y0086903D02*
X0447156Y0085091D01*
X0445738Y0085091D01*
X0445738Y0086903D01*
X0445738Y0086035D02*
X0447156Y0086035D01*
X0439925Y0078982D02*
X0438923Y0077980D01*
X0437643Y0079260D01*
X0438645Y0080262D01*
X0439925Y0078982D01*
X0439867Y0078924D02*
X0437979Y0078924D01*
X0438251Y0079868D02*
X0439039Y0079868D01*
X0437141Y0076198D02*
X0436139Y0075196D01*
X0434859Y0076476D01*
X0435861Y0077478D01*
X0437141Y0076198D01*
X0437083Y0076140D02*
X0435195Y0076140D01*
X0435467Y0077084D02*
X0436255Y0077084D01*
X0494163Y0070130D02*
X0495581Y0070130D01*
X0494163Y0070130D02*
X0494163Y0071942D01*
X0495581Y0071942D01*
X0495581Y0070130D01*
X0495581Y0071074D02*
X0494163Y0071074D01*
X0498100Y0070130D02*
X0499518Y0070130D01*
X0498100Y0070130D02*
X0498100Y0071942D01*
X0499518Y0071942D01*
X0499518Y0070130D01*
X0499518Y0071074D02*
X0498100Y0071074D01*
X0339242Y0084106D02*
X0339242Y0085524D01*
X0341054Y0085524D01*
X0341054Y0084106D01*
X0339242Y0084106D01*
X0339242Y0085050D02*
X0341054Y0085050D01*
X0339242Y0088043D02*
X0339242Y0089461D01*
X0341054Y0089461D01*
X0341054Y0088043D01*
X0339242Y0088043D01*
X0339242Y0088987D02*
X0341054Y0088987D01*
X0328612Y0069776D02*
X0328612Y0068358D01*
X0328612Y0069776D02*
X0330424Y0069776D01*
X0330424Y0068358D01*
X0328612Y0068358D01*
X0328612Y0069302D02*
X0330424Y0069302D01*
X0328612Y0065839D02*
X0328612Y0064421D01*
X0328612Y0065839D02*
X0330424Y0065839D01*
X0330424Y0064421D01*
X0328612Y0064421D01*
X0328612Y0065365D02*
X0330424Y0065365D01*
X0333139Y0065446D02*
X0333139Y0064028D01*
X0333139Y0065446D02*
X0334951Y0065446D01*
X0334951Y0064028D01*
X0333139Y0064028D01*
X0333139Y0064972D02*
X0334951Y0064972D01*
X0333139Y0061509D02*
X0333139Y0060091D01*
X0333139Y0061509D02*
X0334951Y0061509D01*
X0334951Y0060091D01*
X0333139Y0060091D01*
X0333139Y0061035D02*
X0334951Y0061035D01*
D18*
X0481093Y0074973D03*
X0488573Y0074973D03*
X0484833Y0083241D03*
D19*
X0474793Y0083241D03*
X0474793Y0074579D03*
D20*
X0494282Y0077138D03*
X0501762Y0077138D03*
X0501762Y0086193D03*
X0494282Y0086193D03*
D21*
X0340935Y0078024D02*
X0340935Y0077434D01*
X0340920Y0077358D01*
X0340877Y0077294D01*
X0340814Y0077252D01*
X0340738Y0077237D01*
X0338770Y0077237D01*
X0338694Y0077252D01*
X0338631Y0077294D01*
X0338588Y0077358D01*
X0338573Y0077434D01*
X0338573Y0078024D01*
X0338588Y0078099D01*
X0338631Y0078163D01*
X0338694Y0078206D01*
X0338770Y0078221D01*
X0340738Y0078221D01*
X0340814Y0078206D01*
X0340877Y0078163D01*
X0340920Y0078099D01*
X0340935Y0078024D01*
X0340935Y0078011D02*
X0338573Y0078011D01*
X0338578Y0078049D02*
X0340930Y0078049D01*
X0340923Y0078086D02*
X0338585Y0078086D01*
X0338605Y0078124D02*
X0340903Y0078124D01*
X0340878Y0078162D02*
X0338630Y0078162D01*
X0338686Y0078200D02*
X0340822Y0078200D01*
X0340935Y0077973D02*
X0338573Y0077973D01*
X0338573Y0077935D02*
X0340935Y0077935D01*
X0340935Y0077897D02*
X0338573Y0077897D01*
X0338573Y0077859D02*
X0340935Y0077859D01*
X0340935Y0077821D02*
X0338573Y0077821D01*
X0338573Y0077783D02*
X0340935Y0077783D01*
X0340935Y0077746D02*
X0338573Y0077746D01*
X0338573Y0077708D02*
X0340935Y0077708D01*
X0340935Y0077670D02*
X0338573Y0077670D01*
X0338573Y0077632D02*
X0340935Y0077632D01*
X0340935Y0077594D02*
X0338573Y0077594D01*
X0338573Y0077556D02*
X0340935Y0077556D01*
X0340935Y0077518D02*
X0338573Y0077518D01*
X0338573Y0077480D02*
X0340935Y0077480D01*
X0340935Y0077442D02*
X0338573Y0077442D01*
X0338579Y0077405D02*
X0340929Y0077405D01*
X0340922Y0077367D02*
X0338586Y0077367D01*
X0338608Y0077329D02*
X0340901Y0077329D01*
X0340872Y0077291D02*
X0338636Y0077291D01*
X0338692Y0077253D02*
X0340816Y0077253D01*
X0337786Y0077434D02*
X0337786Y0078024D01*
X0337771Y0078099D01*
X0337728Y0078163D01*
X0337664Y0078206D01*
X0337589Y0078221D01*
X0335620Y0078221D01*
X0335545Y0078206D01*
X0335481Y0078163D01*
X0335438Y0078099D01*
X0335423Y0078024D01*
X0335423Y0077434D01*
X0335438Y0077358D01*
X0335481Y0077294D01*
X0335545Y0077252D01*
X0335620Y0077237D01*
X0337589Y0077237D01*
X0337664Y0077252D01*
X0337728Y0077294D01*
X0337771Y0077358D01*
X0337786Y0077434D01*
X0337786Y0077442D02*
X0335423Y0077442D01*
X0335429Y0077405D02*
X0337780Y0077405D01*
X0337772Y0077367D02*
X0335437Y0077367D01*
X0335458Y0077329D02*
X0337751Y0077329D01*
X0337723Y0077291D02*
X0335486Y0077291D01*
X0335543Y0077253D02*
X0337666Y0077253D01*
X0337786Y0077480D02*
X0335423Y0077480D01*
X0335423Y0077518D02*
X0337786Y0077518D01*
X0337786Y0077556D02*
X0335423Y0077556D01*
X0335423Y0077594D02*
X0337786Y0077594D01*
X0337786Y0077632D02*
X0335423Y0077632D01*
X0335423Y0077670D02*
X0337786Y0077670D01*
X0337786Y0077708D02*
X0335423Y0077708D01*
X0335423Y0077746D02*
X0337786Y0077746D01*
X0337786Y0077783D02*
X0335423Y0077783D01*
X0335423Y0077821D02*
X0337786Y0077821D01*
X0337786Y0077859D02*
X0335423Y0077859D01*
X0335423Y0077897D02*
X0337786Y0077897D01*
X0337786Y0077935D02*
X0335423Y0077935D01*
X0335423Y0077973D02*
X0337786Y0077973D01*
X0337786Y0078011D02*
X0335423Y0078011D01*
X0335428Y0078049D02*
X0337781Y0078049D01*
X0337773Y0078086D02*
X0335436Y0078086D01*
X0335455Y0078124D02*
X0337754Y0078124D01*
X0337729Y0078162D02*
X0335480Y0078162D01*
X0335536Y0078200D02*
X0337673Y0078200D01*
X0337490Y0080091D02*
X0336900Y0080091D01*
X0336824Y0080106D01*
X0336761Y0080149D01*
X0336718Y0080213D01*
X0336703Y0080288D01*
X0336703Y0082256D01*
X0336718Y0082332D01*
X0336761Y0082396D01*
X0336824Y0082438D01*
X0336900Y0082453D01*
X0337490Y0082453D01*
X0337566Y0082438D01*
X0337629Y0082396D01*
X0337672Y0082332D01*
X0337687Y0082256D01*
X0337687Y0080288D01*
X0337672Y0080213D01*
X0337629Y0080149D01*
X0337566Y0080106D01*
X0337490Y0080091D01*
X0337506Y0080094D02*
X0336884Y0080094D01*
X0336785Y0080132D02*
X0337605Y0080132D01*
X0337644Y0080170D02*
X0336746Y0080170D01*
X0336721Y0080208D02*
X0337669Y0080208D01*
X0337679Y0080246D02*
X0336711Y0080246D01*
X0336704Y0080284D02*
X0337686Y0080284D01*
X0337687Y0080321D02*
X0336703Y0080321D01*
X0336703Y0080359D02*
X0337687Y0080359D01*
X0337687Y0080397D02*
X0336703Y0080397D01*
X0336703Y0080435D02*
X0337687Y0080435D01*
X0337687Y0080473D02*
X0336703Y0080473D01*
X0336703Y0080511D02*
X0337687Y0080511D01*
X0337687Y0080549D02*
X0336703Y0080549D01*
X0336703Y0080587D02*
X0337687Y0080587D01*
X0337687Y0080625D02*
X0336703Y0080625D01*
X0336703Y0080662D02*
X0337687Y0080662D01*
X0337687Y0080700D02*
X0336703Y0080700D01*
X0336703Y0080738D02*
X0337687Y0080738D01*
X0337687Y0080776D02*
X0336703Y0080776D01*
X0336703Y0080814D02*
X0337687Y0080814D01*
X0337687Y0080852D02*
X0336703Y0080852D01*
X0336703Y0080890D02*
X0337687Y0080890D01*
X0337687Y0080928D02*
X0336703Y0080928D01*
X0336703Y0080965D02*
X0337687Y0080965D01*
X0337687Y0081003D02*
X0336703Y0081003D01*
X0336703Y0081041D02*
X0337687Y0081041D01*
X0337687Y0081079D02*
X0336703Y0081079D01*
X0336703Y0081117D02*
X0337687Y0081117D01*
X0337687Y0081155D02*
X0336703Y0081155D01*
X0336703Y0081193D02*
X0337687Y0081193D01*
X0337687Y0081231D02*
X0336703Y0081231D01*
X0336703Y0081269D02*
X0337687Y0081269D01*
X0337687Y0081306D02*
X0336703Y0081306D01*
X0336703Y0081344D02*
X0337687Y0081344D01*
X0337687Y0081382D02*
X0336703Y0081382D01*
X0336703Y0081420D02*
X0337687Y0081420D01*
X0337687Y0081458D02*
X0336703Y0081458D01*
X0336703Y0081496D02*
X0337687Y0081496D01*
X0337687Y0081534D02*
X0336703Y0081534D01*
X0336703Y0081572D02*
X0337687Y0081572D01*
X0337687Y0081609D02*
X0336703Y0081609D01*
X0336703Y0081647D02*
X0337687Y0081647D01*
X0337687Y0081685D02*
X0336703Y0081685D01*
X0336703Y0081723D02*
X0337687Y0081723D01*
X0337687Y0081761D02*
X0336703Y0081761D01*
X0336703Y0081799D02*
X0337687Y0081799D01*
X0337687Y0081837D02*
X0336703Y0081837D01*
X0336703Y0081875D02*
X0337687Y0081875D01*
X0337687Y0081913D02*
X0336703Y0081913D01*
X0336703Y0081950D02*
X0337687Y0081950D01*
X0337687Y0081988D02*
X0336703Y0081988D01*
X0336703Y0082026D02*
X0337687Y0082026D01*
X0337687Y0082064D02*
X0336703Y0082064D01*
X0336703Y0082102D02*
X0337687Y0082102D01*
X0337687Y0082140D02*
X0336703Y0082140D01*
X0336703Y0082178D02*
X0337687Y0082178D01*
X0337687Y0082216D02*
X0336703Y0082216D01*
X0336703Y0082253D02*
X0337687Y0082253D01*
X0337680Y0082291D02*
X0336710Y0082291D01*
X0336717Y0082329D02*
X0337673Y0082329D01*
X0337648Y0082367D02*
X0336741Y0082367D01*
X0336775Y0082405D02*
X0337615Y0082405D01*
X0337542Y0082443D02*
X0336848Y0082443D01*
X0335719Y0082256D02*
X0335719Y0080288D01*
X0335704Y0080213D01*
X0335661Y0080149D01*
X0335597Y0080106D01*
X0335522Y0080091D01*
X0334931Y0080091D01*
X0334856Y0080106D01*
X0334792Y0080149D01*
X0334749Y0080213D01*
X0334734Y0080288D01*
X0334734Y0082256D01*
X0334749Y0082332D01*
X0334792Y0082396D01*
X0334856Y0082438D01*
X0334931Y0082453D01*
X0335522Y0082453D01*
X0335597Y0082438D01*
X0335661Y0082396D01*
X0335704Y0082332D01*
X0335719Y0082256D01*
X0335719Y0082253D02*
X0334734Y0082253D01*
X0334734Y0082216D02*
X0335719Y0082216D01*
X0335719Y0082178D02*
X0334734Y0082178D01*
X0334734Y0082140D02*
X0335719Y0082140D01*
X0335719Y0082102D02*
X0334734Y0082102D01*
X0334734Y0082064D02*
X0335719Y0082064D01*
X0335719Y0082026D02*
X0334734Y0082026D01*
X0334734Y0081988D02*
X0335719Y0081988D01*
X0335719Y0081950D02*
X0334734Y0081950D01*
X0334734Y0081913D02*
X0335719Y0081913D01*
X0335719Y0081875D02*
X0334734Y0081875D01*
X0334734Y0081837D02*
X0335719Y0081837D01*
X0335719Y0081799D02*
X0334734Y0081799D01*
X0334734Y0081761D02*
X0335719Y0081761D01*
X0335719Y0081723D02*
X0334734Y0081723D01*
X0334734Y0081685D02*
X0335719Y0081685D01*
X0335719Y0081647D02*
X0334734Y0081647D01*
X0334734Y0081609D02*
X0335719Y0081609D01*
X0335719Y0081572D02*
X0334734Y0081572D01*
X0334734Y0081534D02*
X0335719Y0081534D01*
X0335719Y0081496D02*
X0334734Y0081496D01*
X0334734Y0081458D02*
X0335719Y0081458D01*
X0335719Y0081420D02*
X0334734Y0081420D01*
X0334734Y0081382D02*
X0335719Y0081382D01*
X0335719Y0081344D02*
X0334734Y0081344D01*
X0334734Y0081306D02*
X0335719Y0081306D01*
X0335719Y0081269D02*
X0334734Y0081269D01*
X0334734Y0081231D02*
X0335719Y0081231D01*
X0335719Y0081193D02*
X0334734Y0081193D01*
X0334734Y0081155D02*
X0335719Y0081155D01*
X0335719Y0081117D02*
X0334734Y0081117D01*
X0334734Y0081079D02*
X0335719Y0081079D01*
X0335719Y0081041D02*
X0334734Y0081041D01*
X0334734Y0081003D02*
X0335719Y0081003D01*
X0335719Y0080965D02*
X0334734Y0080965D01*
X0334734Y0080928D02*
X0335719Y0080928D01*
X0335719Y0080890D02*
X0334734Y0080890D01*
X0334734Y0080852D02*
X0335719Y0080852D01*
X0335719Y0080814D02*
X0334734Y0080814D01*
X0334734Y0080776D02*
X0335719Y0080776D01*
X0335719Y0080738D02*
X0334734Y0080738D01*
X0334734Y0080700D02*
X0335719Y0080700D01*
X0335719Y0080662D02*
X0334734Y0080662D01*
X0334734Y0080625D02*
X0335719Y0080625D01*
X0335719Y0080587D02*
X0334734Y0080587D01*
X0334734Y0080549D02*
X0335719Y0080549D01*
X0335719Y0080511D02*
X0334734Y0080511D01*
X0334734Y0080473D02*
X0335719Y0080473D01*
X0335719Y0080435D02*
X0334734Y0080435D01*
X0334734Y0080397D02*
X0335719Y0080397D01*
X0335719Y0080359D02*
X0334734Y0080359D01*
X0334734Y0080321D02*
X0335719Y0080321D01*
X0335718Y0080284D02*
X0334735Y0080284D01*
X0334743Y0080246D02*
X0335710Y0080246D01*
X0335700Y0080208D02*
X0334752Y0080208D01*
X0334778Y0080170D02*
X0335675Y0080170D01*
X0335636Y0080132D02*
X0334817Y0080132D01*
X0334915Y0080094D02*
X0335538Y0080094D01*
X0333750Y0080288D02*
X0333750Y0082256D01*
X0333735Y0082332D01*
X0333692Y0082396D01*
X0333629Y0082438D01*
X0333553Y0082453D01*
X0332963Y0082453D01*
X0332887Y0082438D01*
X0332823Y0082396D01*
X0332781Y0082332D01*
X0332766Y0082256D01*
X0332766Y0080288D01*
X0332781Y0080213D01*
X0332823Y0080149D01*
X0332887Y0080106D01*
X0332963Y0080091D01*
X0333553Y0080091D01*
X0333629Y0080106D01*
X0333692Y0080149D01*
X0333735Y0080213D01*
X0333750Y0080288D01*
X0333749Y0080284D02*
X0332767Y0080284D01*
X0332766Y0080321D02*
X0333750Y0080321D01*
X0333750Y0080359D02*
X0332766Y0080359D01*
X0332766Y0080397D02*
X0333750Y0080397D01*
X0333750Y0080435D02*
X0332766Y0080435D01*
X0332766Y0080473D02*
X0333750Y0080473D01*
X0333750Y0080511D02*
X0332766Y0080511D01*
X0332766Y0080549D02*
X0333750Y0080549D01*
X0333750Y0080587D02*
X0332766Y0080587D01*
X0332766Y0080625D02*
X0333750Y0080625D01*
X0333750Y0080662D02*
X0332766Y0080662D01*
X0332766Y0080700D02*
X0333750Y0080700D01*
X0333750Y0080738D02*
X0332766Y0080738D01*
X0332766Y0080776D02*
X0333750Y0080776D01*
X0333750Y0080814D02*
X0332766Y0080814D01*
X0332766Y0080852D02*
X0333750Y0080852D01*
X0333750Y0080890D02*
X0332766Y0080890D01*
X0332766Y0080928D02*
X0333750Y0080928D01*
X0333750Y0080965D02*
X0332766Y0080965D01*
X0332766Y0081003D02*
X0333750Y0081003D01*
X0333750Y0081041D02*
X0332766Y0081041D01*
X0332766Y0081079D02*
X0333750Y0081079D01*
X0333750Y0081117D02*
X0332766Y0081117D01*
X0332766Y0081155D02*
X0333750Y0081155D01*
X0333750Y0081193D02*
X0332766Y0081193D01*
X0332766Y0081231D02*
X0333750Y0081231D01*
X0333750Y0081269D02*
X0332766Y0081269D01*
X0332766Y0081306D02*
X0333750Y0081306D01*
X0333750Y0081344D02*
X0332766Y0081344D01*
X0332766Y0081382D02*
X0333750Y0081382D01*
X0333750Y0081420D02*
X0332766Y0081420D01*
X0332766Y0081458D02*
X0333750Y0081458D01*
X0333750Y0081496D02*
X0332766Y0081496D01*
X0332766Y0081534D02*
X0333750Y0081534D01*
X0333750Y0081572D02*
X0332766Y0081572D01*
X0332766Y0081609D02*
X0333750Y0081609D01*
X0333750Y0081647D02*
X0332766Y0081647D01*
X0332766Y0081685D02*
X0333750Y0081685D01*
X0333750Y0081723D02*
X0332766Y0081723D01*
X0332766Y0081761D02*
X0333750Y0081761D01*
X0333750Y0081799D02*
X0332766Y0081799D01*
X0332766Y0081837D02*
X0333750Y0081837D01*
X0333750Y0081875D02*
X0332766Y0081875D01*
X0332766Y0081913D02*
X0333750Y0081913D01*
X0333750Y0081950D02*
X0332766Y0081950D01*
X0332766Y0081988D02*
X0333750Y0081988D01*
X0333750Y0082026D02*
X0332766Y0082026D01*
X0332766Y0082064D02*
X0333750Y0082064D01*
X0333750Y0082102D02*
X0332766Y0082102D01*
X0332766Y0082140D02*
X0333750Y0082140D01*
X0333750Y0082178D02*
X0332766Y0082178D01*
X0332766Y0082216D02*
X0333750Y0082216D01*
X0333750Y0082253D02*
X0332766Y0082253D01*
X0332773Y0082291D02*
X0333743Y0082291D01*
X0333736Y0082329D02*
X0332780Y0082329D01*
X0332804Y0082367D02*
X0333711Y0082367D01*
X0333678Y0082405D02*
X0332838Y0082405D01*
X0332910Y0082443D02*
X0333605Y0082443D01*
X0334741Y0082291D02*
X0335712Y0082291D01*
X0335704Y0082329D02*
X0334749Y0082329D01*
X0334773Y0082367D02*
X0335680Y0082367D01*
X0335647Y0082405D02*
X0334806Y0082405D01*
X0334879Y0082443D02*
X0335574Y0082443D01*
X0333742Y0080246D02*
X0332774Y0080246D01*
X0332784Y0080208D02*
X0333732Y0080208D01*
X0333707Y0080170D02*
X0332809Y0080170D01*
X0332848Y0080132D02*
X0333668Y0080132D01*
X0333569Y0080094D02*
X0332947Y0080094D01*
X0338671Y0080288D02*
X0338671Y0082256D01*
X0338686Y0082332D01*
X0338729Y0082396D01*
X0338793Y0082438D01*
X0338868Y0082453D01*
X0339459Y0082453D01*
X0339534Y0082438D01*
X0339598Y0082396D01*
X0339641Y0082332D01*
X0339656Y0082256D01*
X0339656Y0080288D01*
X0339641Y0080213D01*
X0339598Y0080149D01*
X0339534Y0080106D01*
X0339459Y0080091D01*
X0338868Y0080091D01*
X0338793Y0080106D01*
X0338729Y0080149D01*
X0338686Y0080213D01*
X0338671Y0080288D01*
X0338672Y0080284D02*
X0339655Y0080284D01*
X0339656Y0080321D02*
X0338671Y0080321D01*
X0338671Y0080359D02*
X0339656Y0080359D01*
X0339656Y0080397D02*
X0338671Y0080397D01*
X0338671Y0080435D02*
X0339656Y0080435D01*
X0339656Y0080473D02*
X0338671Y0080473D01*
X0338671Y0080511D02*
X0339656Y0080511D01*
X0339656Y0080549D02*
X0338671Y0080549D01*
X0338671Y0080587D02*
X0339656Y0080587D01*
X0339656Y0080625D02*
X0338671Y0080625D01*
X0338671Y0080662D02*
X0339656Y0080662D01*
X0339656Y0080700D02*
X0338671Y0080700D01*
X0338671Y0080738D02*
X0339656Y0080738D01*
X0339656Y0080776D02*
X0338671Y0080776D01*
X0338671Y0080814D02*
X0339656Y0080814D01*
X0339656Y0080852D02*
X0338671Y0080852D01*
X0338671Y0080890D02*
X0339656Y0080890D01*
X0339656Y0080928D02*
X0338671Y0080928D01*
X0338671Y0080965D02*
X0339656Y0080965D01*
X0339656Y0081003D02*
X0338671Y0081003D01*
X0338671Y0081041D02*
X0339656Y0081041D01*
X0339656Y0081079D02*
X0338671Y0081079D01*
X0338671Y0081117D02*
X0339656Y0081117D01*
X0339656Y0081155D02*
X0338671Y0081155D01*
X0338671Y0081193D02*
X0339656Y0081193D01*
X0339656Y0081231D02*
X0338671Y0081231D01*
X0338671Y0081269D02*
X0339656Y0081269D01*
X0339656Y0081306D02*
X0338671Y0081306D01*
X0338671Y0081344D02*
X0339656Y0081344D01*
X0339656Y0081382D02*
X0338671Y0081382D01*
X0338671Y0081420D02*
X0339656Y0081420D01*
X0339656Y0081458D02*
X0338671Y0081458D01*
X0338671Y0081496D02*
X0339656Y0081496D01*
X0339656Y0081534D02*
X0338671Y0081534D01*
X0338671Y0081572D02*
X0339656Y0081572D01*
X0339656Y0081609D02*
X0338671Y0081609D01*
X0338671Y0081647D02*
X0339656Y0081647D01*
X0339656Y0081685D02*
X0338671Y0081685D01*
X0338671Y0081723D02*
X0339656Y0081723D01*
X0339656Y0081761D02*
X0338671Y0081761D01*
X0338671Y0081799D02*
X0339656Y0081799D01*
X0339656Y0081837D02*
X0338671Y0081837D01*
X0338671Y0081875D02*
X0339656Y0081875D01*
X0339656Y0081913D02*
X0338671Y0081913D01*
X0338671Y0081950D02*
X0339656Y0081950D01*
X0339656Y0081988D02*
X0338671Y0081988D01*
X0338671Y0082026D02*
X0339656Y0082026D01*
X0339656Y0082064D02*
X0338671Y0082064D01*
X0338671Y0082102D02*
X0339656Y0082102D01*
X0339656Y0082140D02*
X0338671Y0082140D01*
X0338671Y0082178D02*
X0339656Y0082178D01*
X0339656Y0082216D02*
X0338671Y0082216D01*
X0338671Y0082253D02*
X0339656Y0082253D01*
X0339649Y0082291D02*
X0338678Y0082291D01*
X0338686Y0082329D02*
X0339641Y0082329D01*
X0339617Y0082367D02*
X0338710Y0082367D01*
X0338743Y0082405D02*
X0339584Y0082405D01*
X0339511Y0082443D02*
X0338816Y0082443D01*
X0338680Y0080246D02*
X0339647Y0080246D01*
X0339637Y0080208D02*
X0338689Y0080208D01*
X0338715Y0080170D02*
X0339612Y0080170D01*
X0339573Y0080132D02*
X0338754Y0080132D01*
X0338852Y0080094D02*
X0339475Y0080094D01*
X0336887Y0076230D02*
X0334747Y0076230D01*
X0334757Y0076237D02*
X0334833Y0076252D01*
X0336801Y0076252D01*
X0336877Y0076237D01*
X0336940Y0076195D01*
X0336983Y0076131D01*
X0336998Y0076056D01*
X0336998Y0075465D01*
X0336983Y0075390D01*
X0336940Y0075326D01*
X0336877Y0075283D01*
X0334757Y0075283D01*
X0334694Y0075326D01*
X0334651Y0075390D01*
X0334636Y0075465D01*
X0334636Y0076056D01*
X0334651Y0076131D01*
X0334694Y0076195D01*
X0334757Y0076237D01*
X0334692Y0076192D02*
X0336942Y0076192D01*
X0336967Y0076155D02*
X0334667Y0076155D01*
X0334648Y0076117D02*
X0336986Y0076117D01*
X0336994Y0076079D02*
X0334641Y0076079D01*
X0334636Y0076041D02*
X0336998Y0076041D01*
X0336998Y0076003D02*
X0334636Y0076003D01*
X0334636Y0075965D02*
X0336998Y0075965D01*
X0336998Y0075927D02*
X0334636Y0075927D01*
X0334636Y0075889D02*
X0336998Y0075889D01*
X0336998Y0075851D02*
X0334636Y0075851D01*
X0334636Y0075814D02*
X0336998Y0075814D01*
X0336998Y0075776D02*
X0334636Y0075776D01*
X0334636Y0075738D02*
X0336998Y0075738D01*
X0336998Y0075700D02*
X0334636Y0075700D01*
X0334636Y0075662D02*
X0336998Y0075662D01*
X0336998Y0075624D02*
X0334636Y0075624D01*
X0334636Y0075586D02*
X0336998Y0075586D01*
X0336998Y0075548D02*
X0334636Y0075548D01*
X0334636Y0075511D02*
X0336998Y0075511D01*
X0336998Y0075473D02*
X0334636Y0075473D01*
X0334642Y0075435D02*
X0336992Y0075435D01*
X0336985Y0075397D02*
X0334649Y0075397D01*
X0334671Y0075359D02*
X0336963Y0075359D01*
X0336933Y0075321D02*
X0334701Y0075321D01*
X0334757Y0075283D02*
X0334833Y0075268D01*
X0336801Y0075268D01*
X0336877Y0075283D01*
X0337589Y0074284D02*
X0335620Y0074284D01*
X0335545Y0074269D01*
X0335481Y0074226D01*
X0335438Y0074162D01*
X0335423Y0074087D01*
X0335423Y0073497D01*
X0335438Y0073421D01*
X0335481Y0073357D01*
X0335545Y0073315D01*
X0335620Y0073300D01*
X0337589Y0073300D01*
X0337664Y0073315D01*
X0337728Y0073357D01*
X0337771Y0073421D01*
X0337786Y0073497D01*
X0337786Y0074087D01*
X0337771Y0074162D01*
X0337728Y0074226D01*
X0337664Y0074269D01*
X0337589Y0074284D01*
X0337677Y0074260D02*
X0335532Y0074260D01*
X0335478Y0074223D02*
X0337730Y0074223D01*
X0337756Y0074185D02*
X0335453Y0074185D01*
X0335435Y0074147D02*
X0337774Y0074147D01*
X0337781Y0074109D02*
X0335428Y0074109D01*
X0335423Y0074071D02*
X0337786Y0074071D01*
X0337786Y0074033D02*
X0335423Y0074033D01*
X0335423Y0073995D02*
X0337786Y0073995D01*
X0337786Y0073957D02*
X0335423Y0073957D01*
X0335423Y0073920D02*
X0337786Y0073920D01*
X0337786Y0073882D02*
X0335423Y0073882D01*
X0335423Y0073844D02*
X0337786Y0073844D01*
X0337786Y0073806D02*
X0335423Y0073806D01*
X0335423Y0073768D02*
X0337786Y0073768D01*
X0337786Y0073730D02*
X0335423Y0073730D01*
X0335423Y0073692D02*
X0337786Y0073692D01*
X0337786Y0073654D02*
X0335423Y0073654D01*
X0335423Y0073616D02*
X0337786Y0073616D01*
X0337786Y0073579D02*
X0335423Y0073579D01*
X0335423Y0073541D02*
X0337786Y0073541D01*
X0337786Y0073503D02*
X0335423Y0073503D01*
X0335430Y0073465D02*
X0337779Y0073465D01*
X0337772Y0073427D02*
X0335437Y0073427D01*
X0335460Y0073389D02*
X0337749Y0073389D01*
X0337719Y0073351D02*
X0335490Y0073351D01*
X0335551Y0073313D02*
X0337658Y0073313D01*
X0338573Y0073497D02*
X0338573Y0074087D01*
X0338588Y0074162D01*
X0338631Y0074226D01*
X0338694Y0074269D01*
X0338770Y0074284D01*
X0340738Y0074284D01*
X0340814Y0074269D01*
X0340877Y0074226D01*
X0340920Y0074162D01*
X0340935Y0074087D01*
X0340935Y0073497D01*
X0340920Y0073421D01*
X0340877Y0073357D01*
X0340814Y0073315D01*
X0340738Y0073300D01*
X0338770Y0073300D01*
X0338694Y0073315D01*
X0338631Y0073357D01*
X0338588Y0073421D01*
X0338573Y0073497D01*
X0338573Y0073503D02*
X0340935Y0073503D01*
X0340935Y0073541D02*
X0338573Y0073541D01*
X0338573Y0073579D02*
X0340935Y0073579D01*
X0340935Y0073616D02*
X0338573Y0073616D01*
X0338573Y0073654D02*
X0340935Y0073654D01*
X0340935Y0073692D02*
X0338573Y0073692D01*
X0338573Y0073730D02*
X0340935Y0073730D01*
X0340935Y0073768D02*
X0338573Y0073768D01*
X0338573Y0073806D02*
X0340935Y0073806D01*
X0340935Y0073844D02*
X0338573Y0073844D01*
X0338573Y0073882D02*
X0340935Y0073882D01*
X0340935Y0073920D02*
X0338573Y0073920D01*
X0338573Y0073957D02*
X0340935Y0073957D01*
X0340935Y0073995D02*
X0338573Y0073995D01*
X0338573Y0074033D02*
X0340935Y0074033D01*
X0340935Y0074071D02*
X0338573Y0074071D01*
X0338577Y0074109D02*
X0340931Y0074109D01*
X0340923Y0074147D02*
X0338585Y0074147D01*
X0338603Y0074185D02*
X0340905Y0074185D01*
X0340880Y0074223D02*
X0338628Y0074223D01*
X0338682Y0074260D02*
X0340826Y0074260D01*
X0340929Y0073465D02*
X0338579Y0073465D01*
X0338587Y0073427D02*
X0340921Y0073427D01*
X0340899Y0073389D02*
X0338609Y0073389D01*
X0338640Y0073351D02*
X0340868Y0073351D01*
X0340807Y0073313D02*
X0338701Y0073313D01*
X0338868Y0071430D02*
X0339459Y0071430D01*
X0339534Y0071415D01*
X0339598Y0071372D01*
X0339641Y0071308D01*
X0339656Y0071233D01*
X0339656Y0069264D01*
X0339641Y0069189D01*
X0339598Y0069125D01*
X0339534Y0069082D01*
X0339459Y0069067D01*
X0338868Y0069067D01*
X0338793Y0069082D01*
X0338729Y0069125D01*
X0338686Y0069189D01*
X0338671Y0069264D01*
X0338671Y0071233D01*
X0338686Y0071308D01*
X0338729Y0071372D01*
X0338793Y0071415D01*
X0338868Y0071430D01*
X0338817Y0071419D02*
X0339510Y0071419D01*
X0339584Y0071381D02*
X0338743Y0071381D01*
X0338710Y0071344D02*
X0339617Y0071344D01*
X0339641Y0071306D02*
X0338686Y0071306D01*
X0338678Y0071268D02*
X0339649Y0071268D01*
X0339656Y0071230D02*
X0338671Y0071230D01*
X0338671Y0071192D02*
X0339656Y0071192D01*
X0339656Y0071154D02*
X0338671Y0071154D01*
X0338671Y0071116D02*
X0339656Y0071116D01*
X0339656Y0071078D02*
X0338671Y0071078D01*
X0338671Y0071041D02*
X0339656Y0071041D01*
X0339656Y0071003D02*
X0338671Y0071003D01*
X0338671Y0070965D02*
X0339656Y0070965D01*
X0339656Y0070927D02*
X0338671Y0070927D01*
X0338671Y0070889D02*
X0339656Y0070889D01*
X0339656Y0070851D02*
X0338671Y0070851D01*
X0338671Y0070813D02*
X0339656Y0070813D01*
X0339656Y0070775D02*
X0338671Y0070775D01*
X0338671Y0070737D02*
X0339656Y0070737D01*
X0339656Y0070700D02*
X0338671Y0070700D01*
X0338671Y0070662D02*
X0339656Y0070662D01*
X0339656Y0070624D02*
X0338671Y0070624D01*
X0338671Y0070586D02*
X0339656Y0070586D01*
X0339656Y0070548D02*
X0338671Y0070548D01*
X0338671Y0070510D02*
X0339656Y0070510D01*
X0339656Y0070472D02*
X0338671Y0070472D01*
X0338671Y0070434D02*
X0339656Y0070434D01*
X0339656Y0070397D02*
X0338671Y0070397D01*
X0338671Y0070359D02*
X0339656Y0070359D01*
X0339656Y0070321D02*
X0338671Y0070321D01*
X0338671Y0070283D02*
X0339656Y0070283D01*
X0339656Y0070245D02*
X0338671Y0070245D01*
X0338671Y0070207D02*
X0339656Y0070207D01*
X0339656Y0070169D02*
X0338671Y0070169D01*
X0338671Y0070131D02*
X0339656Y0070131D01*
X0339656Y0070094D02*
X0338671Y0070094D01*
X0338671Y0070056D02*
X0339656Y0070056D01*
X0339656Y0070018D02*
X0338671Y0070018D01*
X0338671Y0069980D02*
X0339656Y0069980D01*
X0339656Y0069942D02*
X0338671Y0069942D01*
X0338671Y0069904D02*
X0339656Y0069904D01*
X0339656Y0069866D02*
X0338671Y0069866D01*
X0338671Y0069828D02*
X0339656Y0069828D01*
X0339656Y0069790D02*
X0338671Y0069790D01*
X0338671Y0069753D02*
X0339656Y0069753D01*
X0339656Y0069715D02*
X0338671Y0069715D01*
X0338671Y0069677D02*
X0339656Y0069677D01*
X0339656Y0069639D02*
X0338671Y0069639D01*
X0338671Y0069601D02*
X0339656Y0069601D01*
X0339656Y0069563D02*
X0338671Y0069563D01*
X0338671Y0069525D02*
X0339656Y0069525D01*
X0339656Y0069487D02*
X0338671Y0069487D01*
X0338671Y0069450D02*
X0339656Y0069450D01*
X0339656Y0069412D02*
X0338671Y0069412D01*
X0338671Y0069374D02*
X0339656Y0069374D01*
X0339656Y0069336D02*
X0338671Y0069336D01*
X0338671Y0069298D02*
X0339656Y0069298D01*
X0339655Y0069260D02*
X0338672Y0069260D01*
X0338680Y0069222D02*
X0339647Y0069222D01*
X0339638Y0069184D02*
X0338689Y0069184D01*
X0338715Y0069146D02*
X0339612Y0069146D01*
X0339573Y0069109D02*
X0338754Y0069109D01*
X0338852Y0069071D02*
X0339475Y0069071D01*
X0337687Y0069264D02*
X0337672Y0069189D01*
X0337629Y0069125D01*
X0337566Y0069082D01*
X0337490Y0069067D01*
X0336900Y0069067D01*
X0336824Y0069082D01*
X0336761Y0069125D01*
X0336718Y0069189D01*
X0336703Y0069264D01*
X0336703Y0071233D01*
X0336718Y0071308D01*
X0336761Y0071372D01*
X0336824Y0071415D01*
X0336900Y0071430D01*
X0337490Y0071430D01*
X0337566Y0071415D01*
X0337629Y0071372D01*
X0337672Y0071308D01*
X0337687Y0071233D01*
X0337687Y0069264D01*
X0337686Y0069260D02*
X0336704Y0069260D01*
X0336703Y0069298D02*
X0337687Y0069298D01*
X0337687Y0069336D02*
X0336703Y0069336D01*
X0336703Y0069374D02*
X0337687Y0069374D01*
X0337687Y0069412D02*
X0336703Y0069412D01*
X0336703Y0069450D02*
X0337687Y0069450D01*
X0337687Y0069487D02*
X0336703Y0069487D01*
X0336703Y0069525D02*
X0337687Y0069525D01*
X0337687Y0069563D02*
X0336703Y0069563D01*
X0336703Y0069601D02*
X0337687Y0069601D01*
X0337687Y0069639D02*
X0336703Y0069639D01*
X0336703Y0069677D02*
X0337687Y0069677D01*
X0337687Y0069715D02*
X0336703Y0069715D01*
X0336703Y0069753D02*
X0337687Y0069753D01*
X0337687Y0069790D02*
X0336703Y0069790D01*
X0336703Y0069828D02*
X0337687Y0069828D01*
X0337687Y0069866D02*
X0336703Y0069866D01*
X0336703Y0069904D02*
X0337687Y0069904D01*
X0337687Y0069942D02*
X0336703Y0069942D01*
X0336703Y0069980D02*
X0337687Y0069980D01*
X0337687Y0070018D02*
X0336703Y0070018D01*
X0336703Y0070056D02*
X0337687Y0070056D01*
X0337687Y0070094D02*
X0336703Y0070094D01*
X0336703Y0070131D02*
X0337687Y0070131D01*
X0337687Y0070169D02*
X0336703Y0070169D01*
X0336703Y0070207D02*
X0337687Y0070207D01*
X0337687Y0070245D02*
X0336703Y0070245D01*
X0336703Y0070283D02*
X0337687Y0070283D01*
X0337687Y0070321D02*
X0336703Y0070321D01*
X0336703Y0070359D02*
X0337687Y0070359D01*
X0337687Y0070397D02*
X0336703Y0070397D01*
X0336703Y0070434D02*
X0337687Y0070434D01*
X0337687Y0070472D02*
X0336703Y0070472D01*
X0336703Y0070510D02*
X0337687Y0070510D01*
X0337687Y0070548D02*
X0336703Y0070548D01*
X0336703Y0070586D02*
X0337687Y0070586D01*
X0337687Y0070624D02*
X0336703Y0070624D01*
X0336703Y0070662D02*
X0337687Y0070662D01*
X0337687Y0070700D02*
X0336703Y0070700D01*
X0336703Y0070737D02*
X0337687Y0070737D01*
X0337687Y0070775D02*
X0336703Y0070775D01*
X0336703Y0070813D02*
X0337687Y0070813D01*
X0337687Y0070851D02*
X0336703Y0070851D01*
X0336703Y0070889D02*
X0337687Y0070889D01*
X0337687Y0070927D02*
X0336703Y0070927D01*
X0336703Y0070965D02*
X0337687Y0070965D01*
X0337687Y0071003D02*
X0336703Y0071003D01*
X0336703Y0071041D02*
X0337687Y0071041D01*
X0337687Y0071078D02*
X0336703Y0071078D01*
X0336703Y0071116D02*
X0337687Y0071116D01*
X0337687Y0071154D02*
X0336703Y0071154D01*
X0336703Y0071192D02*
X0337687Y0071192D01*
X0337687Y0071230D02*
X0336703Y0071230D01*
X0336710Y0071268D02*
X0337680Y0071268D01*
X0337673Y0071306D02*
X0336717Y0071306D01*
X0336742Y0071344D02*
X0337648Y0071344D01*
X0337615Y0071381D02*
X0336775Y0071381D01*
X0336848Y0071419D02*
X0337542Y0071419D01*
X0335719Y0071233D02*
X0335719Y0069264D01*
X0335704Y0069189D01*
X0335661Y0069125D01*
X0335597Y0069082D01*
X0335522Y0069067D01*
X0334931Y0069067D01*
X0334856Y0069082D01*
X0334792Y0069125D01*
X0334749Y0069189D01*
X0334734Y0069264D01*
X0334734Y0071233D01*
X0334749Y0071308D01*
X0334792Y0071372D01*
X0334856Y0071415D01*
X0334931Y0071430D01*
X0335522Y0071430D01*
X0335597Y0071415D01*
X0335661Y0071372D01*
X0335704Y0071308D01*
X0335719Y0071233D01*
X0335719Y0071230D02*
X0334734Y0071230D01*
X0334734Y0071192D02*
X0335719Y0071192D01*
X0335719Y0071154D02*
X0334734Y0071154D01*
X0334734Y0071116D02*
X0335719Y0071116D01*
X0335719Y0071078D02*
X0334734Y0071078D01*
X0334734Y0071041D02*
X0335719Y0071041D01*
X0335719Y0071003D02*
X0334734Y0071003D01*
X0334734Y0070965D02*
X0335719Y0070965D01*
X0335719Y0070927D02*
X0334734Y0070927D01*
X0334734Y0070889D02*
X0335719Y0070889D01*
X0335719Y0070851D02*
X0334734Y0070851D01*
X0334734Y0070813D02*
X0335719Y0070813D01*
X0335719Y0070775D02*
X0334734Y0070775D01*
X0334734Y0070737D02*
X0335719Y0070737D01*
X0335719Y0070700D02*
X0334734Y0070700D01*
X0334734Y0070662D02*
X0335719Y0070662D01*
X0335719Y0070624D02*
X0334734Y0070624D01*
X0334734Y0070586D02*
X0335719Y0070586D01*
X0335719Y0070548D02*
X0334734Y0070548D01*
X0334734Y0070510D02*
X0335719Y0070510D01*
X0335719Y0070472D02*
X0334734Y0070472D01*
X0334734Y0070434D02*
X0335719Y0070434D01*
X0335719Y0070397D02*
X0334734Y0070397D01*
X0334734Y0070359D02*
X0335719Y0070359D01*
X0335719Y0070321D02*
X0334734Y0070321D01*
X0334734Y0070283D02*
X0335719Y0070283D01*
X0335719Y0070245D02*
X0334734Y0070245D01*
X0334734Y0070207D02*
X0335719Y0070207D01*
X0335719Y0070169D02*
X0334734Y0070169D01*
X0334734Y0070131D02*
X0335719Y0070131D01*
X0335719Y0070094D02*
X0334734Y0070094D01*
X0334734Y0070056D02*
X0335719Y0070056D01*
X0335719Y0070018D02*
X0334734Y0070018D01*
X0334734Y0069980D02*
X0335719Y0069980D01*
X0335719Y0069942D02*
X0334734Y0069942D01*
X0334734Y0069904D02*
X0335719Y0069904D01*
X0335719Y0069866D02*
X0334734Y0069866D01*
X0334734Y0069828D02*
X0335719Y0069828D01*
X0335719Y0069790D02*
X0334734Y0069790D01*
X0334734Y0069753D02*
X0335719Y0069753D01*
X0335719Y0069715D02*
X0334734Y0069715D01*
X0334734Y0069677D02*
X0335719Y0069677D01*
X0335719Y0069639D02*
X0334734Y0069639D01*
X0334734Y0069601D02*
X0335719Y0069601D01*
X0335719Y0069563D02*
X0334734Y0069563D01*
X0334734Y0069525D02*
X0335719Y0069525D01*
X0335719Y0069487D02*
X0334734Y0069487D01*
X0334734Y0069450D02*
X0335719Y0069450D01*
X0335719Y0069412D02*
X0334734Y0069412D01*
X0334734Y0069374D02*
X0335719Y0069374D01*
X0335719Y0069336D02*
X0334734Y0069336D01*
X0334734Y0069298D02*
X0335719Y0069298D01*
X0335718Y0069260D02*
X0334735Y0069260D01*
X0334743Y0069222D02*
X0335710Y0069222D01*
X0335701Y0069184D02*
X0334752Y0069184D01*
X0334778Y0069146D02*
X0335675Y0069146D01*
X0335636Y0069109D02*
X0334817Y0069109D01*
X0334915Y0069071D02*
X0335538Y0069071D01*
X0336711Y0069222D02*
X0337679Y0069222D01*
X0337669Y0069184D02*
X0336721Y0069184D01*
X0336746Y0069146D02*
X0337644Y0069146D01*
X0337605Y0069109D02*
X0336785Y0069109D01*
X0336883Y0069071D02*
X0337507Y0069071D01*
X0333750Y0069264D02*
X0333735Y0069189D01*
X0333692Y0069125D01*
X0333629Y0069082D01*
X0333553Y0069067D01*
X0332963Y0069067D01*
X0332887Y0069082D01*
X0332823Y0069125D01*
X0332781Y0069189D01*
X0332766Y0069264D01*
X0332766Y0071233D01*
X0332781Y0071308D01*
X0332823Y0071372D01*
X0332887Y0071415D01*
X0332963Y0071430D01*
X0333553Y0071430D01*
X0333629Y0071415D01*
X0333692Y0071372D01*
X0333735Y0071308D01*
X0333750Y0071233D01*
X0333750Y0069264D01*
X0333749Y0069260D02*
X0332767Y0069260D01*
X0332766Y0069298D02*
X0333750Y0069298D01*
X0333750Y0069336D02*
X0332766Y0069336D01*
X0332766Y0069374D02*
X0333750Y0069374D01*
X0333750Y0069412D02*
X0332766Y0069412D01*
X0332766Y0069450D02*
X0333750Y0069450D01*
X0333750Y0069487D02*
X0332766Y0069487D01*
X0332766Y0069525D02*
X0333750Y0069525D01*
X0333750Y0069563D02*
X0332766Y0069563D01*
X0332766Y0069601D02*
X0333750Y0069601D01*
X0333750Y0069639D02*
X0332766Y0069639D01*
X0332766Y0069677D02*
X0333750Y0069677D01*
X0333750Y0069715D02*
X0332766Y0069715D01*
X0332766Y0069753D02*
X0333750Y0069753D01*
X0333750Y0069790D02*
X0332766Y0069790D01*
X0332766Y0069828D02*
X0333750Y0069828D01*
X0333750Y0069866D02*
X0332766Y0069866D01*
X0332766Y0069904D02*
X0333750Y0069904D01*
X0333750Y0069942D02*
X0332766Y0069942D01*
X0332766Y0069980D02*
X0333750Y0069980D01*
X0333750Y0070018D02*
X0332766Y0070018D01*
X0332766Y0070056D02*
X0333750Y0070056D01*
X0333750Y0070094D02*
X0332766Y0070094D01*
X0332766Y0070131D02*
X0333750Y0070131D01*
X0333750Y0070169D02*
X0332766Y0070169D01*
X0332766Y0070207D02*
X0333750Y0070207D01*
X0333750Y0070245D02*
X0332766Y0070245D01*
X0332766Y0070283D02*
X0333750Y0070283D01*
X0333750Y0070321D02*
X0332766Y0070321D01*
X0332766Y0070359D02*
X0333750Y0070359D01*
X0333750Y0070397D02*
X0332766Y0070397D01*
X0332766Y0070434D02*
X0333750Y0070434D01*
X0333750Y0070472D02*
X0332766Y0070472D01*
X0332766Y0070510D02*
X0333750Y0070510D01*
X0333750Y0070548D02*
X0332766Y0070548D01*
X0332766Y0070586D02*
X0333750Y0070586D01*
X0333750Y0070624D02*
X0332766Y0070624D01*
X0332766Y0070662D02*
X0333750Y0070662D01*
X0333750Y0070700D02*
X0332766Y0070700D01*
X0332766Y0070737D02*
X0333750Y0070737D01*
X0333750Y0070775D02*
X0332766Y0070775D01*
X0332766Y0070813D02*
X0333750Y0070813D01*
X0333750Y0070851D02*
X0332766Y0070851D01*
X0332766Y0070889D02*
X0333750Y0070889D01*
X0333750Y0070927D02*
X0332766Y0070927D01*
X0332766Y0070965D02*
X0333750Y0070965D01*
X0333750Y0071003D02*
X0332766Y0071003D01*
X0332766Y0071041D02*
X0333750Y0071041D01*
X0333750Y0071078D02*
X0332766Y0071078D01*
X0332766Y0071116D02*
X0333750Y0071116D01*
X0333750Y0071154D02*
X0332766Y0071154D01*
X0332766Y0071192D02*
X0333750Y0071192D01*
X0333750Y0071230D02*
X0332766Y0071230D01*
X0332773Y0071268D02*
X0333743Y0071268D01*
X0333736Y0071306D02*
X0332780Y0071306D01*
X0332805Y0071344D02*
X0333711Y0071344D01*
X0333678Y0071381D02*
X0332838Y0071381D01*
X0332911Y0071419D02*
X0333605Y0071419D01*
X0334741Y0071268D02*
X0335712Y0071268D01*
X0335704Y0071306D02*
X0334749Y0071306D01*
X0334773Y0071344D02*
X0335680Y0071344D01*
X0335647Y0071381D02*
X0334806Y0071381D01*
X0334880Y0071419D02*
X0335573Y0071419D01*
X0333791Y0073357D02*
X0333727Y0073315D01*
X0333652Y0073300D01*
X0331683Y0073300D01*
X0331608Y0073315D01*
X0331544Y0073357D01*
X0331501Y0073421D01*
X0331486Y0073497D01*
X0331486Y0074087D01*
X0331501Y0074162D01*
X0331544Y0074226D01*
X0331608Y0074269D01*
X0331683Y0074284D01*
X0333652Y0074284D01*
X0333727Y0074269D01*
X0333791Y0074226D01*
X0333834Y0074162D01*
X0333849Y0074087D01*
X0333849Y0073497D01*
X0333834Y0073421D01*
X0333791Y0073357D01*
X0333782Y0073351D02*
X0331553Y0073351D01*
X0331523Y0073389D02*
X0333812Y0073389D01*
X0333835Y0073427D02*
X0331500Y0073427D01*
X0331493Y0073465D02*
X0333842Y0073465D01*
X0333849Y0073503D02*
X0331486Y0073503D01*
X0331486Y0073541D02*
X0333849Y0073541D01*
X0333849Y0073579D02*
X0331486Y0073579D01*
X0331486Y0073616D02*
X0333849Y0073616D01*
X0333849Y0073654D02*
X0331486Y0073654D01*
X0331486Y0073692D02*
X0333849Y0073692D01*
X0333849Y0073730D02*
X0331486Y0073730D01*
X0331486Y0073768D02*
X0333849Y0073768D01*
X0333849Y0073806D02*
X0331486Y0073806D01*
X0331486Y0073844D02*
X0333849Y0073844D01*
X0333849Y0073882D02*
X0331486Y0073882D01*
X0331486Y0073920D02*
X0333849Y0073920D01*
X0333849Y0073957D02*
X0331486Y0073957D01*
X0331486Y0073995D02*
X0333849Y0073995D01*
X0333849Y0074033D02*
X0331486Y0074033D01*
X0331486Y0074071D02*
X0333849Y0074071D01*
X0333844Y0074109D02*
X0331491Y0074109D01*
X0331498Y0074147D02*
X0333837Y0074147D01*
X0333819Y0074185D02*
X0331516Y0074185D01*
X0331541Y0074223D02*
X0333793Y0074223D01*
X0333740Y0074260D02*
X0331595Y0074260D01*
X0331614Y0073313D02*
X0333721Y0073313D01*
X0333652Y0075268D02*
X0331683Y0075268D01*
X0331608Y0075283D01*
X0331544Y0075326D01*
X0331501Y0075390D01*
X0331486Y0075465D01*
X0331486Y0076056D01*
X0331501Y0076131D01*
X0331544Y0076195D01*
X0331608Y0076237D01*
X0331683Y0076252D01*
X0333652Y0076252D01*
X0333727Y0076237D01*
X0333791Y0076195D01*
X0333834Y0076131D01*
X0333849Y0076056D01*
X0333849Y0075465D01*
X0333834Y0075390D01*
X0333791Y0075326D01*
X0333727Y0075283D01*
X0333652Y0075268D01*
X0333727Y0075283D02*
X0331608Y0075283D01*
X0331551Y0075321D02*
X0333784Y0075321D01*
X0333813Y0075359D02*
X0331522Y0075359D01*
X0331500Y0075397D02*
X0333835Y0075397D01*
X0333843Y0075435D02*
X0331492Y0075435D01*
X0331486Y0075473D02*
X0333849Y0075473D01*
X0333849Y0075511D02*
X0331486Y0075511D01*
X0331486Y0075548D02*
X0333849Y0075548D01*
X0333849Y0075586D02*
X0331486Y0075586D01*
X0331486Y0075624D02*
X0333849Y0075624D01*
X0333849Y0075662D02*
X0331486Y0075662D01*
X0331486Y0075700D02*
X0333849Y0075700D01*
X0333849Y0075738D02*
X0331486Y0075738D01*
X0331486Y0075776D02*
X0333849Y0075776D01*
X0333849Y0075814D02*
X0331486Y0075814D01*
X0331486Y0075851D02*
X0333849Y0075851D01*
X0333849Y0075889D02*
X0331486Y0075889D01*
X0331486Y0075927D02*
X0333849Y0075927D01*
X0333849Y0075965D02*
X0331486Y0075965D01*
X0331486Y0076003D02*
X0333849Y0076003D01*
X0333849Y0076041D02*
X0331486Y0076041D01*
X0331491Y0076079D02*
X0333844Y0076079D01*
X0333836Y0076117D02*
X0331498Y0076117D01*
X0331517Y0076155D02*
X0333818Y0076155D01*
X0333792Y0076192D02*
X0331542Y0076192D01*
X0331597Y0076230D02*
X0333738Y0076230D01*
X0333742Y0069222D02*
X0332774Y0069222D01*
X0332784Y0069184D02*
X0333732Y0069184D01*
X0333707Y0069146D02*
X0332809Y0069146D01*
X0332848Y0069109D02*
X0333668Y0069109D01*
X0333570Y0069071D02*
X0332946Y0069071D01*
D22*
X0348022Y0073398D03*
X0357864Y0073398D03*
X0367707Y0073398D03*
X0367707Y0084422D03*
X0357864Y0084422D03*
X0348022Y0084422D03*
X0288967Y0086390D03*
X0279124Y0086390D03*
X0269282Y0086390D03*
X0269282Y0075367D03*
X0279124Y0075367D03*
X0288967Y0075367D03*
D23*
X0303593Y0074973D03*
X0321585Y0074973D03*
D24*
X0035502Y0066980D02*
X0032982Y0066980D01*
X0035502Y0066980D02*
X0035502Y0063280D01*
X0032982Y0063280D01*
X0032982Y0066980D01*
X0032982Y0063909D02*
X0035502Y0063909D01*
X0035502Y0064538D02*
X0032982Y0064538D01*
X0032982Y0065167D02*
X0035502Y0065167D01*
X0035502Y0065796D02*
X0032982Y0065796D01*
X0032982Y0066425D02*
X0035502Y0066425D01*
X0038494Y0066980D02*
X0041014Y0066980D01*
X0041014Y0063280D01*
X0038494Y0063280D01*
X0038494Y0066980D01*
X0038494Y0063909D02*
X0041014Y0063909D01*
X0041014Y0064538D02*
X0038494Y0064538D01*
X0038494Y0065167D02*
X0041014Y0065167D01*
X0041014Y0065796D02*
X0038494Y0065796D01*
X0038494Y0066425D02*
X0041014Y0066425D01*
X0113691Y0090406D02*
X0116211Y0090406D01*
X0116211Y0086706D01*
X0113691Y0086706D01*
X0113691Y0090406D01*
X0113691Y0087335D02*
X0116211Y0087335D01*
X0116211Y0087964D02*
X0113691Y0087964D01*
X0113691Y0088593D02*
X0116211Y0088593D01*
X0116211Y0089222D02*
X0113691Y0089222D01*
X0113691Y0089851D02*
X0116211Y0089851D01*
X0119203Y0090406D02*
X0121723Y0090406D01*
X0121723Y0086706D01*
X0119203Y0086706D01*
X0119203Y0090406D01*
X0119203Y0087335D02*
X0121723Y0087335D01*
X0121723Y0087964D02*
X0119203Y0087964D01*
X0119203Y0088593D02*
X0121723Y0088593D01*
X0121723Y0089222D02*
X0119203Y0089222D01*
X0119203Y0089851D02*
X0121723Y0089851D01*
M02*
