G75*
%MOIN*%
%OFA0B0*%
%FSLAX25Y25*%
%IPPOS*%
%LPD*%
%AMOC8*
5,1,8,0,0,1.08239X$1,22.5*
%
%ADD10C,0.05118*%
%ADD11C,0.06362*%
%ADD12C,0.00787*%
%ADD13C,0.01969*%
D10*
X0371644Y0024776D03*
X0379518Y0024776D03*
X0387392Y0024776D03*
X0395266Y0024776D03*
X0403140Y0024776D03*
X0411014Y0024776D03*
X0418888Y0024776D03*
X0426762Y0024776D03*
X0434636Y0024776D03*
X0442510Y0024776D03*
X0450384Y0024776D03*
X0466132Y0024776D03*
X0474006Y0024776D03*
X0481880Y0024776D03*
X0489754Y0024776D03*
X0497628Y0024776D03*
X0493691Y0032650D03*
X0501565Y0032650D03*
X0485817Y0032650D03*
X0477943Y0032650D03*
X0470069Y0032650D03*
X0462195Y0032650D03*
X0446447Y0032650D03*
X0438573Y0032650D03*
X0430699Y0032650D03*
X0422825Y0032650D03*
X0414951Y0032650D03*
X0407077Y0032650D03*
X0399203Y0032650D03*
X0391329Y0032650D03*
X0383455Y0032650D03*
X0375581Y0032650D03*
X0375581Y0042493D03*
X0383455Y0042493D03*
X0391329Y0042493D03*
X0399203Y0042493D03*
X0407077Y0042493D03*
X0414951Y0042493D03*
X0422825Y0042493D03*
X0430699Y0042493D03*
X0438573Y0042493D03*
X0446447Y0042493D03*
X0462195Y0042493D03*
X0470069Y0042493D03*
X0477943Y0042493D03*
X0485817Y0042493D03*
X0493691Y0042493D03*
X0501565Y0042493D03*
X0497628Y0050367D03*
X0489754Y0050367D03*
X0481880Y0050367D03*
X0474006Y0050367D03*
X0466132Y0050367D03*
X0450384Y0050367D03*
X0442510Y0050367D03*
X0434636Y0050367D03*
X0426762Y0050367D03*
X0418888Y0050367D03*
X0411014Y0050367D03*
X0403140Y0050367D03*
X0395266Y0050367D03*
X0387392Y0050367D03*
X0379518Y0050367D03*
X0371644Y0050367D03*
D11*
X0514557Y0066548D03*
X0514557Y0076548D03*
X0514557Y0086548D03*
D12*
X0069282Y0023398D02*
X0045122Y0060195D01*
X0044786Y0060826D01*
X0044653Y0060910D01*
X0043691Y0062374D01*
X0022825Y0062374D01*
X0014557Y0070642D01*
X0014557Y0081272D01*
X0024006Y0090721D01*
X0025345Y0090721D01*
X0025345Y0090372D01*
X0025148Y0090175D01*
X0025148Y0088511D01*
X0025345Y0088314D01*
X0025345Y0086787D01*
X0030266Y0081866D01*
X0031096Y0081036D01*
X0035624Y0081036D01*
X0038337Y0078323D01*
X0039167Y0077493D01*
X0043253Y0077493D01*
X0043844Y0076902D01*
X0045226Y0076902D01*
X0045226Y0076897D01*
X0046403Y0075721D01*
X0048066Y0075721D01*
X0049242Y0076897D01*
X0049242Y0077493D01*
X0098770Y0077493D01*
X0098770Y0077488D01*
X0099255Y0076316D01*
X0100152Y0075419D01*
X0101324Y0074934D01*
X0102593Y0074934D01*
X0103765Y0075419D01*
X0104662Y0076316D01*
X0105148Y0077488D01*
X0105148Y0077493D01*
X0117471Y0077493D01*
X0117471Y0077292D01*
X0118106Y0075759D01*
X0119280Y0074585D01*
X0120814Y0073949D01*
X0122474Y0073949D01*
X0124008Y0074585D01*
X0125182Y0075759D01*
X0125817Y0077292D01*
X0125817Y0077493D01*
X0130105Y0077493D01*
X0132073Y0079461D01*
X0137592Y0079461D01*
X0138337Y0078717D01*
X0138337Y0078078D01*
X0139513Y0076902D01*
X0140151Y0076902D01*
X0140348Y0076705D01*
X0142466Y0076705D01*
X0143056Y0076115D01*
X0144720Y0076115D01*
X0145310Y0076705D01*
X0197519Y0076705D01*
X0197680Y0076316D01*
X0198578Y0075419D01*
X0199750Y0074934D01*
X0201018Y0074934D01*
X0202190Y0075419D01*
X0203087Y0076316D01*
X0203249Y0076705D01*
X0217274Y0076705D01*
X0217274Y0076666D01*
X0218389Y0073974D01*
X0220448Y0071915D01*
X0223140Y0070800D01*
X0226053Y0070800D01*
X0228745Y0071915D01*
X0230805Y0073974D01*
X0231919Y0076666D01*
X0231919Y0076705D01*
X0261207Y0076705D01*
X0265538Y0081036D01*
X0266368Y0081866D01*
X0266368Y0090721D01*
X0434749Y0090721D01*
X0434203Y0090175D01*
X0434203Y0088511D01*
X0435379Y0087335D01*
X0437042Y0087335D01*
X0438219Y0088511D01*
X0438219Y0090175D01*
X0437672Y0090721D01*
X0513579Y0090721D01*
X0513556Y0090717D01*
X0512916Y0090509D01*
X0512317Y0090204D01*
X0511772Y0089808D01*
X0511297Y0089333D01*
X0510901Y0088788D01*
X0510596Y0088189D01*
X0510388Y0087549D01*
X0510291Y0086941D01*
X0514163Y0086941D01*
X0514163Y0086154D01*
X0510291Y0086154D01*
X0510388Y0085547D01*
X0510596Y0084907D01*
X0510901Y0084307D01*
X0511297Y0083763D01*
X0511772Y0083287D01*
X0512317Y0082892D01*
X0512916Y0082586D01*
X0513556Y0082378D01*
X0514163Y0082282D01*
X0514163Y0086154D01*
X0514951Y0086154D01*
X0514951Y0086941D01*
X0518823Y0086941D01*
X0518727Y0087549D01*
X0518519Y0088189D01*
X0518213Y0088788D01*
X0517818Y0089333D01*
X0517342Y0089808D01*
X0516798Y0090204D01*
X0516198Y0090509D01*
X0515558Y0090717D01*
X0515535Y0090721D01*
X0537786Y0090721D01*
X0537786Y0061066D01*
X0527195Y0050476D01*
X0527195Y0051395D01*
X0526019Y0052571D01*
X0524355Y0052571D01*
X0523179Y0051395D01*
X0523179Y0049732D01*
X0524355Y0048556D01*
X0525275Y0048556D01*
X0512352Y0035633D01*
X0512352Y0023241D01*
X0502322Y0023241D01*
X0501723Y0022641D01*
X0501723Y0010436D01*
X0500354Y0009067D01*
X0405532Y0009067D01*
X0404163Y0010436D01*
X0404163Y0020448D01*
X0403854Y0021194D01*
X0404205Y0021264D01*
X0404870Y0021539D01*
X0405468Y0021939D01*
X0405977Y0022448D01*
X0406377Y0023046D01*
X0406652Y0023711D01*
X0406793Y0024416D01*
X0406793Y0024481D01*
X0403435Y0024481D01*
X0403435Y0025071D01*
X0406793Y0025071D01*
X0406793Y0025136D01*
X0406652Y0025842D01*
X0406377Y0026506D01*
X0405977Y0027105D01*
X0405468Y0027613D01*
X0404870Y0028013D01*
X0404205Y0028288D01*
X0403500Y0028429D01*
X0403435Y0028429D01*
X0403435Y0025071D01*
X0402845Y0025071D01*
X0402845Y0028429D01*
X0402780Y0028429D01*
X0402074Y0028288D01*
X0401410Y0028013D01*
X0400811Y0027613D01*
X0400303Y0027105D01*
X0399903Y0026506D01*
X0399627Y0025842D01*
X0399487Y0025136D01*
X0399487Y0025071D01*
X0402845Y0025071D01*
X0402845Y0024481D01*
X0399487Y0024481D01*
X0399487Y0024422D01*
X0398849Y0024422D01*
X0398849Y0025489D01*
X0398303Y0026805D01*
X0397295Y0027813D01*
X0395978Y0028359D01*
X0394553Y0028359D01*
X0393236Y0027813D01*
X0392229Y0026805D01*
X0391683Y0025489D01*
X0391683Y0024063D01*
X0392229Y0022747D01*
X0393236Y0021739D01*
X0394551Y0021194D01*
X0394242Y0020448D01*
X0394242Y0010436D01*
X0392873Y0009067D01*
X0250021Y0009067D01*
X0248809Y0010279D01*
X0248809Y0023398D01*
X0089172Y0023398D01*
X0090187Y0024413D01*
X0090187Y0026076D01*
X0089716Y0026548D01*
X0090187Y0027019D01*
X0090187Y0028683D01*
X0089011Y0029859D01*
X0087348Y0029859D01*
X0086171Y0028683D01*
X0086171Y0027019D01*
X0086643Y0026548D01*
X0086171Y0026076D01*
X0086171Y0024413D01*
X0087186Y0023398D01*
X0069282Y0023398D01*
X0069043Y0023762D02*
X0086822Y0023762D01*
X0086171Y0024548D02*
X0068527Y0024548D01*
X0068011Y0025334D02*
X0086171Y0025334D01*
X0086215Y0026120D02*
X0067495Y0026120D01*
X0066979Y0026906D02*
X0086285Y0026906D01*
X0086171Y0027692D02*
X0066463Y0027692D01*
X0065947Y0028478D02*
X0086171Y0028478D01*
X0086752Y0029263D02*
X0065431Y0029263D01*
X0064915Y0030049D02*
X0373016Y0030049D01*
X0373252Y0029813D02*
X0373851Y0029413D01*
X0374515Y0029138D01*
X0375221Y0028997D01*
X0375286Y0028997D01*
X0375286Y0032355D01*
X0375876Y0032355D01*
X0375876Y0032945D01*
X0379234Y0032945D01*
X0379234Y0033010D01*
X0379093Y0033716D01*
X0378818Y0034380D01*
X0378418Y0034979D01*
X0377909Y0035487D01*
X0377311Y0035887D01*
X0376646Y0036162D01*
X0375941Y0036303D01*
X0375876Y0036303D01*
X0375876Y0032945D01*
X0375286Y0032945D01*
X0375286Y0036303D01*
X0375221Y0036303D01*
X0374515Y0036162D01*
X0373851Y0035887D01*
X0373252Y0035487D01*
X0372744Y0034979D01*
X0372344Y0034380D01*
X0372068Y0033716D01*
X0371928Y0033010D01*
X0371928Y0032945D01*
X0375285Y0032945D01*
X0375285Y0032355D01*
X0371928Y0032355D01*
X0371928Y0032290D01*
X0372068Y0031585D01*
X0372344Y0030920D01*
X0372744Y0030322D01*
X0373252Y0029813D01*
X0374212Y0029263D02*
X0089606Y0029263D01*
X0090187Y0028478D02*
X0454675Y0028478D01*
X0454675Y0029151D02*
X0454675Y0027488D01*
X0455851Y0026311D01*
X0457515Y0026311D01*
X0458691Y0027488D01*
X0458691Y0029151D01*
X0457515Y0030327D01*
X0455851Y0030327D01*
X0454675Y0029151D01*
X0454788Y0029263D02*
X0447633Y0029263D01*
X0447160Y0029067D02*
X0448476Y0029613D01*
X0449484Y0030621D01*
X0450030Y0031937D01*
X0450030Y0033363D01*
X0449484Y0034679D01*
X0448476Y0035687D01*
X0447160Y0036233D01*
X0445734Y0036233D01*
X0444418Y0035687D01*
X0443410Y0034679D01*
X0442864Y0033363D01*
X0442864Y0031937D01*
X0443410Y0030621D01*
X0444418Y0029613D01*
X0445734Y0029067D01*
X0447160Y0029067D01*
X0448055Y0027613D02*
X0447547Y0027105D01*
X0447147Y0026506D01*
X0446872Y0025842D01*
X0446731Y0025136D01*
X0446731Y0025071D01*
X0450089Y0025071D01*
X0450089Y0024481D01*
X0450679Y0024481D01*
X0450679Y0021123D01*
X0450744Y0021123D01*
X0451449Y0021264D01*
X0452114Y0021539D01*
X0452712Y0021939D01*
X0453221Y0022448D01*
X0453621Y0023046D01*
X0453896Y0023711D01*
X0454037Y0024416D01*
X0454037Y0024481D01*
X0450679Y0024481D01*
X0450679Y0025071D01*
X0454037Y0025071D01*
X0454037Y0025136D01*
X0453896Y0025842D01*
X0453621Y0026506D01*
X0453221Y0027105D01*
X0452712Y0027613D01*
X0452114Y0028013D01*
X0451449Y0028288D01*
X0450744Y0028429D01*
X0450679Y0028429D01*
X0450679Y0025071D01*
X0450089Y0025071D01*
X0450089Y0028429D01*
X0450024Y0028429D01*
X0449318Y0028288D01*
X0448654Y0028013D01*
X0448055Y0027613D01*
X0448173Y0027692D02*
X0444661Y0027692D01*
X0444539Y0027813D02*
X0443223Y0028359D01*
X0441797Y0028359D01*
X0440481Y0027813D01*
X0439473Y0026805D01*
X0438927Y0025489D01*
X0438927Y0024063D01*
X0439187Y0023437D01*
X0439119Y0023437D01*
X0437943Y0022261D01*
X0437943Y0020598D01*
X0439119Y0019422D01*
X0440783Y0019422D01*
X0441959Y0020598D01*
X0441959Y0021193D01*
X0443223Y0021193D01*
X0444539Y0021739D01*
X0445547Y0022747D01*
X0446093Y0024063D01*
X0446093Y0025489D01*
X0445547Y0026805D01*
X0444539Y0027813D01*
X0445447Y0026906D02*
X0447414Y0026906D01*
X0446987Y0026120D02*
X0445831Y0026120D01*
X0446093Y0025334D02*
X0446771Y0025334D01*
X0446731Y0024481D02*
X0446731Y0024416D01*
X0446872Y0023711D01*
X0447147Y0023046D01*
X0447547Y0022448D01*
X0448055Y0021939D01*
X0448654Y0021539D01*
X0449318Y0021264D01*
X0450024Y0021123D01*
X0450089Y0021123D01*
X0450089Y0024481D01*
X0446731Y0024481D01*
X0446093Y0024548D02*
X0450089Y0024548D01*
X0450679Y0024548D02*
X0462549Y0024548D01*
X0462549Y0024063D02*
X0463095Y0022747D01*
X0464103Y0021739D01*
X0465419Y0021193D01*
X0466845Y0021193D01*
X0468161Y0021739D01*
X0469169Y0022747D01*
X0469715Y0024063D01*
X0469715Y0025489D01*
X0469169Y0026805D01*
X0468161Y0027813D01*
X0466845Y0028359D01*
X0465419Y0028359D01*
X0464103Y0027813D01*
X0463095Y0026805D01*
X0462549Y0025489D01*
X0462549Y0024063D01*
X0462674Y0023762D02*
X0453907Y0023762D01*
X0453574Y0022976D02*
X0463000Y0022976D01*
X0463651Y0022190D02*
X0452964Y0022190D01*
X0451789Y0021404D02*
X0464910Y0021404D01*
X0467354Y0021404D02*
X0472784Y0021404D01*
X0473293Y0021193D02*
X0474719Y0021193D01*
X0476035Y0021739D01*
X0477043Y0022747D01*
X0477589Y0024063D01*
X0477589Y0025489D01*
X0477043Y0026805D01*
X0476035Y0027813D01*
X0474719Y0028359D01*
X0473293Y0028359D01*
X0471977Y0027813D01*
X0470969Y0026805D01*
X0470423Y0025489D01*
X0470423Y0024063D01*
X0470969Y0022747D01*
X0471977Y0021739D01*
X0473293Y0021193D01*
X0475228Y0021404D02*
X0478621Y0021404D01*
X0479080Y0021863D02*
X0477904Y0020686D01*
X0477904Y0019023D01*
X0479080Y0017847D01*
X0480743Y0017847D01*
X0481880Y0018984D01*
X0483017Y0017847D01*
X0484680Y0017847D01*
X0485817Y0018984D01*
X0486954Y0017847D01*
X0488617Y0017847D01*
X0489754Y0018984D01*
X0490891Y0017847D01*
X0492554Y0017847D01*
X0493691Y0018984D01*
X0494828Y0017847D01*
X0496491Y0017847D01*
X0497667Y0019023D01*
X0497667Y0020686D01*
X0497160Y0021193D01*
X0498341Y0021193D01*
X0499657Y0021739D01*
X0500665Y0022747D01*
X0501211Y0024063D01*
X0501211Y0025489D01*
X0500665Y0026805D01*
X0499657Y0027813D01*
X0498341Y0028359D01*
X0496915Y0028359D01*
X0495599Y0027813D01*
X0494591Y0026805D01*
X0494045Y0025489D01*
X0494045Y0024063D01*
X0494591Y0022747D01*
X0495475Y0021863D01*
X0494828Y0021863D01*
X0493691Y0020726D01*
X0492554Y0021863D01*
X0491969Y0021863D01*
X0492083Y0021939D01*
X0492591Y0022448D01*
X0492991Y0023046D01*
X0493266Y0023711D01*
X0493407Y0024416D01*
X0493407Y0024481D01*
X0490049Y0024481D01*
X0490049Y0021123D01*
X0490114Y0021123D01*
X0490161Y0021133D01*
X0489754Y0020726D01*
X0489347Y0021133D01*
X0489394Y0021123D01*
X0489459Y0021123D01*
X0489459Y0024481D01*
X0486101Y0024481D01*
X0486101Y0024416D01*
X0486242Y0023711D01*
X0486517Y0023046D01*
X0486917Y0022448D01*
X0487426Y0021939D01*
X0487539Y0021863D01*
X0486954Y0021863D01*
X0485817Y0020726D01*
X0484680Y0021863D01*
X0484033Y0021863D01*
X0484917Y0022747D01*
X0485463Y0024063D01*
X0485463Y0025489D01*
X0484917Y0026805D01*
X0483909Y0027813D01*
X0482593Y0028359D01*
X0481526Y0028359D01*
X0481526Y0029348D01*
X0480617Y0030257D01*
X0480980Y0030621D01*
X0481526Y0031937D01*
X0481526Y0033363D01*
X0480980Y0034679D01*
X0479972Y0035687D01*
X0478656Y0036233D01*
X0477982Y0036233D01*
X0477982Y0037222D01*
X0477239Y0037965D01*
X0477392Y0038118D01*
X0477392Y0038878D01*
X0477583Y0038840D01*
X0477648Y0038840D01*
X0477648Y0042197D01*
X0478238Y0042197D01*
X0478238Y0038840D01*
X0478303Y0038840D01*
X0479008Y0038980D01*
X0479673Y0039256D01*
X0480272Y0039655D01*
X0480780Y0040164D01*
X0481180Y0040762D01*
X0481455Y0041427D01*
X0481596Y0042133D01*
X0481596Y0042197D01*
X0478238Y0042197D01*
X0478238Y0042788D01*
X0477648Y0042788D01*
X0477648Y0046145D01*
X0477583Y0046145D01*
X0476878Y0046005D01*
X0476213Y0045730D01*
X0475615Y0045330D01*
X0475106Y0044821D01*
X0474706Y0044223D01*
X0474431Y0043558D01*
X0474290Y0042852D01*
X0474290Y0042788D01*
X0477648Y0042788D01*
X0477648Y0042197D01*
X0474290Y0042197D01*
X0474290Y0042133D01*
X0474431Y0041427D01*
X0474625Y0040957D01*
X0474552Y0040957D01*
X0473376Y0039781D01*
X0473376Y0038118D01*
X0474119Y0037374D01*
X0473967Y0037222D01*
X0473967Y0035559D01*
X0474888Y0034637D01*
X0474360Y0033363D01*
X0474360Y0031937D01*
X0474906Y0030621D01*
X0475914Y0029613D01*
X0477230Y0029067D01*
X0477510Y0029067D01*
X0477510Y0027685D01*
X0478686Y0026508D01*
X0478720Y0026508D01*
X0478297Y0025489D01*
X0478297Y0024063D01*
X0478843Y0022747D01*
X0479727Y0021863D01*
X0479080Y0021863D01*
X0479399Y0022190D02*
X0476487Y0022190D01*
X0477138Y0022976D02*
X0478748Y0022976D01*
X0478422Y0023762D02*
X0477464Y0023762D01*
X0477589Y0024548D02*
X0478297Y0024548D01*
X0478297Y0025334D02*
X0477589Y0025334D01*
X0477327Y0026120D02*
X0478559Y0026120D01*
X0478289Y0026906D02*
X0476943Y0026906D01*
X0477510Y0027692D02*
X0476157Y0027692D01*
X0477510Y0028478D02*
X0458691Y0028478D01*
X0458691Y0027692D02*
X0463981Y0027692D01*
X0463195Y0026906D02*
X0458109Y0026906D01*
X0455257Y0026906D02*
X0453354Y0026906D01*
X0453781Y0026120D02*
X0462811Y0026120D01*
X0462549Y0025334D02*
X0453997Y0025334D01*
X0450679Y0025334D02*
X0450089Y0025334D01*
X0450089Y0026120D02*
X0450679Y0026120D01*
X0450679Y0026906D02*
X0450089Y0026906D01*
X0450089Y0027692D02*
X0450679Y0027692D01*
X0452595Y0027692D02*
X0454675Y0027692D01*
X0455574Y0030049D02*
X0448913Y0030049D01*
X0449573Y0030835D02*
X0459069Y0030835D01*
X0459158Y0030621D02*
X0460166Y0029613D01*
X0461482Y0029067D01*
X0462908Y0029067D01*
X0464224Y0029613D01*
X0465232Y0030621D01*
X0465778Y0031937D01*
X0465778Y0033363D01*
X0465232Y0034679D01*
X0464224Y0035687D01*
X0462908Y0036233D01*
X0461482Y0036233D01*
X0461213Y0036121D01*
X0461349Y0036448D01*
X0461349Y0038695D01*
X0461213Y0039021D01*
X0461482Y0038910D01*
X0462908Y0038910D01*
X0464224Y0039455D01*
X0465232Y0040463D01*
X0465778Y0041780D01*
X0465778Y0043205D01*
X0465232Y0044522D01*
X0464224Y0045530D01*
X0462908Y0046075D01*
X0461482Y0046075D01*
X0460166Y0045530D01*
X0459507Y0044871D01*
X0458893Y0045485D01*
X0457229Y0045485D01*
X0456053Y0044309D01*
X0456053Y0043221D01*
X0454575Y0043221D01*
X0452499Y0042361D01*
X0450909Y0040772D01*
X0450049Y0038695D01*
X0450049Y0036448D01*
X0450909Y0034371D01*
X0452499Y0032782D01*
X0454575Y0031922D01*
X0456823Y0031922D01*
X0458612Y0032663D01*
X0458612Y0031937D01*
X0459158Y0030621D01*
X0459729Y0030049D02*
X0457793Y0030049D01*
X0458579Y0029263D02*
X0461009Y0029263D01*
X0463381Y0029263D02*
X0468883Y0029263D01*
X0469356Y0029067D02*
X0470782Y0029067D01*
X0472098Y0029613D01*
X0473106Y0030621D01*
X0473652Y0031937D01*
X0473652Y0033363D01*
X0473106Y0034679D01*
X0472098Y0035687D01*
X0470782Y0036233D01*
X0469356Y0036233D01*
X0468040Y0035687D01*
X0467032Y0034679D01*
X0466486Y0033363D01*
X0466486Y0031937D01*
X0467032Y0030621D01*
X0468040Y0029613D01*
X0469356Y0029067D01*
X0468283Y0027692D02*
X0471855Y0027692D01*
X0471069Y0026906D02*
X0469069Y0026906D01*
X0469453Y0026120D02*
X0470685Y0026120D01*
X0470423Y0025334D02*
X0469715Y0025334D01*
X0469715Y0024548D02*
X0470423Y0024548D01*
X0470548Y0023762D02*
X0469590Y0023762D01*
X0469264Y0022976D02*
X0470874Y0022976D01*
X0471525Y0022190D02*
X0468613Y0022190D01*
X0477904Y0020618D02*
X0441959Y0020618D01*
X0441193Y0019832D02*
X0477904Y0019832D01*
X0477904Y0019047D02*
X0404163Y0019047D01*
X0404163Y0019832D02*
X0438708Y0019832D01*
X0437943Y0020618D02*
X0404093Y0020618D01*
X0404545Y0021404D02*
X0409792Y0021404D01*
X0410301Y0021193D02*
X0411727Y0021193D01*
X0413043Y0021739D01*
X0414051Y0022747D01*
X0414597Y0024063D01*
X0414597Y0025489D01*
X0414051Y0026805D01*
X0413043Y0027813D01*
X0411727Y0028359D01*
X0410301Y0028359D01*
X0408984Y0027813D01*
X0407977Y0026805D01*
X0407431Y0025489D01*
X0407431Y0024063D01*
X0407977Y0022747D01*
X0408984Y0021739D01*
X0410301Y0021193D01*
X0412236Y0021404D02*
X0417483Y0021404D01*
X0417158Y0021539D02*
X0417822Y0021264D01*
X0418528Y0021123D01*
X0418593Y0021123D01*
X0418593Y0024481D01*
X0419183Y0024481D01*
X0419183Y0025071D01*
X0422541Y0025071D01*
X0422541Y0025136D01*
X0422400Y0025842D01*
X0422125Y0026506D01*
X0421725Y0027105D01*
X0421216Y0027613D01*
X0420618Y0028013D01*
X0419953Y0028288D01*
X0419248Y0028429D01*
X0419183Y0028429D01*
X0419183Y0025071D01*
X0418593Y0025071D01*
X0418593Y0024481D01*
X0415235Y0024481D01*
X0415235Y0024416D01*
X0415376Y0023711D01*
X0415651Y0023046D01*
X0416051Y0022448D01*
X0416559Y0021939D01*
X0417158Y0021539D01*
X0416308Y0022190D02*
X0413495Y0022190D01*
X0414146Y0022976D02*
X0415697Y0022976D01*
X0415365Y0023762D02*
X0414472Y0023762D01*
X0414597Y0024548D02*
X0418593Y0024548D01*
X0418593Y0025071D02*
X0415235Y0025071D01*
X0415235Y0025136D01*
X0415376Y0025842D01*
X0415651Y0026506D01*
X0416051Y0027105D01*
X0416559Y0027613D01*
X0417158Y0028013D01*
X0417822Y0028288D01*
X0418528Y0028429D01*
X0418593Y0028429D01*
X0418593Y0025071D01*
X0418593Y0025334D02*
X0419183Y0025334D01*
X0419183Y0026120D02*
X0418593Y0026120D01*
X0418593Y0026906D02*
X0419183Y0026906D01*
X0419183Y0027692D02*
X0418593Y0027692D01*
X0416677Y0027692D02*
X0413165Y0027692D01*
X0413951Y0026906D02*
X0415918Y0026906D01*
X0415491Y0026120D02*
X0414335Y0026120D01*
X0414597Y0025334D02*
X0415275Y0025334D01*
X0418593Y0023762D02*
X0419183Y0023762D01*
X0419183Y0024481D02*
X0419183Y0021123D01*
X0419248Y0021123D01*
X0419953Y0021264D01*
X0420618Y0021539D01*
X0421216Y0021939D01*
X0421725Y0022448D01*
X0422125Y0023046D01*
X0422400Y0023711D01*
X0422541Y0024416D01*
X0422541Y0024481D01*
X0419183Y0024481D01*
X0419183Y0024548D02*
X0426467Y0024548D01*
X0426467Y0024481D02*
X0423109Y0024481D01*
X0423109Y0024416D01*
X0423250Y0023711D01*
X0423525Y0023046D01*
X0423925Y0022448D01*
X0424433Y0021939D01*
X0425032Y0021539D01*
X0425696Y0021264D01*
X0426402Y0021123D01*
X0426467Y0021123D01*
X0426467Y0024481D01*
X0427057Y0024481D01*
X0427057Y0025071D01*
X0430415Y0025071D01*
X0430415Y0025136D01*
X0430274Y0025842D01*
X0429999Y0026506D01*
X0429599Y0027105D01*
X0429090Y0027613D01*
X0428492Y0028013D01*
X0427827Y0028288D01*
X0427122Y0028429D01*
X0427057Y0028429D01*
X0427057Y0025071D01*
X0426467Y0025071D01*
X0426467Y0024481D01*
X0427057Y0024481D02*
X0427057Y0021123D01*
X0427122Y0021123D01*
X0427827Y0021264D01*
X0428492Y0021539D01*
X0429090Y0021939D01*
X0429599Y0022448D01*
X0429999Y0023046D01*
X0430274Y0023711D01*
X0430415Y0024416D01*
X0430415Y0024481D01*
X0427057Y0024481D01*
X0427057Y0024548D02*
X0431053Y0024548D01*
X0431053Y0024063D02*
X0431599Y0022747D01*
X0432606Y0021739D01*
X0433923Y0021193D01*
X0435349Y0021193D01*
X0436665Y0021739D01*
X0437673Y0022747D01*
X0438219Y0024063D01*
X0438219Y0025489D01*
X0437673Y0026805D01*
X0436665Y0027813D01*
X0435349Y0028359D01*
X0433923Y0028359D01*
X0432606Y0027813D01*
X0431599Y0026805D01*
X0431053Y0025489D01*
X0431053Y0024063D01*
X0431178Y0023762D02*
X0430284Y0023762D01*
X0429952Y0022976D02*
X0431504Y0022976D01*
X0432155Y0022190D02*
X0429342Y0022190D01*
X0428167Y0021404D02*
X0433414Y0021404D01*
X0435858Y0021404D02*
X0437943Y0021404D01*
X0437943Y0022190D02*
X0437117Y0022190D01*
X0437768Y0022976D02*
X0438658Y0022976D01*
X0439052Y0023762D02*
X0438094Y0023762D01*
X0438219Y0024548D02*
X0438927Y0024548D01*
X0438927Y0025334D02*
X0438219Y0025334D01*
X0437957Y0026120D02*
X0439189Y0026120D01*
X0439573Y0026906D02*
X0437573Y0026906D01*
X0436787Y0027692D02*
X0440359Y0027692D01*
X0439638Y0029138D02*
X0440303Y0029413D01*
X0440901Y0029813D01*
X0441410Y0030322D01*
X0441810Y0030920D01*
X0442085Y0031585D01*
X0442226Y0032290D01*
X0442226Y0032355D01*
X0438868Y0032355D01*
X0438868Y0028997D01*
X0438933Y0028997D01*
X0439638Y0029138D01*
X0439942Y0029263D02*
X0445261Y0029263D01*
X0443981Y0030049D02*
X0441138Y0030049D01*
X0441753Y0030835D02*
X0443321Y0030835D01*
X0442995Y0031621D02*
X0442093Y0031621D01*
X0442864Y0032407D02*
X0438868Y0032407D01*
X0438868Y0032355D02*
X0438868Y0032945D01*
X0442226Y0032945D01*
X0442226Y0033010D01*
X0442085Y0033716D01*
X0441810Y0034380D01*
X0441410Y0034979D01*
X0440901Y0035487D01*
X0440303Y0035887D01*
X0439638Y0036162D01*
X0438933Y0036303D01*
X0438868Y0036303D01*
X0438868Y0032945D01*
X0438278Y0032945D01*
X0438278Y0032355D01*
X0438868Y0032355D01*
X0438278Y0032355D02*
X0438278Y0028997D01*
X0438213Y0028997D01*
X0437507Y0029138D01*
X0436843Y0029413D01*
X0436244Y0029813D01*
X0435736Y0030322D01*
X0435336Y0030920D01*
X0435061Y0031585D01*
X0434920Y0032290D01*
X0434920Y0032355D01*
X0438278Y0032355D01*
X0438278Y0032407D02*
X0434282Y0032407D01*
X0434282Y0031937D02*
X0434282Y0033363D01*
X0433736Y0034679D01*
X0432728Y0035687D01*
X0431412Y0036233D01*
X0429986Y0036233D01*
X0428669Y0035687D01*
X0427662Y0034679D01*
X0427116Y0033363D01*
X0427116Y0031937D01*
X0427662Y0030621D01*
X0428669Y0029613D01*
X0429986Y0029067D01*
X0431412Y0029067D01*
X0432728Y0029613D01*
X0433736Y0030621D01*
X0434282Y0031937D01*
X0434151Y0031621D02*
X0435053Y0031621D01*
X0435392Y0030835D02*
X0433825Y0030835D01*
X0433165Y0030049D02*
X0436008Y0030049D01*
X0437204Y0029263D02*
X0431885Y0029263D01*
X0432485Y0027692D02*
X0428973Y0027692D01*
X0429732Y0026906D02*
X0431699Y0026906D01*
X0431315Y0026120D02*
X0430159Y0026120D01*
X0430375Y0025334D02*
X0431053Y0025334D01*
X0427057Y0025334D02*
X0426467Y0025334D01*
X0426467Y0025071D02*
X0426467Y0028429D01*
X0426402Y0028429D01*
X0425696Y0028288D01*
X0425032Y0028013D01*
X0424433Y0027613D01*
X0423925Y0027105D01*
X0423525Y0026506D01*
X0423250Y0025842D01*
X0423109Y0025136D01*
X0423109Y0025071D01*
X0426467Y0025071D01*
X0426467Y0026120D02*
X0427057Y0026120D01*
X0427057Y0026906D02*
X0426467Y0026906D01*
X0426467Y0027692D02*
X0427057Y0027692D01*
X0424551Y0027692D02*
X0421099Y0027692D01*
X0421858Y0026906D02*
X0423792Y0026906D01*
X0423365Y0026120D02*
X0422285Y0026120D01*
X0422501Y0025334D02*
X0423149Y0025334D01*
X0423239Y0023762D02*
X0422410Y0023762D01*
X0422078Y0022976D02*
X0423571Y0022976D01*
X0424182Y0022190D02*
X0421468Y0022190D01*
X0420293Y0021404D02*
X0425357Y0021404D01*
X0426467Y0021404D02*
X0427057Y0021404D01*
X0427057Y0022190D02*
X0426467Y0022190D01*
X0426467Y0022976D02*
X0427057Y0022976D01*
X0427057Y0023762D02*
X0426467Y0023762D01*
X0419183Y0022976D02*
X0418593Y0022976D01*
X0418593Y0022190D02*
X0419183Y0022190D01*
X0419183Y0021404D02*
X0418593Y0021404D01*
X0408533Y0022190D02*
X0405720Y0022190D01*
X0406330Y0022976D02*
X0407882Y0022976D01*
X0407556Y0023762D02*
X0406662Y0023762D01*
X0407431Y0024548D02*
X0403435Y0024548D01*
X0402845Y0024548D02*
X0398849Y0024548D01*
X0398849Y0025334D02*
X0399527Y0025334D01*
X0399743Y0026120D02*
X0398587Y0026120D01*
X0398203Y0026906D02*
X0400170Y0026906D01*
X0400929Y0027692D02*
X0397417Y0027692D01*
X0398017Y0029263D02*
X0392698Y0029263D01*
X0392394Y0029138D02*
X0393059Y0029413D01*
X0393657Y0029813D01*
X0394166Y0030322D01*
X0394566Y0030920D01*
X0394841Y0031585D01*
X0394982Y0032290D01*
X0394982Y0032355D01*
X0391624Y0032355D01*
X0391624Y0032945D01*
X0394982Y0032945D01*
X0394982Y0033010D01*
X0394841Y0033716D01*
X0394566Y0034380D01*
X0394166Y0034979D01*
X0393657Y0035487D01*
X0393059Y0035887D01*
X0392394Y0036162D01*
X0391689Y0036303D01*
X0391624Y0036303D01*
X0391624Y0032945D01*
X0391034Y0032945D01*
X0391034Y0036303D01*
X0390969Y0036303D01*
X0390263Y0036162D01*
X0389599Y0035887D01*
X0389000Y0035487D01*
X0388492Y0034979D01*
X0388092Y0034380D01*
X0387816Y0033716D01*
X0387676Y0033010D01*
X0387676Y0032945D01*
X0391033Y0032945D01*
X0391033Y0032355D01*
X0387676Y0032355D01*
X0387676Y0032290D01*
X0387816Y0031585D01*
X0388092Y0030920D01*
X0388492Y0030322D01*
X0389000Y0029813D01*
X0389599Y0029413D01*
X0390263Y0029138D01*
X0390969Y0028997D01*
X0391034Y0028997D01*
X0391034Y0032355D01*
X0391624Y0032355D01*
X0391624Y0028997D01*
X0391689Y0028997D01*
X0392394Y0029138D01*
X0391624Y0029263D02*
X0391034Y0029263D01*
X0391034Y0030049D02*
X0391624Y0030049D01*
X0391624Y0030835D02*
X0391034Y0030835D01*
X0391034Y0031621D02*
X0391624Y0031621D01*
X0391624Y0032407D02*
X0395620Y0032407D01*
X0395620Y0031937D02*
X0395620Y0033363D01*
X0396166Y0034679D01*
X0397173Y0035687D01*
X0398490Y0036233D01*
X0399915Y0036233D01*
X0401232Y0035687D01*
X0402240Y0034679D01*
X0402786Y0033363D01*
X0402786Y0031937D01*
X0402240Y0030621D01*
X0401232Y0029613D01*
X0399915Y0029067D01*
X0398490Y0029067D01*
X0397173Y0029613D01*
X0396166Y0030621D01*
X0395620Y0031937D01*
X0395751Y0031621D02*
X0394848Y0031621D01*
X0394509Y0030835D02*
X0396077Y0030835D01*
X0396737Y0030049D02*
X0393894Y0030049D01*
X0393115Y0027692D02*
X0389603Y0027692D01*
X0389720Y0027613D02*
X0389122Y0028013D01*
X0388457Y0028288D01*
X0387752Y0028429D01*
X0387687Y0028429D01*
X0387687Y0025071D01*
X0391045Y0025071D01*
X0391045Y0025136D01*
X0390904Y0025842D01*
X0390629Y0026506D01*
X0390229Y0027105D01*
X0389720Y0027613D01*
X0390362Y0026906D02*
X0392329Y0026906D01*
X0391945Y0026120D02*
X0390789Y0026120D01*
X0391005Y0025334D02*
X0391683Y0025334D01*
X0391683Y0024548D02*
X0387687Y0024548D01*
X0387687Y0024481D02*
X0387687Y0025071D01*
X0387097Y0025071D01*
X0387096Y0025071D02*
X0387096Y0024481D01*
X0383739Y0024481D01*
X0383739Y0024416D01*
X0383879Y0023711D01*
X0384155Y0023046D01*
X0384555Y0022448D01*
X0385063Y0021939D01*
X0385662Y0021539D01*
X0386326Y0021264D01*
X0387032Y0021123D01*
X0387097Y0021123D01*
X0387097Y0024481D01*
X0387687Y0024481D01*
X0391045Y0024481D01*
X0391045Y0024416D01*
X0390904Y0023711D01*
X0390629Y0023046D01*
X0390229Y0022448D01*
X0389720Y0021939D01*
X0389122Y0021539D01*
X0388457Y0021264D01*
X0387752Y0021123D01*
X0387687Y0021123D01*
X0387687Y0024481D01*
X0387096Y0024548D02*
X0383100Y0024548D01*
X0383100Y0024063D02*
X0382555Y0022747D01*
X0381547Y0021739D01*
X0380230Y0021193D01*
X0378805Y0021193D01*
X0377488Y0021739D01*
X0376481Y0022747D01*
X0375935Y0024063D01*
X0375935Y0025489D01*
X0376481Y0026805D01*
X0377488Y0027813D01*
X0378805Y0028359D01*
X0380230Y0028359D01*
X0381547Y0027813D01*
X0382555Y0026805D01*
X0383100Y0025489D01*
X0383100Y0024063D01*
X0382976Y0023762D02*
X0383869Y0023762D01*
X0384201Y0022976D02*
X0382650Y0022976D01*
X0381999Y0022190D02*
X0384812Y0022190D01*
X0385987Y0021404D02*
X0380740Y0021404D01*
X0378296Y0021404D02*
X0372866Y0021404D01*
X0372356Y0021193D02*
X0373673Y0021739D01*
X0374681Y0022747D01*
X0375226Y0024063D01*
X0375226Y0025489D01*
X0374681Y0026805D01*
X0373673Y0027813D01*
X0372356Y0028359D01*
X0370931Y0028359D01*
X0369614Y0027813D01*
X0368607Y0026805D01*
X0368061Y0025489D01*
X0368061Y0024063D01*
X0368607Y0022747D01*
X0369614Y0021739D01*
X0370931Y0021193D01*
X0372356Y0021193D01*
X0370422Y0021404D02*
X0248809Y0021404D01*
X0248809Y0020618D02*
X0394313Y0020618D01*
X0394242Y0019832D02*
X0248809Y0019832D01*
X0248809Y0019047D02*
X0394242Y0019047D01*
X0394242Y0018261D02*
X0248809Y0018261D01*
X0248809Y0017475D02*
X0394242Y0017475D01*
X0394242Y0016689D02*
X0248809Y0016689D01*
X0248809Y0015903D02*
X0394242Y0015903D01*
X0394242Y0015117D02*
X0248809Y0015117D01*
X0248809Y0014331D02*
X0394242Y0014331D01*
X0394242Y0013545D02*
X0248809Y0013545D01*
X0248809Y0012759D02*
X0394242Y0012759D01*
X0394242Y0011973D02*
X0248809Y0011973D01*
X0248809Y0011187D02*
X0394242Y0011187D01*
X0394207Y0010402D02*
X0248809Y0010402D01*
X0249472Y0009616D02*
X0393422Y0009616D01*
X0404198Y0010402D02*
X0501688Y0010402D01*
X0501723Y0011187D02*
X0404163Y0011187D01*
X0404163Y0011973D02*
X0501723Y0011973D01*
X0501723Y0012759D02*
X0404163Y0012759D01*
X0404163Y0013545D02*
X0501723Y0013545D01*
X0501723Y0014331D02*
X0404163Y0014331D01*
X0404163Y0015117D02*
X0501723Y0015117D01*
X0501723Y0015903D02*
X0404163Y0015903D01*
X0404163Y0016689D02*
X0501723Y0016689D01*
X0501723Y0017475D02*
X0404163Y0017475D01*
X0404163Y0018261D02*
X0478666Y0018261D01*
X0481157Y0018261D02*
X0482603Y0018261D01*
X0485094Y0018261D02*
X0486540Y0018261D01*
X0489031Y0018261D02*
X0490477Y0018261D01*
X0492968Y0018261D02*
X0494414Y0018261D01*
X0496905Y0018261D02*
X0501723Y0018261D01*
X0501723Y0019047D02*
X0497667Y0019047D01*
X0497667Y0019832D02*
X0501723Y0019832D01*
X0501723Y0020618D02*
X0497667Y0020618D01*
X0498850Y0021404D02*
X0501723Y0021404D01*
X0501723Y0022190D02*
X0500109Y0022190D01*
X0500760Y0022976D02*
X0502058Y0022976D01*
X0501086Y0023762D02*
X0512352Y0023762D01*
X0512352Y0024548D02*
X0501211Y0024548D01*
X0501211Y0025334D02*
X0512352Y0025334D01*
X0512352Y0026120D02*
X0500949Y0026120D01*
X0500565Y0026906D02*
X0512352Y0026906D01*
X0512352Y0027692D02*
X0499779Y0027692D01*
X0500500Y0029138D02*
X0501205Y0028997D01*
X0501270Y0028997D01*
X0501270Y0032355D01*
X0501860Y0032355D01*
X0501860Y0028997D01*
X0501925Y0028997D01*
X0502631Y0029138D01*
X0503295Y0029413D01*
X0503894Y0029813D01*
X0504402Y0030322D01*
X0504802Y0030920D01*
X0505077Y0031585D01*
X0505218Y0032290D01*
X0505218Y0032355D01*
X0501860Y0032355D01*
X0501860Y0032945D01*
X0505218Y0032945D01*
X0505218Y0033010D01*
X0505077Y0033716D01*
X0504802Y0034380D01*
X0504402Y0034979D01*
X0503894Y0035487D01*
X0503295Y0035887D01*
X0502631Y0036162D01*
X0501925Y0036303D01*
X0501860Y0036303D01*
X0501860Y0032945D01*
X0501270Y0032945D01*
X0501270Y0032355D01*
X0497912Y0032355D01*
X0497912Y0032290D01*
X0498053Y0031585D01*
X0498328Y0030920D01*
X0498728Y0030322D01*
X0499237Y0029813D01*
X0499835Y0029413D01*
X0500500Y0029138D01*
X0500196Y0029263D02*
X0494877Y0029263D01*
X0494404Y0029067D02*
X0495720Y0029613D01*
X0496728Y0030621D01*
X0497274Y0031937D01*
X0497274Y0033363D01*
X0496728Y0034679D01*
X0495720Y0035687D01*
X0494404Y0036233D01*
X0492978Y0036233D01*
X0491662Y0035687D01*
X0490654Y0034679D01*
X0490108Y0033363D01*
X0490108Y0031937D01*
X0490654Y0030621D01*
X0491662Y0029613D01*
X0492978Y0029067D01*
X0494404Y0029067D01*
X0495477Y0027692D02*
X0491965Y0027692D01*
X0492083Y0027613D02*
X0491484Y0028013D01*
X0490820Y0028288D01*
X0490114Y0028429D01*
X0490049Y0028429D01*
X0490049Y0025071D01*
X0489459Y0025071D01*
X0489459Y0024481D01*
X0490049Y0024481D01*
X0490049Y0025071D01*
X0493407Y0025071D01*
X0493407Y0025136D01*
X0493266Y0025842D01*
X0492991Y0026506D01*
X0492591Y0027105D01*
X0492083Y0027613D01*
X0492724Y0026906D02*
X0494691Y0026906D01*
X0494307Y0026120D02*
X0493151Y0026120D01*
X0493367Y0025334D02*
X0494045Y0025334D01*
X0494045Y0024548D02*
X0490049Y0024548D01*
X0489459Y0024548D02*
X0485463Y0024548D01*
X0485463Y0025334D02*
X0486141Y0025334D01*
X0486101Y0025136D02*
X0486242Y0025842D01*
X0486517Y0026506D01*
X0486917Y0027105D01*
X0487426Y0027613D01*
X0488024Y0028013D01*
X0488689Y0028288D01*
X0489394Y0028429D01*
X0489459Y0028429D01*
X0489459Y0025071D01*
X0486101Y0025071D01*
X0486101Y0025136D01*
X0486357Y0026120D02*
X0485201Y0026120D01*
X0484817Y0026906D02*
X0486784Y0026906D01*
X0487543Y0027692D02*
X0484031Y0027692D01*
X0484631Y0029263D02*
X0481526Y0029263D01*
X0481526Y0028478D02*
X0512352Y0028478D01*
X0512352Y0029263D02*
X0502934Y0029263D01*
X0501860Y0029263D02*
X0501270Y0029263D01*
X0501270Y0030049D02*
X0501860Y0030049D01*
X0501860Y0030835D02*
X0501270Y0030835D01*
X0501270Y0031621D02*
X0501860Y0031621D01*
X0501860Y0032407D02*
X0512352Y0032407D01*
X0512352Y0031621D02*
X0505085Y0031621D01*
X0504746Y0030835D02*
X0512352Y0030835D01*
X0512352Y0030049D02*
X0504130Y0030049D01*
X0499000Y0030049D02*
X0496157Y0030049D01*
X0496817Y0030835D02*
X0498385Y0030835D01*
X0498045Y0031621D02*
X0497143Y0031621D01*
X0497274Y0032407D02*
X0501270Y0032407D01*
X0501270Y0032945D02*
X0497912Y0032945D01*
X0497912Y0033010D01*
X0498053Y0033716D01*
X0498328Y0034380D01*
X0498728Y0034979D01*
X0499237Y0035487D01*
X0499835Y0035887D01*
X0500500Y0036162D01*
X0501205Y0036303D01*
X0501270Y0036303D01*
X0501270Y0032945D01*
X0501270Y0033193D02*
X0501860Y0033193D01*
X0501860Y0033979D02*
X0501270Y0033979D01*
X0501270Y0034765D02*
X0501860Y0034765D01*
X0501860Y0035551D02*
X0501270Y0035551D01*
X0499331Y0035551D02*
X0495857Y0035551D01*
X0496643Y0034765D02*
X0498585Y0034765D01*
X0498162Y0033979D02*
X0497018Y0033979D01*
X0497274Y0033193D02*
X0497949Y0033193D01*
X0503799Y0035551D02*
X0512352Y0035551D01*
X0512352Y0034765D02*
X0504545Y0034765D01*
X0504968Y0033979D02*
X0512352Y0033979D01*
X0512352Y0033193D02*
X0505181Y0033193D01*
X0513056Y0036337D02*
X0483879Y0036337D01*
X0484282Y0036740D02*
X0483105Y0035563D01*
X0481442Y0035563D01*
X0480266Y0036740D01*
X0480266Y0038403D01*
X0481442Y0039579D01*
X0483105Y0039579D01*
X0484282Y0038403D01*
X0484282Y0036740D01*
X0484282Y0037123D02*
X0513842Y0037123D01*
X0514628Y0037908D02*
X0484282Y0037908D01*
X0483990Y0038694D02*
X0515414Y0038694D01*
X0516200Y0039480D02*
X0503619Y0039480D01*
X0503594Y0039455D02*
X0504602Y0040463D01*
X0505148Y0041780D01*
X0505148Y0043205D01*
X0504602Y0044522D01*
X0503594Y0045530D01*
X0502278Y0046075D01*
X0500852Y0046075D01*
X0499536Y0045530D01*
X0498528Y0044522D01*
X0497982Y0043205D01*
X0497982Y0041780D01*
X0498528Y0040463D01*
X0499536Y0039455D01*
X0500852Y0038910D01*
X0502278Y0038910D01*
X0503594Y0039455D01*
X0504405Y0040266D02*
X0516986Y0040266D01*
X0517771Y0041052D02*
X0504846Y0041052D01*
X0505148Y0041838D02*
X0518557Y0041838D01*
X0519343Y0042624D02*
X0505148Y0042624D01*
X0505063Y0043410D02*
X0520129Y0043410D01*
X0520915Y0044196D02*
X0504737Y0044196D01*
X0504143Y0044982D02*
X0521701Y0044982D01*
X0522487Y0045768D02*
X0503020Y0045768D01*
X0503096Y0047768D02*
X0504759Y0047768D01*
X0505935Y0048944D01*
X0505935Y0050608D01*
X0504759Y0051784D01*
X0503096Y0051784D01*
X0501919Y0050608D01*
X0501919Y0048944D01*
X0503096Y0047768D01*
X0502738Y0048125D02*
X0500453Y0048125D01*
X0500665Y0048337D02*
X0501211Y0049654D01*
X0501211Y0051079D01*
X0500665Y0052396D01*
X0499657Y0053404D01*
X0498341Y0053949D01*
X0496915Y0053949D01*
X0495599Y0053404D01*
X0494591Y0052396D01*
X0494045Y0051079D01*
X0494045Y0049654D01*
X0494591Y0048337D01*
X0495599Y0047329D01*
X0496915Y0046784D01*
X0498341Y0046784D01*
X0499657Y0047329D01*
X0500665Y0048337D01*
X0500903Y0048911D02*
X0501953Y0048911D01*
X0501919Y0049697D02*
X0501211Y0049697D01*
X0501211Y0050483D02*
X0501919Y0050483D01*
X0502581Y0051269D02*
X0501132Y0051269D01*
X0500807Y0052055D02*
X0523839Y0052055D01*
X0523179Y0051269D02*
X0511573Y0051269D01*
X0511058Y0051784D02*
X0509395Y0051784D01*
X0508219Y0050608D01*
X0508219Y0048944D01*
X0509395Y0047768D01*
X0511058Y0047768D01*
X0512234Y0048944D01*
X0512234Y0050608D01*
X0511058Y0051784D01*
X0512234Y0050483D02*
X0523179Y0050483D01*
X0523214Y0049697D02*
X0512234Y0049697D01*
X0512201Y0048911D02*
X0524000Y0048911D01*
X0524845Y0048125D02*
X0511415Y0048125D01*
X0509038Y0048125D02*
X0505116Y0048125D01*
X0505902Y0048911D02*
X0508252Y0048911D01*
X0508219Y0049697D02*
X0505935Y0049697D01*
X0505935Y0050483D02*
X0508219Y0050483D01*
X0508880Y0051269D02*
X0505274Y0051269D01*
X0500221Y0052841D02*
X0529560Y0052841D01*
X0530346Y0053627D02*
X0499119Y0053627D01*
X0496137Y0053627D02*
X0491429Y0053627D01*
X0491484Y0053604D02*
X0490820Y0053879D01*
X0490114Y0054019D01*
X0490049Y0054019D01*
X0490049Y0050662D01*
X0489459Y0050662D01*
X0489459Y0054019D01*
X0489394Y0054019D01*
X0488689Y0053879D01*
X0488024Y0053604D01*
X0487426Y0053204D01*
X0486917Y0052695D01*
X0486517Y0052097D01*
X0486242Y0051432D01*
X0486101Y0050726D01*
X0486101Y0050662D01*
X0489459Y0050662D01*
X0489459Y0050071D01*
X0486101Y0050071D01*
X0486101Y0050007D01*
X0486242Y0049301D01*
X0486517Y0048636D01*
X0486917Y0048038D01*
X0487031Y0047924D01*
X0486171Y0047064D01*
X0486171Y0046075D01*
X0485104Y0046075D01*
X0483788Y0045530D01*
X0482780Y0044522D01*
X0482234Y0043205D01*
X0482234Y0041780D01*
X0482780Y0040463D01*
X0483788Y0039455D01*
X0485104Y0038910D01*
X0486530Y0038910D01*
X0487846Y0039455D01*
X0488854Y0040463D01*
X0489400Y0041780D01*
X0489400Y0043205D01*
X0488977Y0044225D01*
X0489011Y0044225D01*
X0490187Y0045401D01*
X0490187Y0046728D01*
X0490820Y0046854D01*
X0491484Y0047130D01*
X0492083Y0047529D01*
X0492591Y0048038D01*
X0492991Y0048636D01*
X0493266Y0049301D01*
X0493407Y0050007D01*
X0493407Y0050071D01*
X0490049Y0050071D01*
X0490049Y0050662D01*
X0493407Y0050662D01*
X0493407Y0050726D01*
X0493266Y0051432D01*
X0492991Y0052097D01*
X0492591Y0052695D01*
X0492083Y0053204D01*
X0491484Y0053604D01*
X0492446Y0052841D02*
X0495036Y0052841D01*
X0494450Y0052055D02*
X0493008Y0052055D01*
X0493299Y0051269D02*
X0494124Y0051269D01*
X0494045Y0050483D02*
X0490049Y0050483D01*
X0489459Y0050483D02*
X0485463Y0050483D01*
X0485463Y0051079D02*
X0485463Y0049654D01*
X0484917Y0048337D01*
X0483909Y0047329D01*
X0482593Y0046784D01*
X0481167Y0046784D01*
X0479851Y0047329D01*
X0478843Y0048337D01*
X0478297Y0049654D01*
X0478297Y0051079D01*
X0478843Y0052396D01*
X0479851Y0053404D01*
X0481167Y0053949D01*
X0482593Y0053949D01*
X0483909Y0053404D01*
X0484917Y0052396D01*
X0485463Y0051079D01*
X0485384Y0051269D02*
X0486209Y0051269D01*
X0486500Y0052055D02*
X0485059Y0052055D01*
X0484472Y0052841D02*
X0487062Y0052841D01*
X0488080Y0053627D02*
X0483371Y0053627D01*
X0480389Y0053627D02*
X0475497Y0053627D01*
X0476035Y0053404D02*
X0474719Y0053949D01*
X0473293Y0053949D01*
X0471977Y0053404D01*
X0470969Y0052396D01*
X0470423Y0051079D01*
X0470423Y0049654D01*
X0470969Y0048337D01*
X0471977Y0047329D01*
X0473293Y0046784D01*
X0474719Y0046784D01*
X0476035Y0047329D01*
X0477043Y0048337D01*
X0477589Y0049654D01*
X0477589Y0051079D01*
X0477043Y0052396D01*
X0476035Y0053404D01*
X0476598Y0052841D02*
X0479288Y0052841D01*
X0478701Y0052055D02*
X0477185Y0052055D01*
X0477510Y0051269D02*
X0478376Y0051269D01*
X0478297Y0050483D02*
X0477589Y0050483D01*
X0477589Y0049697D02*
X0478297Y0049697D01*
X0478605Y0048911D02*
X0477281Y0048911D01*
X0476831Y0048125D02*
X0479055Y0048125D01*
X0479841Y0047339D02*
X0476045Y0047339D01*
X0476304Y0045768D02*
X0471524Y0045768D01*
X0472098Y0045530D02*
X0470782Y0046075D01*
X0469356Y0046075D01*
X0468040Y0045530D01*
X0467032Y0044522D01*
X0466486Y0043205D01*
X0466486Y0041780D01*
X0467032Y0040463D01*
X0468040Y0039455D01*
X0469356Y0038910D01*
X0470782Y0038910D01*
X0472098Y0039455D01*
X0473106Y0040463D01*
X0473652Y0041780D01*
X0473652Y0043205D01*
X0473106Y0044522D01*
X0472098Y0045530D01*
X0472647Y0044982D02*
X0475266Y0044982D01*
X0474695Y0044196D02*
X0473241Y0044196D01*
X0473567Y0043410D02*
X0474401Y0043410D01*
X0473652Y0042624D02*
X0477648Y0042624D01*
X0478238Y0042624D02*
X0482234Y0042624D01*
X0481596Y0042788D02*
X0481596Y0042852D01*
X0481455Y0043558D01*
X0481180Y0044223D01*
X0480780Y0044821D01*
X0480272Y0045330D01*
X0479673Y0045730D01*
X0479008Y0046005D01*
X0478303Y0046145D01*
X0478238Y0046145D01*
X0478238Y0042788D01*
X0481596Y0042788D01*
X0481485Y0043410D02*
X0482319Y0043410D01*
X0482645Y0044196D02*
X0481191Y0044196D01*
X0480620Y0044982D02*
X0483239Y0044982D01*
X0484362Y0045768D02*
X0479582Y0045768D01*
X0478238Y0045768D02*
X0477648Y0045768D01*
X0477648Y0044982D02*
X0478238Y0044982D01*
X0478238Y0044196D02*
X0477648Y0044196D01*
X0477648Y0043410D02*
X0478238Y0043410D01*
X0478238Y0041838D02*
X0477648Y0041838D01*
X0477648Y0041052D02*
X0478238Y0041052D01*
X0478238Y0040266D02*
X0477648Y0040266D01*
X0477648Y0039480D02*
X0478238Y0039480D01*
X0477392Y0038694D02*
X0480557Y0038694D01*
X0480266Y0037908D02*
X0477296Y0037908D01*
X0477982Y0037123D02*
X0480266Y0037123D01*
X0480669Y0036337D02*
X0477982Y0036337D01*
X0480109Y0035551D02*
X0483651Y0035551D01*
X0483788Y0035687D02*
X0482780Y0034679D01*
X0482234Y0033363D01*
X0482234Y0031937D01*
X0482780Y0030621D01*
X0483788Y0029613D01*
X0485104Y0029067D01*
X0486530Y0029067D01*
X0487846Y0029613D01*
X0488854Y0030621D01*
X0489400Y0031937D01*
X0489400Y0033363D01*
X0488854Y0034679D01*
X0487846Y0035687D01*
X0486530Y0036233D01*
X0485104Y0036233D01*
X0483788Y0035687D01*
X0482865Y0034765D02*
X0480895Y0034765D01*
X0481270Y0033979D02*
X0482490Y0033979D01*
X0482234Y0033193D02*
X0481526Y0033193D01*
X0481526Y0032407D02*
X0482234Y0032407D01*
X0482365Y0031621D02*
X0481395Y0031621D01*
X0481069Y0030835D02*
X0482691Y0030835D01*
X0483351Y0030049D02*
X0480824Y0030049D01*
X0476757Y0029263D02*
X0471255Y0029263D01*
X0472535Y0030049D02*
X0475477Y0030049D01*
X0474817Y0030835D02*
X0473195Y0030835D01*
X0473521Y0031621D02*
X0474491Y0031621D01*
X0474360Y0032407D02*
X0473652Y0032407D01*
X0473652Y0033193D02*
X0474360Y0033193D01*
X0474616Y0033979D02*
X0473396Y0033979D01*
X0473021Y0034765D02*
X0474760Y0034765D01*
X0473974Y0035551D02*
X0472235Y0035551D01*
X0473967Y0036337D02*
X0461303Y0036337D01*
X0461349Y0037123D02*
X0473967Y0037123D01*
X0473585Y0037908D02*
X0461349Y0037908D01*
X0461349Y0038694D02*
X0473376Y0038694D01*
X0473376Y0039480D02*
X0472123Y0039480D01*
X0472909Y0040266D02*
X0473861Y0040266D01*
X0473350Y0041052D02*
X0474586Y0041052D01*
X0474349Y0041838D02*
X0473652Y0041838D01*
X0468015Y0039480D02*
X0464249Y0039480D01*
X0465035Y0040266D02*
X0467229Y0040266D01*
X0466788Y0041052D02*
X0465476Y0041052D01*
X0465778Y0041838D02*
X0466486Y0041838D01*
X0466486Y0042624D02*
X0465778Y0042624D01*
X0465693Y0043410D02*
X0466571Y0043410D01*
X0466897Y0044196D02*
X0465367Y0044196D01*
X0464773Y0044982D02*
X0467491Y0044982D01*
X0468614Y0045768D02*
X0463650Y0045768D01*
X0464103Y0047329D02*
X0465419Y0046784D01*
X0466845Y0046784D01*
X0468161Y0047329D01*
X0469169Y0048337D01*
X0469715Y0049654D01*
X0469715Y0051079D01*
X0469169Y0052396D01*
X0468285Y0053280D01*
X0469326Y0053280D01*
X0470502Y0054456D01*
X0470502Y0055362D01*
X0471009Y0054855D01*
X0472672Y0054855D01*
X0473849Y0056031D01*
X0473849Y0057694D01*
X0472672Y0058871D01*
X0471289Y0058871D01*
X0471289Y0058875D01*
X0470113Y0060052D01*
X0468450Y0060052D01*
X0468002Y0059604D01*
X0467554Y0060052D01*
X0465891Y0060052D01*
X0464715Y0058875D01*
X0464715Y0057212D01*
X0465891Y0056036D01*
X0466486Y0056036D01*
X0466486Y0054456D01*
X0467098Y0053844D01*
X0466845Y0053949D01*
X0465419Y0053949D01*
X0464103Y0053404D01*
X0463095Y0052396D01*
X0462549Y0051079D01*
X0462549Y0049654D01*
X0463095Y0048337D01*
X0464103Y0047329D01*
X0464092Y0047339D02*
X0452423Y0047339D01*
X0452413Y0047329D02*
X0453421Y0048337D01*
X0453967Y0049654D01*
X0453967Y0051079D01*
X0453421Y0052396D01*
X0452413Y0053404D01*
X0451097Y0053949D01*
X0449671Y0053949D01*
X0448355Y0053404D01*
X0447347Y0052396D01*
X0446801Y0051079D01*
X0446801Y0049654D01*
X0447347Y0048337D01*
X0448355Y0047329D01*
X0449671Y0046784D01*
X0451097Y0046784D01*
X0452413Y0047329D01*
X0453209Y0048125D02*
X0463307Y0048125D01*
X0462857Y0048911D02*
X0453659Y0048911D01*
X0453967Y0049697D02*
X0462549Y0049697D01*
X0462549Y0050483D02*
X0453967Y0050483D01*
X0453888Y0051269D02*
X0462628Y0051269D01*
X0462953Y0052055D02*
X0453562Y0052055D01*
X0452976Y0052841D02*
X0463540Y0052841D01*
X0464641Y0053627D02*
X0451875Y0053627D01*
X0451324Y0054067D02*
X0452987Y0054067D01*
X0454163Y0055244D01*
X0454163Y0056907D01*
X0452987Y0058083D01*
X0451324Y0058083D01*
X0450778Y0057537D01*
X0450231Y0058083D01*
X0448568Y0058083D01*
X0447392Y0056907D01*
X0447392Y0055244D01*
X0448568Y0054067D01*
X0450231Y0054067D01*
X0450778Y0054614D01*
X0451324Y0054067D01*
X0450979Y0054413D02*
X0450577Y0054413D01*
X0448893Y0053627D02*
X0444001Y0053627D01*
X0444539Y0053404D02*
X0443223Y0053949D01*
X0441797Y0053949D01*
X0440481Y0053404D01*
X0439473Y0052396D01*
X0438927Y0051079D01*
X0438927Y0049654D01*
X0439473Y0048337D01*
X0440481Y0047329D01*
X0441797Y0046784D01*
X0443223Y0046784D01*
X0444539Y0047329D01*
X0445547Y0048337D01*
X0446093Y0049654D01*
X0446093Y0051079D01*
X0445547Y0052396D01*
X0444539Y0053404D01*
X0445102Y0052841D02*
X0447791Y0052841D01*
X0447205Y0052055D02*
X0445688Y0052055D01*
X0446014Y0051269D02*
X0446880Y0051269D01*
X0446801Y0050483D02*
X0446093Y0050483D01*
X0446093Y0049697D02*
X0446801Y0049697D01*
X0447109Y0048911D02*
X0445785Y0048911D01*
X0445335Y0048125D02*
X0447559Y0048125D01*
X0448344Y0047339D02*
X0444549Y0047339D01*
X0445381Y0046005D02*
X0444717Y0045730D01*
X0444118Y0045330D01*
X0443610Y0044821D01*
X0443210Y0044223D01*
X0442935Y0043558D01*
X0442794Y0042852D01*
X0442794Y0042788D01*
X0446152Y0042788D01*
X0446152Y0046145D01*
X0446087Y0046145D01*
X0445381Y0046005D01*
X0444808Y0045768D02*
X0440028Y0045768D01*
X0440602Y0045530D02*
X0439286Y0046075D01*
X0437860Y0046075D01*
X0436544Y0045530D01*
X0435536Y0044522D01*
X0434990Y0043205D01*
X0434990Y0041780D01*
X0435536Y0040463D01*
X0436544Y0039455D01*
X0437860Y0038910D01*
X0439286Y0038910D01*
X0440602Y0039455D01*
X0441610Y0040463D01*
X0442156Y0041780D01*
X0442156Y0043205D01*
X0441610Y0044522D01*
X0440602Y0045530D01*
X0441151Y0044982D02*
X0443770Y0044982D01*
X0443199Y0044196D02*
X0441745Y0044196D01*
X0442071Y0043410D02*
X0442905Y0043410D01*
X0442156Y0042624D02*
X0446152Y0042624D01*
X0446152Y0042788D02*
X0446152Y0042197D01*
X0446742Y0042197D01*
X0446742Y0038840D01*
X0446807Y0038840D01*
X0447512Y0038980D01*
X0448177Y0039256D01*
X0448775Y0039655D01*
X0449284Y0040164D01*
X0449684Y0040762D01*
X0449959Y0041427D01*
X0450100Y0042133D01*
X0450100Y0042197D01*
X0446742Y0042197D01*
X0446742Y0042788D01*
X0446152Y0042788D01*
X0446742Y0042788D02*
X0446742Y0046145D01*
X0446807Y0046145D01*
X0447512Y0046005D01*
X0448177Y0045730D01*
X0448775Y0045330D01*
X0449284Y0044821D01*
X0449684Y0044223D01*
X0449959Y0043558D01*
X0450100Y0042852D01*
X0450100Y0042788D01*
X0446742Y0042788D01*
X0446742Y0042624D02*
X0453134Y0042624D01*
X0451976Y0041838D02*
X0450041Y0041838D01*
X0449804Y0041052D02*
X0451190Y0041052D01*
X0450700Y0040266D02*
X0449352Y0040266D01*
X0448513Y0039480D02*
X0450375Y0039480D01*
X0450049Y0038694D02*
X0370207Y0038694D01*
X0370207Y0038695D02*
X0369347Y0040772D01*
X0367757Y0042361D01*
X0365681Y0043221D01*
X0363433Y0043221D01*
X0361357Y0042361D01*
X0359768Y0040772D01*
X0358908Y0038695D01*
X0358908Y0036448D01*
X0359768Y0034371D01*
X0361357Y0032782D01*
X0363433Y0031922D01*
X0365681Y0031922D01*
X0367757Y0032782D01*
X0369347Y0034371D01*
X0370207Y0036448D01*
X0370207Y0038695D01*
X0370207Y0037908D02*
X0450049Y0037908D01*
X0450049Y0037123D02*
X0370207Y0037123D01*
X0370161Y0036337D02*
X0450095Y0036337D01*
X0450421Y0035551D02*
X0448613Y0035551D01*
X0449399Y0034765D02*
X0450746Y0034765D01*
X0451302Y0033979D02*
X0449774Y0033979D01*
X0450030Y0033193D02*
X0452088Y0033193D01*
X0453403Y0032407D02*
X0450030Y0032407D01*
X0449899Y0031621D02*
X0458743Y0031621D01*
X0458612Y0032407D02*
X0457994Y0032407D01*
X0464361Y0035551D02*
X0467903Y0035551D01*
X0467117Y0034765D02*
X0465147Y0034765D01*
X0465522Y0033979D02*
X0466742Y0033979D01*
X0466486Y0033193D02*
X0465778Y0033193D01*
X0465778Y0032407D02*
X0466486Y0032407D01*
X0466617Y0031621D02*
X0465647Y0031621D01*
X0465321Y0030835D02*
X0466943Y0030835D01*
X0467603Y0030049D02*
X0464661Y0030049D01*
X0450679Y0023762D02*
X0450089Y0023762D01*
X0450089Y0022976D02*
X0450679Y0022976D01*
X0450679Y0022190D02*
X0450089Y0022190D01*
X0450089Y0021404D02*
X0450679Y0021404D01*
X0448979Y0021404D02*
X0443732Y0021404D01*
X0444991Y0022190D02*
X0447804Y0022190D01*
X0447193Y0022976D02*
X0445642Y0022976D01*
X0445968Y0023762D02*
X0446861Y0023762D01*
X0438868Y0029263D02*
X0438278Y0029263D01*
X0438278Y0030049D02*
X0438868Y0030049D01*
X0438868Y0030835D02*
X0438278Y0030835D01*
X0438278Y0031621D02*
X0438868Y0031621D01*
X0438278Y0032945D02*
X0434920Y0032945D01*
X0434920Y0033010D01*
X0435061Y0033716D01*
X0435336Y0034380D01*
X0435736Y0034979D01*
X0436244Y0035487D01*
X0436843Y0035887D01*
X0437507Y0036162D01*
X0438213Y0036303D01*
X0438278Y0036303D01*
X0438278Y0032945D01*
X0438278Y0033193D02*
X0438868Y0033193D01*
X0438868Y0033979D02*
X0438278Y0033979D01*
X0438278Y0034765D02*
X0438868Y0034765D01*
X0438868Y0035551D02*
X0438278Y0035551D01*
X0436339Y0035551D02*
X0432865Y0035551D01*
X0433651Y0034765D02*
X0435593Y0034765D01*
X0435170Y0033979D02*
X0434026Y0033979D01*
X0434282Y0033193D02*
X0434957Y0033193D01*
X0440807Y0035551D02*
X0444281Y0035551D01*
X0443495Y0034765D02*
X0441553Y0034765D01*
X0441976Y0033979D02*
X0443120Y0033979D01*
X0442864Y0033193D02*
X0442189Y0033193D01*
X0429513Y0029263D02*
X0424011Y0029263D01*
X0423538Y0029067D02*
X0424854Y0029613D01*
X0425862Y0030621D01*
X0426408Y0031937D01*
X0426408Y0033363D01*
X0425862Y0034679D01*
X0424854Y0035687D01*
X0423538Y0036233D01*
X0422112Y0036233D01*
X0420795Y0035687D01*
X0419788Y0034679D01*
X0419242Y0033363D01*
X0419242Y0031937D01*
X0419788Y0030621D01*
X0420795Y0029613D01*
X0422112Y0029067D01*
X0423538Y0029067D01*
X0421639Y0029263D02*
X0416137Y0029263D01*
X0415664Y0029067D02*
X0416980Y0029613D01*
X0417988Y0030621D01*
X0418534Y0031937D01*
X0418534Y0033363D01*
X0417988Y0034679D01*
X0416980Y0035687D01*
X0415664Y0036233D01*
X0414238Y0036233D01*
X0412921Y0035687D01*
X0411914Y0034679D01*
X0411368Y0033363D01*
X0411368Y0031937D01*
X0411914Y0030621D01*
X0412921Y0029613D01*
X0414238Y0029067D01*
X0415664Y0029067D01*
X0413765Y0029263D02*
X0408446Y0029263D01*
X0408142Y0029138D02*
X0408807Y0029413D01*
X0409405Y0029813D01*
X0409914Y0030322D01*
X0410314Y0030920D01*
X0410589Y0031585D01*
X0410730Y0032290D01*
X0410730Y0032355D01*
X0407372Y0032355D01*
X0407372Y0032945D01*
X0410730Y0032945D01*
X0410730Y0033010D01*
X0410589Y0033716D01*
X0410314Y0034380D01*
X0409914Y0034979D01*
X0409405Y0035487D01*
X0408807Y0035887D01*
X0408142Y0036162D01*
X0407437Y0036303D01*
X0407372Y0036303D01*
X0407372Y0032945D01*
X0406782Y0032945D01*
X0406782Y0032355D01*
X0407372Y0032355D01*
X0407372Y0028997D01*
X0407437Y0028997D01*
X0408142Y0029138D01*
X0407372Y0029263D02*
X0406782Y0029263D01*
X0406782Y0028997D02*
X0406782Y0032355D01*
X0403424Y0032355D01*
X0403424Y0032290D01*
X0403564Y0031585D01*
X0403840Y0030920D01*
X0404240Y0030322D01*
X0404748Y0029813D01*
X0405347Y0029413D01*
X0406011Y0029138D01*
X0406717Y0028997D01*
X0406782Y0028997D01*
X0406782Y0030049D02*
X0407372Y0030049D01*
X0407372Y0030835D02*
X0406782Y0030835D01*
X0406782Y0031621D02*
X0407372Y0031621D01*
X0407372Y0032407D02*
X0411368Y0032407D01*
X0411368Y0033193D02*
X0410693Y0033193D01*
X0410480Y0033979D02*
X0411623Y0033979D01*
X0411999Y0034765D02*
X0410057Y0034765D01*
X0409311Y0035551D02*
X0412785Y0035551D01*
X0417117Y0035551D02*
X0420659Y0035551D01*
X0419873Y0034765D02*
X0417903Y0034765D01*
X0418278Y0033979D02*
X0419497Y0033979D01*
X0419242Y0033193D02*
X0418534Y0033193D01*
X0418534Y0032407D02*
X0419242Y0032407D01*
X0419373Y0031621D02*
X0418403Y0031621D01*
X0418077Y0030835D02*
X0419699Y0030835D01*
X0420359Y0030049D02*
X0417417Y0030049D01*
X0412485Y0030049D02*
X0409642Y0030049D01*
X0410257Y0030835D02*
X0411825Y0030835D01*
X0411499Y0031621D02*
X0410597Y0031621D01*
X0407372Y0033193D02*
X0406782Y0033193D01*
X0406782Y0032945D02*
X0406782Y0036303D01*
X0406717Y0036303D01*
X0406011Y0036162D01*
X0405347Y0035887D01*
X0404748Y0035487D01*
X0404240Y0034979D01*
X0403840Y0034380D01*
X0403564Y0033716D01*
X0403424Y0033010D01*
X0403424Y0032945D01*
X0406782Y0032945D01*
X0406782Y0032407D02*
X0402786Y0032407D01*
X0402786Y0033193D02*
X0403461Y0033193D01*
X0403674Y0033979D02*
X0402530Y0033979D01*
X0402155Y0034765D02*
X0404097Y0034765D01*
X0404843Y0035551D02*
X0401369Y0035551D01*
X0397037Y0035551D02*
X0393562Y0035551D01*
X0394309Y0034765D02*
X0396251Y0034765D01*
X0395875Y0033979D02*
X0394732Y0033979D01*
X0394945Y0033193D02*
X0395620Y0033193D01*
X0391624Y0033193D02*
X0391034Y0033193D01*
X0391034Y0033979D02*
X0391624Y0033979D01*
X0391624Y0034765D02*
X0391034Y0034765D01*
X0391034Y0035551D02*
X0391624Y0035551D01*
X0389095Y0035551D02*
X0385621Y0035551D01*
X0385484Y0035687D02*
X0386492Y0034679D01*
X0387037Y0033363D01*
X0387037Y0031937D01*
X0386492Y0030621D01*
X0385484Y0029613D01*
X0384167Y0029067D01*
X0382742Y0029067D01*
X0381425Y0029613D01*
X0380418Y0030621D01*
X0379872Y0031937D01*
X0379872Y0033363D01*
X0380418Y0034679D01*
X0381425Y0035687D01*
X0382742Y0036233D01*
X0384167Y0036233D01*
X0385484Y0035687D01*
X0386407Y0034765D02*
X0388349Y0034765D01*
X0387926Y0033979D02*
X0386782Y0033979D01*
X0387037Y0033193D02*
X0387713Y0033193D01*
X0387037Y0032407D02*
X0391033Y0032407D01*
X0388148Y0030835D02*
X0386581Y0030835D01*
X0386906Y0031621D02*
X0387809Y0031621D01*
X0388764Y0030049D02*
X0385921Y0030049D01*
X0384641Y0029263D02*
X0389960Y0029263D01*
X0387687Y0027692D02*
X0387097Y0027692D01*
X0387097Y0028429D02*
X0387032Y0028429D01*
X0386326Y0028288D01*
X0385662Y0028013D01*
X0385063Y0027613D01*
X0384555Y0027105D01*
X0384155Y0026506D01*
X0383879Y0025842D01*
X0383739Y0025136D01*
X0383739Y0025071D01*
X0387096Y0025071D01*
X0387097Y0025071D02*
X0387097Y0028429D01*
X0387097Y0026906D02*
X0387687Y0026906D01*
X0387687Y0026120D02*
X0387097Y0026120D01*
X0387097Y0025334D02*
X0387687Y0025334D01*
X0387687Y0023762D02*
X0387097Y0023762D01*
X0387097Y0022976D02*
X0387687Y0022976D01*
X0387687Y0022190D02*
X0387097Y0022190D01*
X0387097Y0021404D02*
X0387687Y0021404D01*
X0388797Y0021404D02*
X0394044Y0021404D01*
X0392785Y0022190D02*
X0389972Y0022190D01*
X0390582Y0022976D02*
X0392134Y0022976D01*
X0391808Y0023762D02*
X0390914Y0023762D01*
X0384422Y0026906D02*
X0382455Y0026906D01*
X0382839Y0026120D02*
X0383995Y0026120D01*
X0383778Y0025334D02*
X0383100Y0025334D01*
X0377037Y0022190D02*
X0374125Y0022190D01*
X0374776Y0022976D02*
X0376385Y0022976D01*
X0376060Y0023762D02*
X0375102Y0023762D01*
X0375226Y0024548D02*
X0375935Y0024548D01*
X0375935Y0025334D02*
X0375226Y0025334D01*
X0374965Y0026120D02*
X0376197Y0026120D01*
X0376581Y0026906D02*
X0374581Y0026906D01*
X0373795Y0027692D02*
X0377367Y0027692D01*
X0376646Y0029138D02*
X0377311Y0029413D01*
X0377909Y0029813D01*
X0378418Y0030322D01*
X0378818Y0030920D01*
X0379093Y0031585D01*
X0379234Y0032290D01*
X0379234Y0032355D01*
X0375876Y0032355D01*
X0375876Y0028997D01*
X0375941Y0028997D01*
X0376646Y0029138D01*
X0376950Y0029263D02*
X0382269Y0029263D01*
X0380989Y0030049D02*
X0378146Y0030049D01*
X0378761Y0030835D02*
X0380329Y0030835D01*
X0380003Y0031621D02*
X0379100Y0031621D01*
X0379872Y0032407D02*
X0375876Y0032407D01*
X0375285Y0032407D02*
X0366853Y0032407D01*
X0368169Y0033193D02*
X0371964Y0033193D01*
X0372178Y0033979D02*
X0368954Y0033979D01*
X0369510Y0034765D02*
X0372601Y0034765D01*
X0373347Y0035551D02*
X0369835Y0035551D01*
X0375286Y0035551D02*
X0375876Y0035551D01*
X0375876Y0034765D02*
X0375286Y0034765D01*
X0375286Y0033979D02*
X0375876Y0033979D01*
X0375876Y0033193D02*
X0375286Y0033193D01*
X0375286Y0031621D02*
X0375876Y0031621D01*
X0375876Y0030835D02*
X0375286Y0030835D01*
X0375286Y0030049D02*
X0375876Y0030049D01*
X0375876Y0029263D02*
X0375286Y0029263D01*
X0372400Y0030835D02*
X0064399Y0030835D01*
X0063883Y0031621D02*
X0372061Y0031621D01*
X0379197Y0033193D02*
X0379872Y0033193D01*
X0380127Y0033979D02*
X0378984Y0033979D01*
X0378561Y0034765D02*
X0380503Y0034765D01*
X0381289Y0035551D02*
X0377814Y0035551D01*
X0376293Y0038910D02*
X0377610Y0039455D01*
X0378618Y0040463D01*
X0379163Y0041780D01*
X0379163Y0043205D01*
X0378618Y0044522D01*
X0377610Y0045530D01*
X0376293Y0046075D01*
X0374868Y0046075D01*
X0373551Y0045530D01*
X0372544Y0044522D01*
X0371998Y0043205D01*
X0371998Y0041780D01*
X0372544Y0040463D01*
X0373551Y0039455D01*
X0374868Y0038910D01*
X0376293Y0038910D01*
X0377635Y0039480D02*
X0381388Y0039480D01*
X0381126Y0039655D02*
X0381725Y0039256D01*
X0382389Y0038980D01*
X0383095Y0038840D01*
X0383160Y0038840D01*
X0383160Y0042197D01*
X0383750Y0042197D01*
X0383750Y0038840D01*
X0383815Y0038840D01*
X0384520Y0038980D01*
X0385185Y0039256D01*
X0385783Y0039655D01*
X0386292Y0040164D01*
X0386692Y0040762D01*
X0386967Y0041427D01*
X0387108Y0042133D01*
X0387108Y0042197D01*
X0383750Y0042197D01*
X0383750Y0042788D01*
X0383160Y0042788D01*
X0383160Y0046145D01*
X0383095Y0046145D01*
X0382389Y0046005D01*
X0381725Y0045730D01*
X0381126Y0045330D01*
X0380618Y0044821D01*
X0380218Y0044223D01*
X0379942Y0043558D01*
X0379802Y0042852D01*
X0379802Y0042788D01*
X0383159Y0042788D01*
X0383159Y0042197D01*
X0379802Y0042197D01*
X0379802Y0042133D01*
X0379942Y0041427D01*
X0380218Y0040762D01*
X0380618Y0040164D01*
X0381126Y0039655D01*
X0380549Y0040266D02*
X0378421Y0040266D01*
X0378862Y0041052D02*
X0380098Y0041052D01*
X0379861Y0041838D02*
X0379163Y0041838D01*
X0379163Y0042624D02*
X0383159Y0042624D01*
X0383750Y0042624D02*
X0387746Y0042624D01*
X0387746Y0043205D02*
X0387746Y0041780D01*
X0388292Y0040463D01*
X0389299Y0039455D01*
X0390616Y0038910D01*
X0392041Y0038910D01*
X0393358Y0039455D01*
X0394366Y0040463D01*
X0394912Y0041780D01*
X0394912Y0043205D01*
X0394366Y0044522D01*
X0393358Y0045530D01*
X0392041Y0046075D01*
X0390616Y0046075D01*
X0389299Y0045530D01*
X0388292Y0044522D01*
X0387746Y0043205D01*
X0387831Y0043410D02*
X0386997Y0043410D01*
X0386967Y0043558D02*
X0386692Y0044223D01*
X0386292Y0044821D01*
X0385783Y0045330D01*
X0385185Y0045730D01*
X0384520Y0046005D01*
X0383815Y0046145D01*
X0383750Y0046145D01*
X0383750Y0042788D01*
X0387108Y0042788D01*
X0387108Y0042852D01*
X0386967Y0043558D01*
X0386703Y0044196D02*
X0388156Y0044196D01*
X0388751Y0044982D02*
X0386131Y0044982D01*
X0385093Y0045768D02*
X0389873Y0045768D01*
X0389421Y0047329D02*
X0390429Y0048337D01*
X0390974Y0049654D01*
X0390974Y0051079D01*
X0390429Y0052396D01*
X0389421Y0053404D01*
X0388104Y0053949D01*
X0386679Y0053949D01*
X0385362Y0053404D01*
X0384355Y0052396D01*
X0383809Y0051079D01*
X0383809Y0049654D01*
X0384355Y0048337D01*
X0385362Y0047329D01*
X0386679Y0046784D01*
X0388104Y0046784D01*
X0389421Y0047329D01*
X0389431Y0047339D02*
X0393222Y0047339D01*
X0392937Y0047529D02*
X0393536Y0047130D01*
X0394200Y0046854D01*
X0394906Y0046714D01*
X0394971Y0046714D01*
X0394971Y0050071D01*
X0395561Y0050071D01*
X0395561Y0046714D01*
X0395626Y0046714D01*
X0396331Y0046854D01*
X0396996Y0047130D01*
X0397594Y0047529D01*
X0398103Y0048038D01*
X0398503Y0048636D01*
X0398778Y0049301D01*
X0398919Y0050007D01*
X0398919Y0050071D01*
X0395561Y0050071D01*
X0395561Y0050662D01*
X0394971Y0050662D01*
X0394971Y0054019D01*
X0394906Y0054019D01*
X0394200Y0053879D01*
X0393536Y0053604D01*
X0392937Y0053204D01*
X0392429Y0052695D01*
X0392029Y0052097D01*
X0391753Y0051432D01*
X0391613Y0050726D01*
X0391613Y0050662D01*
X0394970Y0050662D01*
X0394970Y0050071D01*
X0391613Y0050071D01*
X0391613Y0050007D01*
X0391753Y0049301D01*
X0392029Y0048636D01*
X0392429Y0048038D01*
X0392937Y0047529D01*
X0392370Y0048125D02*
X0390217Y0048125D01*
X0390667Y0048911D02*
X0391915Y0048911D01*
X0391675Y0049697D02*
X0390974Y0049697D01*
X0390974Y0050483D02*
X0394970Y0050483D01*
X0395561Y0050483D02*
X0399557Y0050483D01*
X0399557Y0051079D02*
X0399557Y0049654D01*
X0400103Y0048337D01*
X0401110Y0047329D01*
X0402427Y0046784D01*
X0403852Y0046784D01*
X0405169Y0047329D01*
X0406177Y0048337D01*
X0406723Y0049654D01*
X0406723Y0051079D01*
X0406177Y0052396D01*
X0405169Y0053404D01*
X0403852Y0053949D01*
X0402427Y0053949D01*
X0401110Y0053404D01*
X0400103Y0052396D01*
X0399557Y0051079D01*
X0399636Y0051269D02*
X0398811Y0051269D01*
X0398778Y0051432D02*
X0398503Y0052097D01*
X0398103Y0052695D01*
X0397594Y0053204D01*
X0396996Y0053604D01*
X0396331Y0053879D01*
X0395626Y0054019D01*
X0395561Y0054019D01*
X0395561Y0050662D01*
X0398919Y0050662D01*
X0398919Y0050726D01*
X0398778Y0051432D01*
X0398520Y0052055D02*
X0399961Y0052055D01*
X0400547Y0052841D02*
X0397957Y0052841D01*
X0396940Y0053627D02*
X0401648Y0053627D01*
X0404631Y0053627D02*
X0409339Y0053627D01*
X0409284Y0053604D02*
X0408685Y0053204D01*
X0408177Y0052695D01*
X0407777Y0052097D01*
X0407502Y0051432D01*
X0407361Y0050726D01*
X0407361Y0050662D01*
X0410719Y0050662D01*
X0410719Y0054019D01*
X0410654Y0054019D01*
X0409948Y0053879D01*
X0409284Y0053604D01*
X0408322Y0052841D02*
X0405732Y0052841D01*
X0406318Y0052055D02*
X0407759Y0052055D01*
X0407469Y0051269D02*
X0406644Y0051269D01*
X0406723Y0050483D02*
X0410719Y0050483D01*
X0410719Y0050662D02*
X0410719Y0050071D01*
X0411309Y0050071D01*
X0411309Y0046714D01*
X0411374Y0046714D01*
X0412079Y0046854D01*
X0412744Y0047130D01*
X0413342Y0047529D01*
X0413851Y0048038D01*
X0414251Y0048636D01*
X0414526Y0049301D01*
X0414667Y0050007D01*
X0414667Y0050071D01*
X0411309Y0050071D01*
X0411309Y0050662D01*
X0410719Y0050662D01*
X0411309Y0050662D02*
X0411309Y0054019D01*
X0411374Y0054019D01*
X0412079Y0053879D01*
X0412744Y0053604D01*
X0413342Y0053204D01*
X0413851Y0052695D01*
X0414251Y0052097D01*
X0414526Y0051432D01*
X0414667Y0050726D01*
X0414667Y0050662D01*
X0411309Y0050662D01*
X0411309Y0050483D02*
X0415305Y0050483D01*
X0415305Y0051079D02*
X0415305Y0049654D01*
X0415851Y0048337D01*
X0416858Y0047329D01*
X0418175Y0046784D01*
X0419601Y0046784D01*
X0420917Y0047329D01*
X0421925Y0048337D01*
X0422471Y0049654D01*
X0422471Y0051079D01*
X0421925Y0052396D01*
X0420917Y0053404D01*
X0419601Y0053949D01*
X0418175Y0053949D01*
X0416858Y0053404D01*
X0415851Y0052396D01*
X0415305Y0051079D01*
X0415384Y0051269D02*
X0414559Y0051269D01*
X0414268Y0052055D02*
X0415709Y0052055D01*
X0416295Y0052841D02*
X0413705Y0052841D01*
X0412688Y0053627D02*
X0417397Y0053627D01*
X0420379Y0053627D02*
X0425087Y0053627D01*
X0425032Y0053604D02*
X0424433Y0053204D01*
X0423925Y0052695D01*
X0423525Y0052097D01*
X0423250Y0051432D01*
X0423109Y0050726D01*
X0423109Y0050662D01*
X0426467Y0050662D01*
X0426467Y0054019D01*
X0426402Y0054019D01*
X0425696Y0053879D01*
X0425032Y0053604D01*
X0424070Y0052841D02*
X0421480Y0052841D01*
X0422066Y0052055D02*
X0423508Y0052055D01*
X0423217Y0051269D02*
X0422392Y0051269D01*
X0422471Y0050483D02*
X0426467Y0050483D01*
X0426467Y0050662D02*
X0426467Y0050071D01*
X0427057Y0050071D01*
X0427057Y0046714D01*
X0427122Y0046714D01*
X0427827Y0046854D01*
X0428492Y0047130D01*
X0429090Y0047529D01*
X0429599Y0048038D01*
X0429999Y0048636D01*
X0430274Y0049301D01*
X0430415Y0050007D01*
X0430415Y0050071D01*
X0427057Y0050071D01*
X0427057Y0050662D01*
X0426467Y0050662D01*
X0427057Y0050662D02*
X0427057Y0054019D01*
X0427122Y0054019D01*
X0427827Y0053879D01*
X0428492Y0053604D01*
X0429090Y0053204D01*
X0429599Y0052695D01*
X0429999Y0052097D01*
X0430274Y0051432D01*
X0430415Y0050726D01*
X0430415Y0050662D01*
X0427057Y0050662D01*
X0427057Y0050483D02*
X0434341Y0050483D01*
X0434341Y0050662D02*
X0434341Y0050071D01*
X0434931Y0050071D01*
X0434931Y0046714D01*
X0434996Y0046714D01*
X0435701Y0046854D01*
X0436366Y0047130D01*
X0436964Y0047529D01*
X0437473Y0048038D01*
X0437873Y0048636D01*
X0438148Y0049301D01*
X0438289Y0050007D01*
X0438289Y0050071D01*
X0434931Y0050071D01*
X0434931Y0050662D01*
X0434341Y0050662D01*
X0434341Y0054019D01*
X0434276Y0054019D01*
X0433570Y0053879D01*
X0432906Y0053604D01*
X0432307Y0053204D01*
X0431799Y0052695D01*
X0431399Y0052097D01*
X0431124Y0051432D01*
X0430983Y0050726D01*
X0430983Y0050662D01*
X0434341Y0050662D01*
X0434931Y0050662D02*
X0434931Y0054019D01*
X0434996Y0054019D01*
X0435701Y0053879D01*
X0436366Y0053604D01*
X0436964Y0053204D01*
X0437473Y0052695D01*
X0437873Y0052097D01*
X0438148Y0051432D01*
X0438289Y0050726D01*
X0438289Y0050662D01*
X0434931Y0050662D01*
X0434931Y0050483D02*
X0438927Y0050483D01*
X0438927Y0049697D02*
X0438227Y0049697D01*
X0437987Y0048911D02*
X0439235Y0048911D01*
X0439685Y0048125D02*
X0437531Y0048125D01*
X0436680Y0047339D02*
X0440470Y0047339D01*
X0437118Y0045768D02*
X0432154Y0045768D01*
X0432728Y0045530D02*
X0431412Y0046075D01*
X0429986Y0046075D01*
X0428669Y0045530D01*
X0427662Y0044522D01*
X0427116Y0043205D01*
X0427116Y0041780D01*
X0427662Y0040463D01*
X0428669Y0039455D01*
X0429986Y0038910D01*
X0431412Y0038910D01*
X0432728Y0039455D01*
X0433736Y0040463D01*
X0434282Y0041780D01*
X0434282Y0043205D01*
X0433736Y0044522D01*
X0432728Y0045530D01*
X0433276Y0044982D02*
X0435995Y0044982D01*
X0435401Y0044196D02*
X0433871Y0044196D01*
X0434197Y0043410D02*
X0435075Y0043410D01*
X0434990Y0042624D02*
X0434282Y0042624D01*
X0434282Y0041838D02*
X0434990Y0041838D01*
X0435292Y0041052D02*
X0433980Y0041052D01*
X0433539Y0040266D02*
X0435733Y0040266D01*
X0436519Y0039480D02*
X0432753Y0039480D01*
X0428645Y0039480D02*
X0424879Y0039480D01*
X0424854Y0039455D02*
X0425862Y0040463D01*
X0426408Y0041780D01*
X0426408Y0043205D01*
X0425862Y0044522D01*
X0424854Y0045530D01*
X0423538Y0046075D01*
X0422112Y0046075D01*
X0420795Y0045530D01*
X0419788Y0044522D01*
X0419242Y0043205D01*
X0419242Y0041780D01*
X0419788Y0040463D01*
X0420795Y0039455D01*
X0422112Y0038910D01*
X0423538Y0038910D01*
X0424854Y0039455D01*
X0425665Y0040266D02*
X0427859Y0040266D01*
X0427418Y0041052D02*
X0426106Y0041052D01*
X0426408Y0041838D02*
X0427116Y0041838D01*
X0427116Y0042624D02*
X0426408Y0042624D01*
X0426323Y0043410D02*
X0427201Y0043410D01*
X0427527Y0044196D02*
X0425997Y0044196D01*
X0425402Y0044982D02*
X0428121Y0044982D01*
X0429244Y0045768D02*
X0424280Y0045768D01*
X0425032Y0047130D02*
X0425696Y0046854D01*
X0426402Y0046714D01*
X0426467Y0046714D01*
X0426467Y0050071D01*
X0423109Y0050071D01*
X0423109Y0050007D01*
X0423250Y0049301D01*
X0423525Y0048636D01*
X0423925Y0048038D01*
X0424433Y0047529D01*
X0425032Y0047130D01*
X0424718Y0047339D02*
X0420927Y0047339D01*
X0421713Y0048125D02*
X0423866Y0048125D01*
X0423411Y0048911D02*
X0422163Y0048911D01*
X0422471Y0049697D02*
X0423171Y0049697D01*
X0426467Y0049697D02*
X0427057Y0049697D01*
X0427057Y0048911D02*
X0426467Y0048911D01*
X0426467Y0048125D02*
X0427057Y0048125D01*
X0427057Y0047339D02*
X0426467Y0047339D01*
X0428806Y0047339D02*
X0432592Y0047339D01*
X0432307Y0047529D02*
X0432906Y0047130D01*
X0433570Y0046854D01*
X0434276Y0046714D01*
X0434341Y0046714D01*
X0434341Y0050071D01*
X0430983Y0050071D01*
X0430983Y0050007D01*
X0431124Y0049301D01*
X0431399Y0048636D01*
X0431799Y0048038D01*
X0432307Y0047529D01*
X0431740Y0048125D02*
X0429657Y0048125D01*
X0430113Y0048911D02*
X0431285Y0048911D01*
X0431045Y0049697D02*
X0430353Y0049697D01*
X0430307Y0051269D02*
X0431091Y0051269D01*
X0431382Y0052055D02*
X0430016Y0052055D01*
X0429453Y0052841D02*
X0431944Y0052841D01*
X0432961Y0053627D02*
X0428436Y0053627D01*
X0427057Y0053627D02*
X0426467Y0053627D01*
X0426467Y0052841D02*
X0427057Y0052841D01*
X0427057Y0052055D02*
X0426467Y0052055D01*
X0426467Y0051269D02*
X0427057Y0051269D01*
X0434341Y0051269D02*
X0434931Y0051269D01*
X0434931Y0052055D02*
X0434341Y0052055D01*
X0434341Y0052841D02*
X0434931Y0052841D01*
X0434931Y0053627D02*
X0434341Y0053627D01*
X0436310Y0053627D02*
X0441019Y0053627D01*
X0439917Y0052841D02*
X0437327Y0052841D01*
X0437890Y0052055D02*
X0439331Y0052055D01*
X0439006Y0051269D02*
X0438181Y0051269D01*
X0434931Y0049697D02*
X0434341Y0049697D01*
X0434341Y0048911D02*
X0434931Y0048911D01*
X0434931Y0048125D02*
X0434341Y0048125D01*
X0434341Y0047339D02*
X0434931Y0047339D01*
X0446152Y0045768D02*
X0446742Y0045768D01*
X0446742Y0044982D02*
X0446152Y0044982D01*
X0446152Y0044196D02*
X0446742Y0044196D01*
X0446742Y0043410D02*
X0446152Y0043410D01*
X0446152Y0042197D02*
X0442794Y0042197D01*
X0442794Y0042133D01*
X0442935Y0041427D01*
X0443210Y0040762D01*
X0443610Y0040164D01*
X0444118Y0039655D01*
X0444717Y0039256D01*
X0445381Y0038980D01*
X0446087Y0038840D01*
X0446152Y0038840D01*
X0446152Y0042197D01*
X0446152Y0041838D02*
X0446742Y0041838D01*
X0446742Y0041052D02*
X0446152Y0041052D01*
X0446152Y0040266D02*
X0446742Y0040266D01*
X0446742Y0039480D02*
X0446152Y0039480D01*
X0444380Y0039480D02*
X0440627Y0039480D01*
X0441413Y0040266D02*
X0443541Y0040266D01*
X0443090Y0041052D02*
X0441854Y0041052D01*
X0442156Y0041838D02*
X0442853Y0041838D01*
X0449124Y0044982D02*
X0456726Y0044982D01*
X0456053Y0044196D02*
X0449695Y0044196D01*
X0449989Y0043410D02*
X0456053Y0043410D01*
X0459396Y0044982D02*
X0459617Y0044982D01*
X0460740Y0045768D02*
X0448085Y0045768D01*
X0468171Y0047339D02*
X0471967Y0047339D01*
X0471181Y0048125D02*
X0468957Y0048125D01*
X0469407Y0048911D02*
X0470731Y0048911D01*
X0470423Y0049697D02*
X0469715Y0049697D01*
X0469715Y0050483D02*
X0470423Y0050483D01*
X0470502Y0051269D02*
X0469636Y0051269D01*
X0469311Y0052055D02*
X0470827Y0052055D01*
X0471414Y0052841D02*
X0468724Y0052841D01*
X0469673Y0053627D02*
X0472515Y0053627D01*
X0473016Y0055199D02*
X0531918Y0055199D01*
X0532704Y0055984D02*
X0473802Y0055984D01*
X0473849Y0056770D02*
X0533490Y0056770D01*
X0534276Y0057556D02*
X0473849Y0057556D01*
X0473201Y0058342D02*
X0535062Y0058342D01*
X0535847Y0059128D02*
X0471037Y0059128D01*
X0470251Y0059914D02*
X0536633Y0059914D01*
X0537419Y0060700D02*
X0460252Y0060700D01*
X0460252Y0060559D02*
X0459076Y0059382D01*
X0457412Y0059382D01*
X0456236Y0060559D01*
X0456236Y0062222D01*
X0457412Y0063398D01*
X0459076Y0063398D01*
X0460252Y0062222D01*
X0460252Y0060559D01*
X0459607Y0059914D02*
X0465753Y0059914D01*
X0465783Y0060760D02*
X0466959Y0061936D01*
X0466959Y0063600D01*
X0465783Y0064776D01*
X0464119Y0064776D01*
X0462943Y0063600D01*
X0462943Y0061936D01*
X0464119Y0060760D01*
X0465783Y0060760D01*
X0466508Y0061486D02*
X0537786Y0061486D01*
X0537786Y0062272D02*
X0466959Y0062272D01*
X0466959Y0063058D02*
X0512101Y0063058D01*
X0512175Y0062983D02*
X0513721Y0062343D01*
X0515394Y0062343D01*
X0516939Y0062983D01*
X0518122Y0064166D01*
X0518762Y0065711D01*
X0518762Y0067384D01*
X0518122Y0068929D01*
X0516939Y0070112D01*
X0515394Y0070752D01*
X0513721Y0070752D01*
X0512175Y0070112D01*
X0510993Y0068929D01*
X0510352Y0067384D01*
X0510352Y0065711D01*
X0510993Y0064166D01*
X0512175Y0062983D01*
X0511315Y0063844D02*
X0466715Y0063844D01*
X0465929Y0064630D02*
X0510801Y0064630D01*
X0510475Y0065415D02*
X0339532Y0065415D01*
X0339405Y0065288D02*
X0340581Y0066464D01*
X0340581Y0068127D01*
X0339405Y0069304D01*
X0337741Y0069304D01*
X0336565Y0068127D01*
X0336565Y0066464D01*
X0337741Y0065288D01*
X0339405Y0065288D01*
X0340318Y0066201D02*
X0510352Y0066201D01*
X0510352Y0066987D02*
X0340581Y0066987D01*
X0340581Y0067773D02*
X0510514Y0067773D01*
X0510839Y0068559D02*
X0340149Y0068559D01*
X0336997Y0068559D02*
X0042746Y0068559D01*
X0042746Y0068039D02*
X0042746Y0069702D01*
X0041570Y0070878D01*
X0039907Y0070878D01*
X0039459Y0070431D01*
X0039011Y0070878D01*
X0037348Y0070878D01*
X0036171Y0069702D01*
X0036171Y0068039D01*
X0037348Y0066863D01*
X0039011Y0066863D01*
X0039459Y0067311D01*
X0039907Y0066863D01*
X0041570Y0066863D01*
X0042746Y0068039D01*
X0042480Y0067773D02*
X0336565Y0067773D01*
X0336565Y0066987D02*
X0189087Y0066987D01*
X0188739Y0067335D02*
X0187076Y0067335D01*
X0186604Y0066864D01*
X0186133Y0067335D01*
X0184470Y0067335D01*
X0183293Y0066159D01*
X0183293Y0064496D01*
X0184470Y0063319D01*
X0186133Y0063319D01*
X0186604Y0063791D01*
X0187076Y0063319D01*
X0188739Y0063319D01*
X0189915Y0064496D01*
X0189915Y0066159D01*
X0188739Y0067335D01*
X0189873Y0066201D02*
X0336828Y0066201D01*
X0337614Y0065415D02*
X0189915Y0065415D01*
X0189915Y0064630D02*
X0463973Y0064630D01*
X0463187Y0063844D02*
X0189263Y0063844D01*
X0183945Y0063844D02*
X0177452Y0063844D01*
X0176928Y0063319D02*
X0178104Y0064496D01*
X0178104Y0066159D01*
X0176928Y0067335D01*
X0175265Y0067335D01*
X0174793Y0066864D01*
X0174322Y0067335D01*
X0172659Y0067335D01*
X0171482Y0066159D01*
X0171482Y0064496D01*
X0172659Y0063319D01*
X0174322Y0063319D01*
X0174793Y0063791D01*
X0175265Y0063319D01*
X0176928Y0063319D01*
X0178104Y0064630D02*
X0183293Y0064630D01*
X0183293Y0065415D02*
X0178104Y0065415D01*
X0178062Y0066201D02*
X0183336Y0066201D01*
X0184122Y0066987D02*
X0177276Y0066987D01*
X0174917Y0066987D02*
X0174670Y0066987D01*
X0172311Y0066987D02*
X0165465Y0066987D01*
X0165117Y0067335D02*
X0163454Y0067335D01*
X0162982Y0066864D01*
X0162511Y0067335D01*
X0160848Y0067335D01*
X0159671Y0066159D01*
X0159671Y0064496D01*
X0160848Y0063319D01*
X0162511Y0063319D01*
X0162982Y0063791D01*
X0163454Y0063319D01*
X0165117Y0063319D01*
X0166293Y0064496D01*
X0166293Y0066159D01*
X0165117Y0067335D01*
X0166251Y0066201D02*
X0171525Y0066201D01*
X0171482Y0065415D02*
X0166293Y0065415D01*
X0166293Y0064630D02*
X0171482Y0064630D01*
X0172134Y0063844D02*
X0165641Y0063844D01*
X0160323Y0063844D02*
X0147925Y0063844D01*
X0147401Y0063319D02*
X0148577Y0064496D01*
X0148577Y0066159D01*
X0147401Y0067335D01*
X0145737Y0067335D01*
X0145266Y0066864D01*
X0144794Y0067335D01*
X0143131Y0067335D01*
X0141955Y0066159D01*
X0141955Y0064496D01*
X0143131Y0063319D01*
X0144794Y0063319D01*
X0145266Y0063791D01*
X0145737Y0063319D01*
X0147401Y0063319D01*
X0148577Y0064630D02*
X0159671Y0064630D01*
X0159671Y0065415D02*
X0148577Y0065415D01*
X0148534Y0066201D02*
X0159714Y0066201D01*
X0160500Y0066987D02*
X0147749Y0066987D01*
X0145389Y0066987D02*
X0145142Y0066987D01*
X0142783Y0066987D02*
X0061134Y0066987D01*
X0060787Y0067335D02*
X0059123Y0067335D01*
X0058652Y0066864D01*
X0058180Y0067335D01*
X0056517Y0067335D01*
X0055341Y0066159D01*
X0055341Y0064496D01*
X0056517Y0063319D01*
X0058180Y0063319D01*
X0058652Y0063791D01*
X0059123Y0063319D01*
X0060787Y0063319D01*
X0061963Y0064496D01*
X0061963Y0066159D01*
X0060787Y0067335D01*
X0061920Y0066201D02*
X0141997Y0066201D01*
X0141955Y0065415D02*
X0061963Y0065415D01*
X0061963Y0064630D02*
X0141955Y0064630D01*
X0142607Y0063844D02*
X0061311Y0063844D01*
X0058691Y0060769D02*
X0057515Y0061945D01*
X0055851Y0061945D01*
X0054675Y0060769D01*
X0054675Y0059106D01*
X0055147Y0058634D01*
X0054675Y0058163D01*
X0054675Y0056499D01*
X0055851Y0055323D01*
X0057515Y0055323D01*
X0058691Y0056499D01*
X0058691Y0058163D01*
X0058220Y0058634D01*
X0058691Y0059106D01*
X0058691Y0060769D01*
X0058691Y0060700D02*
X0439809Y0060700D01*
X0439321Y0060211D02*
X0439321Y0058548D01*
X0440497Y0057372D01*
X0442161Y0057372D01*
X0443337Y0058548D01*
X0443337Y0060211D01*
X0442161Y0061388D01*
X0440497Y0061388D01*
X0439321Y0060211D01*
X0439321Y0059914D02*
X0073129Y0059914D01*
X0072598Y0060445D02*
X0073774Y0059269D01*
X0073774Y0057606D01*
X0072598Y0056430D01*
X0070934Y0056430D01*
X0070463Y0056901D01*
X0069991Y0056430D01*
X0068328Y0056430D01*
X0067152Y0057606D01*
X0067152Y0059269D01*
X0068328Y0060445D01*
X0069991Y0060445D01*
X0070463Y0059974D01*
X0070934Y0060445D01*
X0072598Y0060445D01*
X0073774Y0059128D02*
X0439321Y0059128D01*
X0439527Y0058342D02*
X0073774Y0058342D01*
X0073724Y0057556D02*
X0440313Y0057556D01*
X0442345Y0057556D02*
X0448041Y0057556D01*
X0447392Y0056770D02*
X0141773Y0056770D01*
X0142290Y0056254D02*
X0141113Y0057430D01*
X0139450Y0057430D01*
X0138274Y0056254D01*
X0138274Y0055587D01*
X0137607Y0055587D01*
X0136431Y0054411D01*
X0136431Y0052747D01*
X0137607Y0051571D01*
X0139271Y0051571D01*
X0140447Y0052747D01*
X0140447Y0053414D01*
X0141113Y0053414D01*
X0142290Y0054590D01*
X0142290Y0056254D01*
X0142290Y0055984D02*
X0447392Y0055984D01*
X0447437Y0055199D02*
X0142290Y0055199D01*
X0142112Y0054413D02*
X0156118Y0054413D01*
X0155597Y0053891D02*
X0156773Y0055068D01*
X0158436Y0055068D01*
X0159613Y0053891D01*
X0159613Y0052228D01*
X0158436Y0051052D01*
X0157770Y0051052D01*
X0157770Y0050385D01*
X0156593Y0049209D01*
X0154930Y0049209D01*
X0153754Y0050385D01*
X0153754Y0052048D01*
X0154930Y0053225D01*
X0155597Y0053225D01*
X0155597Y0053891D01*
X0155597Y0053627D02*
X0141326Y0053627D01*
X0140447Y0052841D02*
X0154546Y0052841D01*
X0153760Y0052055D02*
X0139754Y0052055D01*
X0137123Y0052055D02*
X0128378Y0052055D01*
X0128121Y0052312D02*
X0126458Y0052312D01*
X0125282Y0051136D01*
X0125282Y0050469D01*
X0124615Y0050469D01*
X0123439Y0049293D01*
X0123439Y0047629D01*
X0124615Y0046453D01*
X0126278Y0046453D01*
X0127455Y0047629D01*
X0127455Y0048296D01*
X0128121Y0048296D01*
X0129298Y0049472D01*
X0129298Y0051136D01*
X0128121Y0052312D01*
X0129164Y0051269D02*
X0153754Y0051269D01*
X0153754Y0050483D02*
X0129298Y0050483D01*
X0129298Y0049697D02*
X0154442Y0049697D01*
X0157082Y0049697D02*
X0368053Y0049697D01*
X0367991Y0050007D02*
X0368131Y0049301D01*
X0368407Y0048636D01*
X0368807Y0048038D01*
X0369315Y0047529D01*
X0369914Y0047130D01*
X0370578Y0046854D01*
X0371284Y0046714D01*
X0371348Y0046714D01*
X0371348Y0050071D01*
X0367991Y0050071D01*
X0367991Y0050007D01*
X0367991Y0050662D02*
X0371348Y0050662D01*
X0371348Y0050071D01*
X0371939Y0050071D01*
X0371939Y0046714D01*
X0372004Y0046714D01*
X0372709Y0046854D01*
X0373374Y0047130D01*
X0373972Y0047529D01*
X0374481Y0048038D01*
X0374881Y0048636D01*
X0375156Y0049301D01*
X0375297Y0050007D01*
X0375297Y0050071D01*
X0371939Y0050071D01*
X0371939Y0050662D01*
X0371348Y0050662D01*
X0371348Y0054019D01*
X0371284Y0054019D01*
X0370578Y0053879D01*
X0369914Y0053604D01*
X0369315Y0053204D01*
X0368807Y0052695D01*
X0368407Y0052097D01*
X0368131Y0051432D01*
X0367991Y0050726D01*
X0367991Y0050662D01*
X0368099Y0051269D02*
X0158653Y0051269D01*
X0159439Y0052055D02*
X0368389Y0052055D01*
X0368952Y0052841D02*
X0159613Y0052841D01*
X0159613Y0053627D02*
X0369969Y0053627D01*
X0371348Y0053627D02*
X0371939Y0053627D01*
X0371939Y0054019D02*
X0372004Y0054019D01*
X0372709Y0053879D01*
X0373374Y0053604D01*
X0373972Y0053204D01*
X0374481Y0052695D01*
X0374881Y0052097D01*
X0375156Y0051432D01*
X0375297Y0050726D01*
X0375297Y0050662D01*
X0371939Y0050662D01*
X0371939Y0054019D01*
X0371939Y0052841D02*
X0371348Y0052841D01*
X0371348Y0052055D02*
X0371939Y0052055D01*
X0371939Y0051269D02*
X0371348Y0051269D01*
X0371348Y0050483D02*
X0157770Y0050483D01*
X0159091Y0054413D02*
X0448223Y0054413D01*
X0450758Y0057556D02*
X0450797Y0057556D01*
X0453514Y0057556D02*
X0464715Y0057556D01*
X0464715Y0058342D02*
X0443131Y0058342D01*
X0443337Y0059128D02*
X0464967Y0059128D01*
X0465156Y0056770D02*
X0454163Y0056770D01*
X0454163Y0055984D02*
X0466486Y0055984D01*
X0466486Y0055199D02*
X0454118Y0055199D01*
X0453333Y0054413D02*
X0466530Y0054413D01*
X0470459Y0054413D02*
X0531132Y0054413D01*
X0528774Y0052055D02*
X0526535Y0052055D01*
X0527195Y0051269D02*
X0527988Y0051269D01*
X0527202Y0050483D02*
X0527195Y0050483D01*
X0524059Y0047339D02*
X0499668Y0047339D01*
X0500110Y0045768D02*
X0495146Y0045768D01*
X0495720Y0045530D02*
X0494404Y0046075D01*
X0492978Y0046075D01*
X0491662Y0045530D01*
X0490654Y0044522D01*
X0490108Y0043205D01*
X0490108Y0041780D01*
X0490654Y0040463D01*
X0491662Y0039455D01*
X0492978Y0038910D01*
X0494404Y0038910D01*
X0495720Y0039455D01*
X0496728Y0040463D01*
X0497274Y0041780D01*
X0497274Y0043205D01*
X0496728Y0044522D01*
X0495720Y0045530D01*
X0496269Y0044982D02*
X0498987Y0044982D01*
X0498393Y0044196D02*
X0496863Y0044196D01*
X0497189Y0043410D02*
X0498067Y0043410D01*
X0497982Y0042624D02*
X0497274Y0042624D01*
X0497274Y0041838D02*
X0497982Y0041838D01*
X0498284Y0041052D02*
X0496972Y0041052D01*
X0496531Y0040266D02*
X0498725Y0040266D01*
X0499511Y0039480D02*
X0495745Y0039480D01*
X0491637Y0039480D02*
X0487871Y0039480D01*
X0488657Y0040266D02*
X0490851Y0040266D01*
X0490410Y0041052D02*
X0489098Y0041052D01*
X0489400Y0041838D02*
X0490108Y0041838D01*
X0490108Y0042624D02*
X0489400Y0042624D01*
X0489315Y0043410D02*
X0490193Y0043410D01*
X0490519Y0044196D02*
X0488989Y0044196D01*
X0489768Y0044982D02*
X0491113Y0044982D01*
X0490187Y0045768D02*
X0492236Y0045768D01*
X0491798Y0047339D02*
X0495589Y0047339D01*
X0494803Y0048125D02*
X0492650Y0048125D01*
X0493105Y0048911D02*
X0494353Y0048911D01*
X0494045Y0049697D02*
X0493345Y0049697D01*
X0490049Y0051269D02*
X0489459Y0051269D01*
X0489459Y0052055D02*
X0490049Y0052055D01*
X0490049Y0052841D02*
X0489459Y0052841D01*
X0489459Y0053627D02*
X0490049Y0053627D01*
X0486163Y0049697D02*
X0485463Y0049697D01*
X0485155Y0048911D02*
X0486403Y0048911D01*
X0486858Y0048125D02*
X0484705Y0048125D01*
X0483920Y0047339D02*
X0486446Y0047339D01*
X0486171Y0046554D02*
X0126379Y0046554D01*
X0127165Y0047339D02*
X0369600Y0047339D01*
X0368748Y0048125D02*
X0127455Y0048125D01*
X0128737Y0048911D02*
X0368293Y0048911D01*
X0371348Y0048911D02*
X0371939Y0048911D01*
X0371939Y0048125D02*
X0371348Y0048125D01*
X0371348Y0047339D02*
X0371939Y0047339D01*
X0373688Y0047339D02*
X0377478Y0047339D01*
X0377488Y0047329D02*
X0378805Y0046784D01*
X0380230Y0046784D01*
X0381547Y0047329D01*
X0382555Y0048337D01*
X0383100Y0049654D01*
X0383100Y0051079D01*
X0382555Y0052396D01*
X0381547Y0053404D01*
X0380230Y0053949D01*
X0378805Y0053949D01*
X0377488Y0053404D01*
X0376481Y0052396D01*
X0375935Y0051079D01*
X0375935Y0049654D01*
X0376481Y0048337D01*
X0377488Y0047329D01*
X0376692Y0048125D02*
X0374539Y0048125D01*
X0374995Y0048911D02*
X0376243Y0048911D01*
X0375935Y0049697D02*
X0375235Y0049697D01*
X0375935Y0050483D02*
X0371939Y0050483D01*
X0371939Y0049697D02*
X0371348Y0049697D01*
X0375189Y0051269D02*
X0376014Y0051269D01*
X0376339Y0052055D02*
X0374898Y0052055D01*
X0374335Y0052841D02*
X0376925Y0052841D01*
X0378026Y0053627D02*
X0373318Y0053627D01*
X0381009Y0053627D02*
X0385900Y0053627D01*
X0384799Y0052841D02*
X0382110Y0052841D01*
X0382696Y0052055D02*
X0384213Y0052055D01*
X0383888Y0051269D02*
X0383022Y0051269D01*
X0383100Y0050483D02*
X0383809Y0050483D01*
X0383809Y0049697D02*
X0383100Y0049697D01*
X0382793Y0048911D02*
X0384117Y0048911D01*
X0384566Y0048125D02*
X0382343Y0048125D01*
X0381557Y0047339D02*
X0385352Y0047339D01*
X0383750Y0045768D02*
X0383160Y0045768D01*
X0383160Y0044982D02*
X0383750Y0044982D01*
X0383750Y0044196D02*
X0383160Y0044196D01*
X0383160Y0043410D02*
X0383750Y0043410D01*
X0383750Y0041838D02*
X0383160Y0041838D01*
X0383160Y0041052D02*
X0383750Y0041052D01*
X0383750Y0040266D02*
X0383160Y0040266D01*
X0383160Y0039480D02*
X0383750Y0039480D01*
X0385521Y0039480D02*
X0389274Y0039480D01*
X0388489Y0040266D02*
X0386360Y0040266D01*
X0386812Y0041052D02*
X0388048Y0041052D01*
X0387746Y0041838D02*
X0387049Y0041838D01*
X0393383Y0039480D02*
X0397136Y0039480D01*
X0396874Y0039655D02*
X0397473Y0039256D01*
X0398137Y0038980D01*
X0398843Y0038840D01*
X0398908Y0038840D01*
X0398908Y0042197D01*
X0399498Y0042197D01*
X0399498Y0038840D01*
X0399563Y0038840D01*
X0400268Y0038980D01*
X0400933Y0039256D01*
X0401531Y0039655D01*
X0402040Y0040164D01*
X0402440Y0040762D01*
X0402715Y0041427D01*
X0402856Y0042133D01*
X0402856Y0042197D01*
X0399498Y0042197D01*
X0399498Y0042788D01*
X0398908Y0042788D01*
X0398908Y0046145D01*
X0398843Y0046145D01*
X0398137Y0046005D01*
X0397473Y0045730D01*
X0396874Y0045330D01*
X0396366Y0044821D01*
X0395966Y0044223D01*
X0395690Y0043558D01*
X0395550Y0042852D01*
X0395550Y0042788D01*
X0398907Y0042788D01*
X0398907Y0042197D01*
X0395550Y0042197D01*
X0395550Y0042133D01*
X0395690Y0041427D01*
X0395966Y0040762D01*
X0396366Y0040164D01*
X0396874Y0039655D01*
X0396297Y0040266D02*
X0394169Y0040266D01*
X0394610Y0041052D02*
X0395846Y0041052D01*
X0395609Y0041838D02*
X0394912Y0041838D01*
X0394912Y0042624D02*
X0398907Y0042624D01*
X0399498Y0042624D02*
X0403494Y0042624D01*
X0403494Y0043205D02*
X0403494Y0041780D01*
X0404040Y0040463D01*
X0405047Y0039455D01*
X0406364Y0038910D01*
X0407790Y0038910D01*
X0409106Y0039455D01*
X0410114Y0040463D01*
X0410660Y0041780D01*
X0410660Y0043205D01*
X0410114Y0044522D01*
X0409106Y0045530D01*
X0407790Y0046075D01*
X0406364Y0046075D01*
X0405047Y0045530D01*
X0404040Y0044522D01*
X0403494Y0043205D01*
X0403579Y0043410D02*
X0402745Y0043410D01*
X0402715Y0043558D02*
X0402440Y0044223D01*
X0402040Y0044821D01*
X0401531Y0045330D01*
X0400933Y0045730D01*
X0400268Y0046005D01*
X0399563Y0046145D01*
X0399498Y0046145D01*
X0399498Y0042788D01*
X0402856Y0042788D01*
X0402856Y0042852D01*
X0402715Y0043558D01*
X0402451Y0044196D02*
X0403904Y0044196D01*
X0404499Y0044982D02*
X0401880Y0044982D01*
X0400841Y0045768D02*
X0405621Y0045768D01*
X0405179Y0047339D02*
X0408970Y0047339D01*
X0408685Y0047529D02*
X0409284Y0047130D01*
X0409948Y0046854D01*
X0410654Y0046714D01*
X0410719Y0046714D01*
X0410719Y0050071D01*
X0407361Y0050071D01*
X0407361Y0050007D01*
X0407502Y0049301D01*
X0407777Y0048636D01*
X0408177Y0048038D01*
X0408685Y0047529D01*
X0408118Y0048125D02*
X0405965Y0048125D01*
X0406415Y0048911D02*
X0407663Y0048911D01*
X0407423Y0049697D02*
X0406723Y0049697D01*
X0410719Y0049697D02*
X0411309Y0049697D01*
X0411309Y0048911D02*
X0410719Y0048911D01*
X0410719Y0048125D02*
X0411309Y0048125D01*
X0411309Y0047339D02*
X0410719Y0047339D01*
X0413058Y0047339D02*
X0416848Y0047339D01*
X0416062Y0048125D02*
X0413909Y0048125D01*
X0414365Y0048911D02*
X0415613Y0048911D01*
X0415305Y0049697D02*
X0414605Y0049697D01*
X0411309Y0051269D02*
X0410719Y0051269D01*
X0410719Y0052055D02*
X0411309Y0052055D01*
X0411309Y0052841D02*
X0410719Y0052841D01*
X0410719Y0053627D02*
X0411309Y0053627D01*
X0399557Y0049697D02*
X0398857Y0049697D01*
X0398617Y0048911D02*
X0399865Y0048911D01*
X0400314Y0048125D02*
X0398161Y0048125D01*
X0397310Y0047339D02*
X0401100Y0047339D01*
X0399498Y0045768D02*
X0398908Y0045768D01*
X0398908Y0044982D02*
X0399498Y0044982D01*
X0399498Y0044196D02*
X0398908Y0044196D01*
X0398908Y0043410D02*
X0399498Y0043410D01*
X0399498Y0041838D02*
X0398908Y0041838D01*
X0398908Y0041052D02*
X0399498Y0041052D01*
X0399498Y0040266D02*
X0398908Y0040266D01*
X0398908Y0039480D02*
X0399498Y0039480D01*
X0401269Y0039480D02*
X0405022Y0039480D01*
X0404237Y0040266D02*
X0402108Y0040266D01*
X0402560Y0041052D02*
X0403796Y0041052D01*
X0403494Y0041838D02*
X0402797Y0041838D01*
X0409131Y0039480D02*
X0412884Y0039480D01*
X0412622Y0039655D02*
X0413221Y0039256D01*
X0413885Y0038980D01*
X0414591Y0038840D01*
X0414656Y0038840D01*
X0414656Y0042197D01*
X0415246Y0042197D01*
X0415246Y0038840D01*
X0415311Y0038840D01*
X0416016Y0038980D01*
X0416681Y0039256D01*
X0417279Y0039655D01*
X0417788Y0040164D01*
X0418188Y0040762D01*
X0418463Y0041427D01*
X0418604Y0042133D01*
X0418604Y0042197D01*
X0415246Y0042197D01*
X0415246Y0042788D01*
X0414656Y0042788D01*
X0414656Y0046145D01*
X0414591Y0046145D01*
X0413885Y0046005D01*
X0413221Y0045730D01*
X0412622Y0045330D01*
X0412114Y0044821D01*
X0411714Y0044223D01*
X0411439Y0043558D01*
X0411298Y0042852D01*
X0411298Y0042788D01*
X0414656Y0042788D01*
X0414656Y0042197D01*
X0411298Y0042197D01*
X0411298Y0042133D01*
X0411439Y0041427D01*
X0411714Y0040762D01*
X0412114Y0040164D01*
X0412622Y0039655D01*
X0412045Y0040266D02*
X0409917Y0040266D01*
X0410358Y0041052D02*
X0411594Y0041052D01*
X0411357Y0041838D02*
X0410660Y0041838D01*
X0410660Y0042624D02*
X0414656Y0042624D01*
X0415246Y0042624D02*
X0419242Y0042624D01*
X0418604Y0042788D02*
X0418604Y0042852D01*
X0418463Y0043558D01*
X0418188Y0044223D01*
X0417788Y0044821D01*
X0417279Y0045330D01*
X0416681Y0045730D01*
X0416016Y0046005D01*
X0415311Y0046145D01*
X0415246Y0046145D01*
X0415246Y0042788D01*
X0418604Y0042788D01*
X0418493Y0043410D02*
X0419327Y0043410D01*
X0419653Y0044196D02*
X0418199Y0044196D01*
X0417628Y0044982D02*
X0420247Y0044982D01*
X0421369Y0045768D02*
X0416589Y0045768D01*
X0415246Y0045768D02*
X0414656Y0045768D01*
X0414656Y0044982D02*
X0415246Y0044982D01*
X0415246Y0044196D02*
X0414656Y0044196D01*
X0414656Y0043410D02*
X0415246Y0043410D01*
X0415246Y0041838D02*
X0414656Y0041838D01*
X0414656Y0041052D02*
X0415246Y0041052D01*
X0415246Y0040266D02*
X0414656Y0040266D01*
X0414656Y0039480D02*
X0415246Y0039480D01*
X0417017Y0039480D02*
X0420771Y0039480D01*
X0419985Y0040266D02*
X0417856Y0040266D01*
X0418308Y0041052D02*
X0419544Y0041052D01*
X0419242Y0041838D02*
X0418545Y0041838D01*
X0411409Y0043410D02*
X0410575Y0043410D01*
X0410249Y0044196D02*
X0411703Y0044196D01*
X0412274Y0044982D02*
X0409654Y0044982D01*
X0408532Y0045768D02*
X0413312Y0045768D01*
X0397564Y0045768D02*
X0392784Y0045768D01*
X0393906Y0044982D02*
X0396526Y0044982D01*
X0395955Y0044196D02*
X0394501Y0044196D01*
X0394827Y0043410D02*
X0395661Y0043410D01*
X0395561Y0047339D02*
X0394971Y0047339D01*
X0394971Y0048125D02*
X0395561Y0048125D01*
X0395561Y0048911D02*
X0394971Y0048911D01*
X0394971Y0049697D02*
X0395561Y0049697D01*
X0395561Y0051269D02*
X0394971Y0051269D01*
X0394971Y0052055D02*
X0395561Y0052055D01*
X0395561Y0052841D02*
X0394971Y0052841D01*
X0394971Y0053627D02*
X0395561Y0053627D01*
X0393591Y0053627D02*
X0388883Y0053627D01*
X0389984Y0052841D02*
X0392574Y0052841D01*
X0392011Y0052055D02*
X0390570Y0052055D01*
X0390896Y0051269D02*
X0391721Y0051269D01*
X0381816Y0045768D02*
X0377036Y0045768D01*
X0378158Y0044982D02*
X0380778Y0044982D01*
X0380207Y0044196D02*
X0378753Y0044196D01*
X0379079Y0043410D02*
X0379913Y0043410D01*
X0373003Y0044982D02*
X0104202Y0044982D01*
X0104360Y0045363D02*
X0103695Y0043757D01*
X0102466Y0042528D01*
X0100860Y0041863D01*
X0099121Y0041863D01*
X0097515Y0042528D01*
X0096285Y0043757D01*
X0095620Y0045363D01*
X0095620Y0047102D01*
X0096285Y0048708D01*
X0097515Y0049938D01*
X0099121Y0050603D01*
X0100860Y0050603D01*
X0102466Y0049938D01*
X0103695Y0048708D01*
X0104360Y0047102D01*
X0104360Y0045363D01*
X0104360Y0045768D02*
X0106009Y0045768D01*
X0106505Y0045272D02*
X0105329Y0046448D01*
X0105329Y0048111D01*
X0106505Y0049288D01*
X0107172Y0049288D01*
X0107172Y0049954D01*
X0108348Y0051131D01*
X0110011Y0051131D01*
X0111187Y0049954D01*
X0111187Y0048291D01*
X0110011Y0047115D01*
X0109344Y0047115D01*
X0109344Y0046448D01*
X0108168Y0045272D01*
X0106505Y0045272D01*
X0105329Y0046554D02*
X0104360Y0046554D01*
X0104262Y0047339D02*
X0105329Y0047339D01*
X0105342Y0048125D02*
X0103936Y0048125D01*
X0103492Y0048911D02*
X0106128Y0048911D01*
X0107172Y0049697D02*
X0102706Y0049697D01*
X0101149Y0050483D02*
X0107700Y0050483D01*
X0110659Y0050483D02*
X0125282Y0050483D01*
X0125415Y0051269D02*
X0091490Y0051269D01*
X0091490Y0050913D02*
X0090314Y0049737D01*
X0088651Y0049737D01*
X0088179Y0050208D01*
X0087708Y0049737D01*
X0086044Y0049737D01*
X0084868Y0050913D01*
X0084868Y0052576D01*
X0086044Y0053752D01*
X0087708Y0053752D01*
X0088179Y0053281D01*
X0088651Y0053752D01*
X0090314Y0053752D01*
X0091490Y0052576D01*
X0091490Y0050913D01*
X0091060Y0050483D02*
X0098832Y0050483D01*
X0097274Y0049697D02*
X0075147Y0049697D01*
X0074907Y0049938D02*
X0073300Y0050603D01*
X0071562Y0050603D01*
X0069956Y0049938D01*
X0068726Y0048708D01*
X0068061Y0047102D01*
X0068061Y0045363D01*
X0068726Y0043757D01*
X0069956Y0042528D01*
X0071562Y0041863D01*
X0073300Y0041863D01*
X0074907Y0042528D01*
X0076136Y0043757D01*
X0076801Y0045363D01*
X0076801Y0047102D01*
X0076136Y0048708D01*
X0074907Y0049938D01*
X0073590Y0050483D02*
X0085298Y0050483D01*
X0084868Y0051269D02*
X0050983Y0051269D01*
X0051499Y0050483D02*
X0071273Y0050483D01*
X0069715Y0049697D02*
X0052015Y0049697D01*
X0052531Y0048911D02*
X0068929Y0048911D01*
X0068485Y0048125D02*
X0053047Y0048125D01*
X0053563Y0047339D02*
X0068159Y0047339D01*
X0068061Y0046554D02*
X0054079Y0046554D01*
X0054595Y0045768D02*
X0068061Y0045768D01*
X0068219Y0044982D02*
X0055111Y0044982D01*
X0055627Y0044196D02*
X0068545Y0044196D01*
X0069074Y0043410D02*
X0056143Y0043410D01*
X0056659Y0042624D02*
X0069860Y0042624D01*
X0075003Y0042624D02*
X0097419Y0042624D01*
X0096633Y0043410D02*
X0075789Y0043410D01*
X0076318Y0044196D02*
X0096104Y0044196D01*
X0095778Y0044982D02*
X0076643Y0044982D01*
X0076801Y0045768D02*
X0095620Y0045768D01*
X0095620Y0046554D02*
X0076801Y0046554D01*
X0076703Y0047339D02*
X0095719Y0047339D01*
X0096044Y0048125D02*
X0076377Y0048125D01*
X0075933Y0048911D02*
X0096489Y0048911D01*
X0091490Y0052055D02*
X0126201Y0052055D01*
X0123843Y0049697D02*
X0111187Y0049697D01*
X0111187Y0048911D02*
X0123439Y0048911D01*
X0123439Y0048125D02*
X0111022Y0048125D01*
X0110236Y0047339D02*
X0123729Y0047339D01*
X0124515Y0046554D02*
X0109344Y0046554D01*
X0108664Y0045768D02*
X0374125Y0045768D01*
X0372408Y0044196D02*
X0353808Y0044196D01*
X0354360Y0043643D02*
X0353184Y0044819D01*
X0351521Y0044819D01*
X0350345Y0043643D01*
X0350345Y0041980D01*
X0350816Y0041508D01*
X0350345Y0041037D01*
X0350345Y0039373D01*
X0351521Y0038197D01*
X0353184Y0038197D01*
X0354360Y0039373D01*
X0354360Y0041037D01*
X0353889Y0041508D01*
X0354360Y0041980D01*
X0354360Y0043643D01*
X0354360Y0043410D02*
X0372083Y0043410D01*
X0371998Y0042624D02*
X0367122Y0042624D01*
X0368280Y0041838D02*
X0371998Y0041838D01*
X0372300Y0041052D02*
X0369066Y0041052D01*
X0369556Y0040266D02*
X0372741Y0040266D01*
X0373526Y0039480D02*
X0369882Y0039480D01*
X0360834Y0041838D02*
X0354219Y0041838D01*
X0354345Y0041052D02*
X0360048Y0041052D01*
X0359558Y0040266D02*
X0354360Y0040266D01*
X0354360Y0039480D02*
X0359233Y0039480D01*
X0358908Y0038694D02*
X0353681Y0038694D01*
X0351024Y0038694D02*
X0090715Y0038694D01*
X0090715Y0039324D02*
X0090715Y0037661D01*
X0089539Y0036485D01*
X0088872Y0036485D01*
X0088872Y0035818D01*
X0087696Y0034642D01*
X0086032Y0034642D01*
X0084856Y0035818D01*
X0084856Y0037482D01*
X0086032Y0038658D01*
X0086699Y0038658D01*
X0086699Y0039324D01*
X0087875Y0040501D01*
X0089539Y0040501D01*
X0090715Y0039324D01*
X0090559Y0039480D02*
X0350345Y0039480D01*
X0350345Y0040266D02*
X0089773Y0040266D01*
X0087641Y0040266D02*
X0058207Y0040266D01*
X0058723Y0039480D02*
X0086855Y0039480D01*
X0086699Y0038694D02*
X0059239Y0038694D01*
X0059755Y0037908D02*
X0085283Y0037908D01*
X0084856Y0037123D02*
X0060271Y0037123D01*
X0060787Y0036337D02*
X0084856Y0036337D01*
X0085124Y0035551D02*
X0061303Y0035551D01*
X0061819Y0034765D02*
X0085910Y0034765D01*
X0087819Y0034765D02*
X0359605Y0034765D01*
X0359279Y0035551D02*
X0088604Y0035551D01*
X0088872Y0036337D02*
X0358954Y0036337D01*
X0358908Y0037123D02*
X0090176Y0037123D01*
X0090715Y0037908D02*
X0358908Y0037908D01*
X0360160Y0033979D02*
X0062335Y0033979D01*
X0062851Y0033193D02*
X0360946Y0033193D01*
X0362262Y0032407D02*
X0063367Y0032407D01*
X0090187Y0027692D02*
X0369493Y0027692D01*
X0368707Y0026906D02*
X0090074Y0026906D01*
X0090144Y0026120D02*
X0368323Y0026120D01*
X0368061Y0025334D02*
X0090187Y0025334D01*
X0090187Y0024548D02*
X0368061Y0024548D01*
X0368186Y0023762D02*
X0089536Y0023762D01*
X0057691Y0041052D02*
X0350360Y0041052D01*
X0350486Y0041838D02*
X0057175Y0041838D01*
X0050467Y0052055D02*
X0084868Y0052055D01*
X0085133Y0052841D02*
X0049951Y0052841D01*
X0049435Y0053627D02*
X0085919Y0053627D01*
X0087833Y0053627D02*
X0088525Y0053627D01*
X0090440Y0053627D02*
X0136431Y0053627D01*
X0136433Y0054413D02*
X0048919Y0054413D01*
X0048403Y0055199D02*
X0137219Y0055199D01*
X0138274Y0055984D02*
X0058176Y0055984D01*
X0058691Y0056770D02*
X0067987Y0056770D01*
X0067201Y0057556D02*
X0058691Y0057556D01*
X0058512Y0058342D02*
X0067152Y0058342D01*
X0067152Y0059128D02*
X0058691Y0059128D01*
X0058691Y0059914D02*
X0067797Y0059914D01*
X0070332Y0056770D02*
X0070593Y0056770D01*
X0072938Y0056770D02*
X0138791Y0056770D01*
X0136431Y0052841D02*
X0091226Y0052841D01*
X0103877Y0044196D02*
X0350897Y0044196D01*
X0350345Y0043410D02*
X0103348Y0043410D01*
X0102562Y0042624D02*
X0350345Y0042624D01*
X0354360Y0042624D02*
X0361992Y0042624D01*
X0402329Y0030835D02*
X0403896Y0030835D01*
X0403557Y0031621D02*
X0402655Y0031621D01*
X0401669Y0030049D02*
X0404512Y0030049D01*
X0405708Y0029263D02*
X0400389Y0029263D01*
X0402845Y0027692D02*
X0403435Y0027692D01*
X0403435Y0026906D02*
X0402845Y0026906D01*
X0402845Y0026120D02*
X0403435Y0026120D01*
X0403435Y0025334D02*
X0402845Y0025334D01*
X0406110Y0026906D02*
X0408077Y0026906D01*
X0407693Y0026120D02*
X0406537Y0026120D01*
X0406753Y0025334D02*
X0407431Y0025334D01*
X0408863Y0027692D02*
X0405351Y0027692D01*
X0425291Y0030049D02*
X0428233Y0030049D01*
X0427573Y0030835D02*
X0425951Y0030835D01*
X0426277Y0031621D02*
X0427247Y0031621D01*
X0427116Y0032407D02*
X0426408Y0032407D01*
X0426408Y0033193D02*
X0427116Y0033193D01*
X0427371Y0033979D02*
X0426152Y0033979D01*
X0425777Y0034765D02*
X0427747Y0034765D01*
X0428533Y0035551D02*
X0424991Y0035551D01*
X0407372Y0035551D02*
X0406782Y0035551D01*
X0406782Y0034765D02*
X0407372Y0034765D01*
X0407372Y0033979D02*
X0406782Y0033979D01*
X0385180Y0027692D02*
X0381669Y0027692D01*
X0369163Y0022190D02*
X0248809Y0022190D01*
X0248809Y0022976D02*
X0368511Y0022976D01*
X0404984Y0009616D02*
X0500902Y0009616D01*
X0494370Y0021404D02*
X0493013Y0021404D01*
X0492334Y0022190D02*
X0495147Y0022190D01*
X0494496Y0022976D02*
X0492944Y0022976D01*
X0493277Y0023762D02*
X0494170Y0023762D01*
X0490049Y0023762D02*
X0489459Y0023762D01*
X0489459Y0022976D02*
X0490049Y0022976D01*
X0490049Y0022190D02*
X0489459Y0022190D01*
X0489459Y0021404D02*
X0490049Y0021404D01*
X0487174Y0022190D02*
X0484361Y0022190D01*
X0485012Y0022976D02*
X0486564Y0022976D01*
X0486231Y0023762D02*
X0485338Y0023762D01*
X0489459Y0025334D02*
X0490049Y0025334D01*
X0490049Y0026120D02*
X0489459Y0026120D01*
X0489459Y0026906D02*
X0490049Y0026906D01*
X0490049Y0027692D02*
X0489459Y0027692D01*
X0488283Y0030049D02*
X0491225Y0030049D01*
X0490565Y0030835D02*
X0488943Y0030835D01*
X0489269Y0031621D02*
X0490239Y0031621D01*
X0490108Y0032407D02*
X0489400Y0032407D01*
X0489400Y0033193D02*
X0490108Y0033193D01*
X0490364Y0033979D02*
X0489144Y0033979D01*
X0488769Y0034765D02*
X0490739Y0034765D01*
X0491525Y0035551D02*
X0487983Y0035551D01*
X0483763Y0039480D02*
X0483204Y0039480D01*
X0482977Y0040266D02*
X0480848Y0040266D01*
X0481300Y0041052D02*
X0482536Y0041052D01*
X0482234Y0041838D02*
X0481537Y0041838D01*
X0481343Y0039480D02*
X0480010Y0039480D01*
X0490187Y0046554D02*
X0523273Y0046554D01*
X0470665Y0055199D02*
X0470502Y0055199D01*
X0468312Y0059914D02*
X0467692Y0059914D01*
X0463394Y0061486D02*
X0460252Y0061486D01*
X0460202Y0062272D02*
X0462943Y0062272D01*
X0462943Y0063058D02*
X0459416Y0063058D01*
X0457072Y0063058D02*
X0022142Y0063058D01*
X0021356Y0063844D02*
X0044182Y0063844D01*
X0044706Y0063319D02*
X0046369Y0063319D01*
X0046841Y0063791D01*
X0047312Y0063319D01*
X0048975Y0063319D01*
X0050152Y0064496D01*
X0050152Y0066159D01*
X0048975Y0067335D01*
X0047312Y0067335D01*
X0046841Y0066864D01*
X0046369Y0067335D01*
X0044706Y0067335D01*
X0043530Y0066159D01*
X0043530Y0064496D01*
X0044706Y0063319D01*
X0043758Y0062272D02*
X0456286Y0062272D01*
X0456236Y0061486D02*
X0057974Y0061486D01*
X0055392Y0061486D02*
X0044274Y0061486D01*
X0044786Y0060826D02*
X0044786Y0060826D01*
X0044786Y0060826D01*
X0044854Y0060700D02*
X0054675Y0060700D01*
X0054675Y0059914D02*
X0045306Y0059914D01*
X0045822Y0059128D02*
X0054675Y0059128D01*
X0054855Y0058342D02*
X0046338Y0058342D01*
X0046855Y0057556D02*
X0054675Y0057556D01*
X0054675Y0056770D02*
X0047371Y0056770D01*
X0047887Y0055984D02*
X0055190Y0055984D01*
X0055993Y0063844D02*
X0049500Y0063844D01*
X0050152Y0064630D02*
X0055341Y0064630D01*
X0055341Y0065415D02*
X0050152Y0065415D01*
X0050109Y0066201D02*
X0055383Y0066201D01*
X0056169Y0066987D02*
X0049323Y0066987D01*
X0046964Y0066987D02*
X0046717Y0066987D01*
X0044358Y0066987D02*
X0041695Y0066987D01*
X0039782Y0066987D02*
X0039135Y0066987D01*
X0037223Y0066987D02*
X0018212Y0066987D01*
X0018998Y0066201D02*
X0043572Y0066201D01*
X0043530Y0065415D02*
X0019784Y0065415D01*
X0020570Y0064630D02*
X0043530Y0064630D01*
X0042746Y0069345D02*
X0491164Y0069345D01*
X0491481Y0069028D02*
X0493145Y0069028D01*
X0494321Y0070204D01*
X0494321Y0071868D01*
X0493145Y0073044D01*
X0491481Y0073044D01*
X0490305Y0071868D01*
X0490305Y0070204D01*
X0491481Y0069028D01*
X0490379Y0070131D02*
X0042317Y0070131D01*
X0036600Y0070131D02*
X0015068Y0070131D01*
X0014557Y0070917D02*
X0222857Y0070917D01*
X0220960Y0071703D02*
X0014557Y0071703D01*
X0014557Y0072489D02*
X0219874Y0072489D01*
X0219088Y0073275D02*
X0014557Y0073275D01*
X0014557Y0074060D02*
X0022120Y0074060D01*
X0022388Y0073949D02*
X0024049Y0073949D01*
X0025583Y0074585D01*
X0026756Y0075759D01*
X0027392Y0077292D01*
X0027392Y0078953D01*
X0026756Y0080486D01*
X0025583Y0081660D01*
X0024049Y0082296D01*
X0022388Y0082296D01*
X0020855Y0081660D01*
X0019681Y0080486D01*
X0019045Y0078953D01*
X0019045Y0077292D01*
X0019681Y0075759D01*
X0020855Y0074585D01*
X0022388Y0073949D01*
X0024317Y0074060D02*
X0120545Y0074060D01*
X0119018Y0074846D02*
X0025844Y0074846D01*
X0026630Y0075632D02*
X0099939Y0075632D01*
X0099213Y0076418D02*
X0048763Y0076418D01*
X0049242Y0077204D02*
X0098887Y0077204D01*
X0098966Y0079230D02*
X0098460Y0079737D01*
X0096796Y0079737D01*
X0095970Y0078910D01*
X0092200Y0078910D01*
X0091767Y0079343D01*
X0090103Y0079343D01*
X0089670Y0078910D01*
X0086491Y0078910D01*
X0086058Y0079343D01*
X0084395Y0079343D01*
X0083962Y0078910D01*
X0080586Y0078910D01*
X0080153Y0079343D01*
X0078489Y0079343D01*
X0078056Y0078910D01*
X0074680Y0078910D01*
X0074247Y0079343D01*
X0072584Y0079343D01*
X0072151Y0078910D01*
X0068775Y0078910D01*
X0068342Y0079343D01*
X0066678Y0079343D01*
X0066245Y0078910D01*
X0050861Y0078910D01*
X0050625Y0079146D01*
X0048962Y0079146D01*
X0048809Y0078994D01*
X0048066Y0079737D01*
X0046683Y0079737D01*
X0046683Y0079742D01*
X0045507Y0080918D01*
X0043844Y0080918D01*
X0042667Y0079742D01*
X0042667Y0079146D01*
X0041678Y0079146D01*
X0041442Y0078910D01*
X0039754Y0078910D01*
X0036211Y0082453D01*
X0031683Y0082453D01*
X0026998Y0087138D01*
X0026998Y0088206D01*
X0026762Y0088442D01*
X0026762Y0090721D01*
X0110537Y0090721D01*
X0109990Y0090175D01*
X0109990Y0088511D01*
X0111166Y0087335D01*
X0112830Y0087335D01*
X0114006Y0088511D01*
X0114006Y0090175D01*
X0113460Y0090721D01*
X0264951Y0090721D01*
X0264951Y0082453D01*
X0260620Y0078123D01*
X0231919Y0078123D01*
X0231919Y0079579D01*
X0230805Y0082271D01*
X0228745Y0084330D01*
X0226053Y0085445D01*
X0223140Y0085445D01*
X0220448Y0084330D01*
X0218389Y0082271D01*
X0217274Y0079579D01*
X0217274Y0078123D01*
X0214203Y0078123D01*
X0214203Y0079742D01*
X0213027Y0080918D01*
X0211363Y0080918D01*
X0210187Y0079742D01*
X0210187Y0078123D01*
X0203573Y0078123D01*
X0203573Y0078757D01*
X0203087Y0079929D01*
X0202190Y0080826D01*
X0201909Y0080942D01*
X0202392Y0081425D01*
X0202392Y0083088D01*
X0201216Y0084264D01*
X0199552Y0084264D01*
X0198376Y0083088D01*
X0198376Y0081425D01*
X0198858Y0080942D01*
X0198578Y0080826D01*
X0197680Y0079929D01*
X0197195Y0078757D01*
X0197195Y0078246D01*
X0196294Y0079146D01*
X0194631Y0079146D01*
X0193607Y0078123D01*
X0191412Y0078123D01*
X0190389Y0079146D01*
X0188725Y0079146D01*
X0187702Y0078123D01*
X0185507Y0078123D01*
X0184483Y0079146D01*
X0182820Y0079146D01*
X0181796Y0078123D01*
X0179601Y0078123D01*
X0178578Y0079146D01*
X0176914Y0079146D01*
X0175891Y0078123D01*
X0173696Y0078123D01*
X0172672Y0079146D01*
X0171009Y0079146D01*
X0169985Y0078123D01*
X0167790Y0078123D01*
X0166767Y0079146D01*
X0165103Y0079146D01*
X0164080Y0078123D01*
X0161885Y0078123D01*
X0160861Y0079146D01*
X0159198Y0079146D01*
X0158174Y0078123D01*
X0152042Y0078123D01*
X0152195Y0078275D01*
X0152195Y0079938D01*
X0151019Y0081115D01*
X0149355Y0081115D01*
X0148809Y0080568D01*
X0148263Y0081115D01*
X0146600Y0081115D01*
X0145423Y0079938D01*
X0145423Y0079427D01*
X0144720Y0080130D01*
X0143056Y0080130D01*
X0142352Y0079427D01*
X0142352Y0079742D01*
X0141176Y0080918D01*
X0139513Y0080918D01*
X0138908Y0080312D01*
X0138263Y0080957D01*
X0136600Y0080957D01*
X0136521Y0080878D01*
X0135783Y0080878D01*
X0135704Y0080957D01*
X0134040Y0080957D01*
X0133962Y0080878D01*
X0133223Y0080878D01*
X0133145Y0080957D01*
X0131481Y0080957D01*
X0130305Y0079781D01*
X0130305Y0079697D01*
X0129518Y0078910D01*
X0125817Y0078910D01*
X0125817Y0078953D01*
X0125182Y0080486D01*
X0124008Y0081660D01*
X0122474Y0082296D01*
X0120814Y0082296D01*
X0119280Y0081660D01*
X0118106Y0080486D01*
X0117471Y0078953D01*
X0117471Y0078910D01*
X0105084Y0078910D01*
X0104662Y0079929D01*
X0103765Y0080826D01*
X0102593Y0081311D01*
X0101324Y0081311D01*
X0100152Y0080826D01*
X0099255Y0079929D01*
X0098966Y0079230D01*
X0099103Y0079562D02*
X0098635Y0079562D01*
X0099674Y0080348D02*
X0046077Y0080348D01*
X0048241Y0079562D02*
X0096622Y0079562D01*
X0100895Y0081134D02*
X0037530Y0081134D01*
X0036744Y0081920D02*
X0039023Y0081920D01*
X0038534Y0082409D02*
X0039710Y0081233D01*
X0041373Y0081233D01*
X0042549Y0082409D01*
X0042549Y0084072D01*
X0041373Y0085248D01*
X0039710Y0085248D01*
X0038534Y0084072D01*
X0038534Y0082409D01*
X0038534Y0082705D02*
X0031431Y0082705D01*
X0030645Y0083491D02*
X0038534Y0083491D01*
X0038739Y0084277D02*
X0029859Y0084277D01*
X0029073Y0085063D02*
X0039524Y0085063D01*
X0041558Y0085063D02*
X0101919Y0085063D01*
X0101919Y0085450D02*
X0101919Y0083787D01*
X0103096Y0082611D01*
X0104759Y0082611D01*
X0105935Y0083787D01*
X0105935Y0085450D01*
X0104759Y0086626D01*
X0103096Y0086626D01*
X0101919Y0085450D01*
X0102318Y0085849D02*
X0028287Y0085849D01*
X0027501Y0086635D02*
X0264951Y0086635D01*
X0264951Y0085849D02*
X0105536Y0085849D01*
X0105935Y0085063D02*
X0222217Y0085063D01*
X0220395Y0084277D02*
X0117344Y0084277D01*
X0116767Y0084855D02*
X0117943Y0083679D01*
X0117943Y0082015D01*
X0116767Y0080839D01*
X0115103Y0080839D01*
X0113927Y0082015D01*
X0113927Y0083679D01*
X0115103Y0084855D01*
X0116767Y0084855D01*
X0117943Y0083491D02*
X0198779Y0083491D01*
X0198376Y0082705D02*
X0117943Y0082705D01*
X0117847Y0081920D02*
X0119906Y0081920D01*
X0118753Y0081134D02*
X0117061Y0081134D01*
X0118048Y0080348D02*
X0104243Y0080348D01*
X0104814Y0079562D02*
X0117723Y0079562D01*
X0117507Y0077204D02*
X0105030Y0077204D01*
X0104705Y0076418D02*
X0117833Y0076418D01*
X0118232Y0075632D02*
X0103978Y0075632D01*
X0103022Y0081134D02*
X0106738Y0081134D01*
X0107033Y0080839D02*
X0108696Y0080839D01*
X0109872Y0082015D01*
X0109872Y0083679D01*
X0108696Y0084855D01*
X0107033Y0084855D01*
X0105856Y0083679D01*
X0105856Y0082015D01*
X0107033Y0080839D01*
X0105952Y0081920D02*
X0042060Y0081920D01*
X0042549Y0082705D02*
X0103001Y0082705D01*
X0102215Y0083491D02*
X0042549Y0083491D01*
X0042344Y0084277D02*
X0101919Y0084277D01*
X0104854Y0082705D02*
X0105856Y0082705D01*
X0105856Y0083491D02*
X0105640Y0083491D01*
X0105935Y0084277D02*
X0106455Y0084277D01*
X0109273Y0084277D02*
X0114526Y0084277D01*
X0113927Y0083491D02*
X0109872Y0083491D01*
X0109872Y0082705D02*
X0113927Y0082705D01*
X0114023Y0081920D02*
X0109776Y0081920D01*
X0108991Y0081134D02*
X0114809Y0081134D01*
X0123382Y0081920D02*
X0198376Y0081920D01*
X0198667Y0081134D02*
X0124534Y0081134D01*
X0125239Y0080348D02*
X0130872Y0080348D01*
X0130170Y0079562D02*
X0125565Y0079562D01*
X0125780Y0077204D02*
X0139211Y0077204D01*
X0138425Y0077990D02*
X0130602Y0077990D01*
X0131388Y0078776D02*
X0138277Y0078776D01*
X0138872Y0080348D02*
X0138943Y0080348D01*
X0141746Y0080348D02*
X0145833Y0080348D01*
X0145423Y0079562D02*
X0145288Y0079562D01*
X0142488Y0079562D02*
X0142352Y0079562D01*
X0142753Y0076418D02*
X0125455Y0076418D01*
X0125055Y0075632D02*
X0198364Y0075632D01*
X0197638Y0076418D02*
X0145023Y0076418D01*
X0152195Y0078776D02*
X0158828Y0078776D01*
X0161231Y0078776D02*
X0164733Y0078776D01*
X0167137Y0078776D02*
X0170639Y0078776D01*
X0173043Y0078776D02*
X0176544Y0078776D01*
X0178948Y0078776D02*
X0182450Y0078776D01*
X0184854Y0078776D02*
X0188355Y0078776D01*
X0190759Y0078776D02*
X0194261Y0078776D01*
X0196665Y0078776D02*
X0197203Y0078776D01*
X0197528Y0079562D02*
X0152195Y0079562D01*
X0151786Y0080348D02*
X0198099Y0080348D01*
X0202101Y0081134D02*
X0217918Y0081134D01*
X0218243Y0081920D02*
X0202392Y0081920D01*
X0202392Y0082705D02*
X0218823Y0082705D01*
X0219609Y0083491D02*
X0201988Y0083491D01*
X0202669Y0080348D02*
X0210793Y0080348D01*
X0210187Y0079562D02*
X0203239Y0079562D01*
X0203565Y0078776D02*
X0210187Y0078776D01*
X0213597Y0080348D02*
X0217592Y0080348D01*
X0217274Y0079562D02*
X0214203Y0079562D01*
X0214203Y0078776D02*
X0217274Y0078776D01*
X0217376Y0076418D02*
X0203130Y0076418D01*
X0202404Y0075632D02*
X0217702Y0075632D01*
X0218027Y0074846D02*
X0124269Y0074846D01*
X0122742Y0074060D02*
X0218353Y0074060D01*
X0226336Y0070917D02*
X0490305Y0070917D01*
X0490305Y0071703D02*
X0383812Y0071703D01*
X0384282Y0072173D02*
X0384282Y0073836D01*
X0383932Y0074185D01*
X0384282Y0074535D01*
X0384282Y0076198D01*
X0383105Y0077374D01*
X0381442Y0077374D01*
X0381093Y0077025D01*
X0380743Y0077374D01*
X0379080Y0077374D01*
X0378730Y0077025D01*
X0378381Y0077374D01*
X0376718Y0077374D01*
X0376368Y0077025D01*
X0376019Y0077374D01*
X0374355Y0077374D01*
X0374006Y0077025D01*
X0373657Y0077374D01*
X0371993Y0077374D01*
X0370817Y0076198D01*
X0370817Y0074535D01*
X0371166Y0074186D01*
X0370817Y0073836D01*
X0370817Y0072173D01*
X0371993Y0070997D01*
X0373657Y0070997D01*
X0374006Y0071346D01*
X0374355Y0070997D01*
X0376019Y0070997D01*
X0376368Y0071346D01*
X0376718Y0070997D01*
X0378381Y0070997D01*
X0378730Y0071346D01*
X0379080Y0070997D01*
X0380743Y0070997D01*
X0381093Y0071346D01*
X0381442Y0070997D01*
X0383105Y0070997D01*
X0384282Y0072173D01*
X0384282Y0072489D02*
X0490926Y0072489D01*
X0493700Y0072489D02*
X0513369Y0072489D01*
X0513721Y0072343D02*
X0515394Y0072343D01*
X0516939Y0072983D01*
X0518122Y0074166D01*
X0518762Y0075711D01*
X0518762Y0077384D01*
X0518122Y0078929D01*
X0516939Y0080112D01*
X0515394Y0080752D01*
X0513721Y0080752D01*
X0512175Y0080112D01*
X0510993Y0078929D01*
X0510352Y0077384D01*
X0510352Y0075711D01*
X0510993Y0074166D01*
X0512175Y0072983D01*
X0513721Y0072343D01*
X0515745Y0072489D02*
X0537786Y0072489D01*
X0537786Y0073275D02*
X0517230Y0073275D01*
X0518016Y0074060D02*
X0537786Y0074060D01*
X0537786Y0074846D02*
X0518404Y0074846D01*
X0518729Y0075632D02*
X0537786Y0075632D01*
X0537786Y0076418D02*
X0518762Y0076418D01*
X0518762Y0077204D02*
X0537786Y0077204D01*
X0537786Y0077990D02*
X0518511Y0077990D01*
X0518185Y0078776D02*
X0537786Y0078776D01*
X0537786Y0079562D02*
X0517489Y0079562D01*
X0516370Y0080348D02*
X0537786Y0080348D01*
X0537786Y0081134D02*
X0463415Y0081134D01*
X0463415Y0081710D02*
X0463415Y0080047D01*
X0462239Y0078871D01*
X0460576Y0078871D01*
X0459400Y0080047D01*
X0459400Y0081710D01*
X0460576Y0082886D01*
X0462239Y0082886D01*
X0463415Y0081710D01*
X0463206Y0081920D02*
X0537786Y0081920D01*
X0537786Y0082705D02*
X0516432Y0082705D01*
X0516198Y0082586D02*
X0516798Y0082892D01*
X0517342Y0083287D01*
X0517818Y0083763D01*
X0518213Y0084307D01*
X0518519Y0084907D01*
X0518727Y0085547D01*
X0518823Y0086154D01*
X0514951Y0086154D01*
X0514951Y0082282D01*
X0515558Y0082378D01*
X0516198Y0082586D01*
X0514951Y0082705D02*
X0514163Y0082705D01*
X0514163Y0083491D02*
X0514951Y0083491D01*
X0514951Y0084277D02*
X0514163Y0084277D01*
X0514163Y0085063D02*
X0514951Y0085063D01*
X0514951Y0085849D02*
X0514163Y0085849D01*
X0514163Y0086635D02*
X0482209Y0086635D01*
X0482707Y0087133D02*
X0481531Y0085957D01*
X0479867Y0085957D01*
X0478691Y0087133D01*
X0478691Y0088797D01*
X0479867Y0089973D01*
X0481531Y0089973D01*
X0482707Y0088797D01*
X0482707Y0087133D01*
X0482707Y0087421D02*
X0510367Y0087421D01*
X0510605Y0088207D02*
X0482707Y0088207D01*
X0482511Y0088993D02*
X0511050Y0088993D01*
X0511743Y0089779D02*
X0481725Y0089779D01*
X0479673Y0089779D02*
X0438219Y0089779D01*
X0438219Y0088993D02*
X0478887Y0088993D01*
X0478691Y0088207D02*
X0477194Y0088207D01*
X0477589Y0087812D02*
X0476412Y0088989D01*
X0474749Y0088989D01*
X0473573Y0087812D01*
X0473573Y0086149D01*
X0474749Y0084973D01*
X0476412Y0084973D01*
X0477589Y0086149D01*
X0477589Y0087812D01*
X0477589Y0087421D02*
X0478691Y0087421D01*
X0479189Y0086635D02*
X0477589Y0086635D01*
X0477289Y0085849D02*
X0510340Y0085849D01*
X0510545Y0085063D02*
X0476503Y0085063D01*
X0474659Y0085063D02*
X0454062Y0085063D01*
X0453972Y0084973D02*
X0455148Y0086149D01*
X0455148Y0087812D01*
X0453972Y0088989D01*
X0452308Y0088989D01*
X0451132Y0087812D01*
X0451132Y0086149D01*
X0452308Y0084973D01*
X0453972Y0084973D01*
X0454848Y0085849D02*
X0473873Y0085849D01*
X0473573Y0086635D02*
X0455148Y0086635D01*
X0455148Y0087421D02*
X0473573Y0087421D01*
X0473967Y0088207D02*
X0454753Y0088207D01*
X0451526Y0088207D02*
X0437914Y0088207D01*
X0437128Y0087421D02*
X0451132Y0087421D01*
X0451132Y0086635D02*
X0344912Y0086635D01*
X0344912Y0087104D02*
X0343735Y0088280D01*
X0342072Y0088280D01*
X0340896Y0087104D01*
X0340896Y0085440D01*
X0341285Y0085052D01*
X0340896Y0084663D01*
X0340896Y0082999D01*
X0342072Y0081823D01*
X0343735Y0081823D01*
X0344912Y0082999D01*
X0344912Y0084663D01*
X0344523Y0085052D01*
X0344912Y0085440D01*
X0344912Y0087104D01*
X0344594Y0087421D02*
X0435293Y0087421D01*
X0434507Y0088207D02*
X0343808Y0088207D01*
X0341999Y0088207D02*
X0266368Y0088207D01*
X0266368Y0088993D02*
X0434203Y0088993D01*
X0434203Y0089779D02*
X0266368Y0089779D01*
X0266368Y0090565D02*
X0434593Y0090565D01*
X0437829Y0090565D02*
X0513086Y0090565D01*
X0516028Y0090565D02*
X0537786Y0090565D01*
X0537786Y0089779D02*
X0517372Y0089779D01*
X0518065Y0088993D02*
X0537786Y0088993D01*
X0537786Y0088207D02*
X0518509Y0088207D01*
X0518747Y0087421D02*
X0537786Y0087421D01*
X0537786Y0086635D02*
X0514951Y0086635D01*
X0518775Y0085849D02*
X0537786Y0085849D01*
X0537786Y0085063D02*
X0518570Y0085063D01*
X0518192Y0084277D02*
X0537786Y0084277D01*
X0537786Y0083491D02*
X0517546Y0083491D01*
X0512682Y0082705D02*
X0462420Y0082705D01*
X0460395Y0082705D02*
X0344618Y0082705D01*
X0344912Y0083491D02*
X0511568Y0083491D01*
X0510923Y0084277D02*
X0344912Y0084277D01*
X0344534Y0085063D02*
X0452218Y0085063D01*
X0451432Y0085849D02*
X0344912Y0085849D01*
X0341273Y0085063D02*
X0266368Y0085063D01*
X0266368Y0084277D02*
X0340896Y0084277D01*
X0340896Y0083491D02*
X0266368Y0083491D01*
X0266368Y0082705D02*
X0341190Y0082705D01*
X0341976Y0081920D02*
X0266368Y0081920D01*
X0265636Y0081134D02*
X0459400Y0081134D01*
X0459400Y0080348D02*
X0264850Y0080348D01*
X0264064Y0079562D02*
X0459885Y0079562D01*
X0462931Y0079562D02*
X0511625Y0079562D01*
X0510929Y0078776D02*
X0263278Y0078776D01*
X0262492Y0077990D02*
X0510603Y0077990D01*
X0510352Y0077204D02*
X0383276Y0077204D01*
X0384062Y0076418D02*
X0432848Y0076418D01*
X0433214Y0076784D02*
X0432037Y0075608D01*
X0432037Y0073944D01*
X0433214Y0072768D01*
X0434877Y0072768D01*
X0436053Y0073944D01*
X0436053Y0075608D01*
X0434877Y0076784D01*
X0433214Y0076784D01*
X0432062Y0075632D02*
X0384282Y0075632D01*
X0384282Y0074846D02*
X0432037Y0074846D01*
X0432037Y0074060D02*
X0384057Y0074060D01*
X0384282Y0073275D02*
X0432707Y0073275D01*
X0435383Y0073275D02*
X0511884Y0073275D01*
X0511098Y0074060D02*
X0436053Y0074060D01*
X0436053Y0074846D02*
X0510711Y0074846D01*
X0510385Y0075632D02*
X0436029Y0075632D01*
X0435243Y0076418D02*
X0510352Y0076418D01*
X0512744Y0080348D02*
X0463415Y0080348D01*
X0459609Y0081920D02*
X0343832Y0081920D01*
X0340896Y0085849D02*
X0266368Y0085849D01*
X0266368Y0086635D02*
X0340896Y0086635D01*
X0341213Y0087421D02*
X0266368Y0087421D01*
X0264951Y0087421D02*
X0112916Y0087421D01*
X0113702Y0088207D02*
X0264951Y0088207D01*
X0264951Y0088993D02*
X0114006Y0088993D01*
X0114006Y0089779D02*
X0264951Y0089779D01*
X0264951Y0090565D02*
X0113616Y0090565D01*
X0110380Y0090565D02*
X0026762Y0090565D01*
X0026762Y0089779D02*
X0109990Y0089779D01*
X0109990Y0088993D02*
X0026762Y0088993D01*
X0026997Y0088207D02*
X0110295Y0088207D01*
X0111081Y0087421D02*
X0026998Y0087421D01*
X0025345Y0087421D02*
X0020706Y0087421D01*
X0019920Y0086635D02*
X0025497Y0086635D01*
X0026283Y0085849D02*
X0019134Y0085849D01*
X0018348Y0085063D02*
X0027069Y0085063D01*
X0027855Y0084277D02*
X0017562Y0084277D01*
X0016776Y0083491D02*
X0028641Y0083491D01*
X0029426Y0082705D02*
X0015991Y0082705D01*
X0015205Y0081920D02*
X0021480Y0081920D01*
X0020328Y0081134D02*
X0014557Y0081134D01*
X0014557Y0080348D02*
X0019623Y0080348D01*
X0019298Y0079562D02*
X0014557Y0079562D01*
X0014557Y0078776D02*
X0019045Y0078776D01*
X0019045Y0077990D02*
X0014557Y0077990D01*
X0014557Y0077204D02*
X0019082Y0077204D01*
X0019407Y0076418D02*
X0014557Y0076418D01*
X0014557Y0075632D02*
X0019807Y0075632D01*
X0020593Y0074846D02*
X0014557Y0074846D01*
X0027030Y0076418D02*
X0045705Y0076418D01*
X0043542Y0077204D02*
X0027355Y0077204D01*
X0027392Y0077990D02*
X0038670Y0077990D01*
X0037884Y0078776D02*
X0027392Y0078776D01*
X0027139Y0079562D02*
X0037098Y0079562D01*
X0036312Y0080348D02*
X0026814Y0080348D01*
X0026109Y0081134D02*
X0030998Y0081134D01*
X0030212Y0081920D02*
X0024957Y0081920D01*
X0038316Y0080348D02*
X0043274Y0080348D01*
X0042667Y0079562D02*
X0039102Y0079562D01*
X0036171Y0069345D02*
X0015854Y0069345D01*
X0016640Y0068559D02*
X0036171Y0068559D01*
X0036437Y0067773D02*
X0017426Y0067773D01*
X0058528Y0066987D02*
X0058775Y0066987D01*
X0025345Y0088207D02*
X0021492Y0088207D01*
X0022278Y0088993D02*
X0025148Y0088993D01*
X0025148Y0089779D02*
X0023064Y0089779D01*
X0023850Y0090565D02*
X0025345Y0090565D01*
X0162859Y0066987D02*
X0163106Y0066987D01*
X0186481Y0066987D02*
X0186728Y0066987D01*
X0228233Y0071703D02*
X0371287Y0071703D01*
X0370817Y0072489D02*
X0229319Y0072489D01*
X0230105Y0073275D02*
X0370817Y0073275D01*
X0371041Y0074060D02*
X0230840Y0074060D01*
X0231166Y0074846D02*
X0370817Y0074846D01*
X0370817Y0075632D02*
X0231491Y0075632D01*
X0231817Y0076418D02*
X0371037Y0076418D01*
X0371823Y0077204D02*
X0261706Y0077204D01*
X0261274Y0078776D02*
X0231919Y0078776D01*
X0231919Y0079562D02*
X0262060Y0079562D01*
X0262845Y0080348D02*
X0231601Y0080348D01*
X0231275Y0081134D02*
X0263631Y0081134D01*
X0264417Y0081920D02*
X0230950Y0081920D01*
X0230370Y0082705D02*
X0264951Y0082705D01*
X0264951Y0083491D02*
X0229584Y0083491D01*
X0228798Y0084277D02*
X0264951Y0084277D01*
X0264951Y0085063D02*
X0226976Y0085063D01*
X0373827Y0077204D02*
X0374185Y0077204D01*
X0376189Y0077204D02*
X0376547Y0077204D01*
X0378551Y0077204D02*
X0378909Y0077204D01*
X0380914Y0077204D02*
X0381272Y0077204D01*
X0442848Y0060700D02*
X0456236Y0060700D01*
X0456881Y0059914D02*
X0443337Y0059914D01*
X0493462Y0069345D02*
X0511408Y0069345D01*
X0512220Y0070131D02*
X0494248Y0070131D01*
X0494321Y0070917D02*
X0537786Y0070917D01*
X0537786Y0071703D02*
X0494321Y0071703D01*
X0516894Y0070131D02*
X0537786Y0070131D01*
X0537786Y0069345D02*
X0517706Y0069345D01*
X0518275Y0068559D02*
X0537786Y0068559D01*
X0537786Y0067773D02*
X0518601Y0067773D01*
X0518762Y0066987D02*
X0537786Y0066987D01*
X0537786Y0066201D02*
X0518762Y0066201D01*
X0518639Y0065415D02*
X0537786Y0065415D01*
X0537786Y0064630D02*
X0518314Y0064630D01*
X0517799Y0063844D02*
X0537786Y0063844D01*
X0537786Y0063058D02*
X0517014Y0063058D01*
X0492505Y0029263D02*
X0487003Y0029263D01*
X0486495Y0021404D02*
X0485139Y0021404D01*
D13*
X0483849Y0019855D03*
X0487786Y0019855D03*
X0491723Y0019855D03*
X0495660Y0019855D03*
X0479912Y0019855D03*
X0476368Y0019658D03*
X0461998Y0020052D03*
X0456289Y0023398D03*
X0446841Y0019658D03*
X0439951Y0021430D03*
X0437786Y0019855D03*
X0426762Y0019855D03*
X0420856Y0019461D03*
X0406880Y0019855D03*
X0389360Y0019658D03*
X0377549Y0019658D03*
X0373612Y0019658D03*
X0361801Y0019855D03*
X0355896Y0019855D03*
X0344085Y0019855D03*
X0332274Y0019855D03*
X0320463Y0019855D03*
X0308652Y0019855D03*
X0298809Y0019658D03*
X0295266Y0020052D03*
X0290541Y0020052D03*
X0286998Y0019658D03*
X0283455Y0020052D03*
X0278730Y0020052D03*
X0275187Y0019658D03*
X0271644Y0020052D03*
X0266919Y0020445D03*
X0263376Y0019658D03*
X0259833Y0020052D03*
X0255108Y0020052D03*
X0249597Y0020052D03*
X0253927Y0023201D03*
X0245660Y0024186D03*
X0237786Y0024186D03*
X0229912Y0024186D03*
X0222037Y0024186D03*
X0214163Y0024186D03*
X0206289Y0024186D03*
X0198415Y0024186D03*
X0190541Y0024186D03*
X0182667Y0024186D03*
X0174793Y0024186D03*
X0166919Y0024186D03*
X0159045Y0024186D03*
X0151171Y0024186D03*
X0143297Y0024186D03*
X0135423Y0024186D03*
X0127549Y0024186D03*
X0118100Y0024186D03*
X0103927Y0024186D03*
X0105896Y0028910D03*
X0103730Y0033634D03*
X0095856Y0037178D03*
X0088707Y0038493D03*
X0086864Y0036650D03*
X0085030Y0034776D03*
X0079518Y0035012D03*
X0069675Y0035012D03*
X0061998Y0035800D03*
X0072038Y0040130D03*
X0064557Y0041705D03*
X0077352Y0044264D03*
X0080896Y0040721D03*
X0088376Y0042689D03*
X0094675Y0045248D03*
X0090345Y0047414D03*
X0085423Y0049382D03*
X0086876Y0051745D03*
X0084833Y0053319D03*
X0089482Y0051745D03*
X0091526Y0053123D03*
X0099793Y0051548D03*
X0105502Y0054894D03*
X0098809Y0057256D03*
X0100384Y0060406D03*
X0091723Y0061784D03*
X0090541Y0058044D03*
X0084833Y0060012D03*
X0079321Y0061784D03*
X0071766Y0058437D03*
X0073809Y0057060D03*
X0069160Y0058437D03*
X0067116Y0057060D03*
X0062195Y0056666D03*
X0056683Y0057331D03*
X0056683Y0054894D03*
X0056683Y0059937D03*
X0056683Y0062374D03*
X0062195Y0061784D03*
X0059955Y0065327D03*
X0062116Y0066705D03*
X0057349Y0065327D03*
X0055187Y0066705D03*
X0050108Y0066902D03*
X0048144Y0065327D03*
X0045537Y0065327D03*
X0043612Y0066902D03*
X0040738Y0068871D03*
X0038179Y0068871D03*
X0030699Y0066508D03*
X0028140Y0066508D03*
X0025581Y0066508D03*
X0030699Y0063949D03*
X0017313Y0069067D03*
X0021644Y0072611D03*
X0028337Y0077926D03*
X0042510Y0077138D03*
X0044675Y0078910D03*
X0047234Y0077729D03*
X0049793Y0077138D03*
X0041919Y0072020D03*
X0067510Y0066705D03*
X0073415Y0066705D03*
X0079321Y0066705D03*
X0085226Y0066705D03*
X0091132Y0066705D03*
X0096644Y0066737D03*
X0103337Y0069264D03*
X0107667Y0067099D03*
X0115935Y0067099D03*
X0121683Y0068319D03*
X0124006Y0065130D03*
X0120069Y0060997D03*
X0110226Y0059225D03*
X0116526Y0053713D03*
X0111014Y0050760D03*
X0109179Y0049123D03*
X0107336Y0047280D03*
X0105502Y0045642D03*
X0110030Y0042689D03*
X0117510Y0044658D03*
X0123612Y0046823D03*
X0125447Y0048461D03*
X0127290Y0050304D03*
X0129124Y0051941D03*
X0136762Y0051902D03*
X0138439Y0053579D03*
X0140282Y0055422D03*
X0141959Y0057099D03*
X0149597Y0058123D03*
X0155108Y0060091D03*
X0160620Y0062453D03*
X0166723Y0060603D03*
X0171447Y0061981D03*
X0179518Y0062965D03*
X0176097Y0065327D03*
X0178140Y0066902D03*
X0173490Y0065327D03*
X0171447Y0066902D03*
X0166329Y0066902D03*
X0164286Y0065327D03*
X0161679Y0065327D03*
X0159636Y0066902D03*
X0154518Y0066902D03*
X0148612Y0066902D03*
X0146569Y0065327D03*
X0143963Y0065327D03*
X0141919Y0066902D03*
X0134675Y0073044D03*
X0134872Y0078949D03*
X0132313Y0078949D03*
X0137431Y0078949D03*
X0140345Y0078910D03*
X0143888Y0078123D03*
X0147431Y0079107D03*
X0150187Y0079107D03*
X0160030Y0077138D03*
X0165935Y0077138D03*
X0171841Y0077138D03*
X0177746Y0077138D03*
X0183652Y0077138D03*
X0189557Y0077138D03*
X0195463Y0077138D03*
X0212195Y0078910D03*
X0200384Y0082256D03*
X0201368Y0086193D03*
X0196447Y0089540D03*
X0186604Y0089540D03*
X0182667Y0089540D03*
X0133455Y0089540D03*
X0129518Y0089540D03*
X0125581Y0089540D03*
X0111998Y0089343D03*
X0098022Y0089540D03*
X0088179Y0089540D03*
X0084242Y0089540D03*
X0103927Y0084619D03*
X0107864Y0082847D03*
X0115935Y0082847D03*
X0097628Y0077729D03*
X0090935Y0077335D03*
X0085226Y0077335D03*
X0079321Y0077335D03*
X0073415Y0077335D03*
X0067510Y0077335D03*
X0040541Y0083241D03*
X0024990Y0087374D03*
X0027156Y0089343D03*
X0031093Y0089343D03*
X0035030Y0089343D03*
X0040935Y0089146D03*
X0021447Y0082847D03*
X0017313Y0082847D03*
X0050778Y0059422D03*
X0074203Y0051351D03*
X0079912Y0050957D03*
X0067510Y0048201D03*
X0062195Y0048792D03*
X0054321Y0048201D03*
X0090620Y0040406D03*
X0100187Y0040524D03*
X0108652Y0038359D03*
X0114360Y0038359D03*
X0122037Y0038359D03*
X0131880Y0038359D03*
X0145660Y0038359D03*
X0155108Y0038359D03*
X0162982Y0038359D03*
X0170856Y0038359D03*
X0178730Y0038359D03*
X0186604Y0038359D03*
X0194478Y0038359D03*
X0202352Y0038359D03*
X0210226Y0038359D03*
X0218100Y0038359D03*
X0225975Y0038359D03*
X0233849Y0038359D03*
X0241723Y0038359D03*
X0249597Y0038359D03*
X0257471Y0038359D03*
X0265345Y0038359D03*
X0275975Y0038162D03*
X0278337Y0034028D03*
X0283061Y0035406D03*
X0289360Y0037178D03*
X0292805Y0040623D03*
X0296152Y0043969D03*
X0285817Y0045445D03*
X0284636Y0040721D03*
X0275975Y0043083D03*
X0271250Y0043083D03*
X0261408Y0043083D03*
X0253534Y0043083D03*
X0245660Y0043083D03*
X0237786Y0043083D03*
X0229912Y0043083D03*
X0222037Y0043083D03*
X0214163Y0043083D03*
X0206289Y0043083D03*
X0198415Y0043083D03*
X0190541Y0043083D03*
X0182667Y0043083D03*
X0174793Y0043083D03*
X0166919Y0043083D03*
X0159045Y0043083D03*
X0151171Y0043949D03*
X0143297Y0047099D03*
X0135030Y0044264D03*
X0139557Y0043083D03*
X0127943Y0043083D03*
X0154085Y0049540D03*
X0155762Y0051217D03*
X0157605Y0053060D03*
X0159282Y0054737D03*
X0168100Y0054500D03*
X0174006Y0052926D03*
X0179045Y0052414D03*
X0178730Y0047808D03*
X0170856Y0047808D03*
X0162982Y0047808D03*
X0146053Y0052217D03*
X0131486Y0057060D03*
X0174597Y0059028D03*
X0181093Y0057256D03*
X0188573Y0057256D03*
X0196447Y0057256D03*
X0203534Y0057256D03*
X0210226Y0057256D03*
X0218100Y0057256D03*
X0222037Y0052532D03*
X0229912Y0052532D03*
X0233849Y0057256D03*
X0241723Y0057256D03*
X0245660Y0052532D03*
X0253534Y0052532D03*
X0257471Y0057256D03*
X0265345Y0057256D03*
X0271250Y0057256D03*
X0275975Y0057256D03*
X0284045Y0056075D03*
X0284833Y0060800D03*
X0275975Y0061981D03*
X0271250Y0061981D03*
X0261408Y0061981D03*
X0253534Y0061981D03*
X0245660Y0061981D03*
X0237786Y0061981D03*
X0229912Y0061981D03*
X0222037Y0061981D03*
X0214163Y0061981D03*
X0206289Y0061981D03*
X0198809Y0061981D03*
X0192313Y0063556D03*
X0188573Y0062178D03*
X0187908Y0065327D03*
X0189951Y0066902D03*
X0185301Y0065327D03*
X0183258Y0066902D03*
X0195778Y0066902D03*
X0206093Y0067493D03*
X0200108Y0070445D03*
X0213179Y0072414D03*
X0218100Y0066705D03*
X0225975Y0066705D03*
X0233849Y0066705D03*
X0241723Y0066705D03*
X0249597Y0066705D03*
X0257471Y0066705D03*
X0265345Y0066705D03*
X0274400Y0066902D03*
X0283652Y0065918D03*
X0291919Y0063556D03*
X0308849Y0060997D03*
X0299793Y0059225D03*
X0294282Y0057060D03*
X0291289Y0053319D03*
X0282864Y0051548D03*
X0288573Y0049382D03*
X0299498Y0047315D03*
X0309242Y0044264D03*
X0306093Y0040721D03*
X0313475Y0040032D03*
X0302943Y0037178D03*
X0300384Y0033044D03*
X0309931Y0030189D03*
X0317116Y0026154D03*
X0324892Y0030189D03*
X0336408Y0032060D03*
X0330404Y0035701D03*
X0344282Y0038359D03*
X0352352Y0037768D03*
X0352352Y0040205D03*
X0352352Y0042811D03*
X0352352Y0045248D03*
X0364163Y0044264D03*
X0359439Y0051351D03*
X0380699Y0055091D03*
X0374990Y0059225D03*
X0366132Y0059225D03*
X0356289Y0061587D03*
X0344478Y0065524D03*
X0338573Y0067296D03*
X0335226Y0067493D03*
X0326565Y0067296D03*
X0322628Y0060603D03*
X0331093Y0060800D03*
X0334045Y0058241D03*
X0336998Y0060800D03*
X0365148Y0066311D03*
X0375975Y0065918D03*
X0383849Y0060406D03*
X0391526Y0061587D03*
X0403730Y0061587D03*
X0412904Y0061587D03*
X0413967Y0066311D03*
X0425187Y0066311D03*
X0437392Y0064343D03*
X0441329Y0059380D03*
X0447234Y0057650D03*
X0449400Y0056075D03*
X0452156Y0056075D03*
X0451919Y0058674D03*
X0455108Y0058044D03*
X0458244Y0061390D03*
X0464951Y0062768D03*
X0463967Y0059225D03*
X0466723Y0058044D03*
X0469282Y0058044D03*
X0471841Y0056863D03*
X0468494Y0055288D03*
X0461998Y0054304D03*
X0481880Y0054697D03*
X0489754Y0054500D03*
X0503927Y0049776D03*
X0510226Y0049776D03*
X0510620Y0053319D03*
X0525187Y0050563D03*
X0527549Y0053319D03*
X0536211Y0061981D03*
X0501762Y0071036D03*
X0492313Y0071036D03*
X0489360Y0071430D03*
X0465345Y0076941D03*
X0461408Y0080878D03*
X0457274Y0084619D03*
X0453140Y0086981D03*
X0443297Y0086981D03*
X0436211Y0089343D03*
X0440935Y0081075D03*
X0448415Y0077335D03*
X0437392Y0073201D03*
X0434045Y0074776D03*
X0443297Y0072217D03*
X0453534Y0072217D03*
X0459242Y0072414D03*
X0448415Y0067099D03*
X0426368Y0060800D03*
X0432667Y0058437D03*
X0425187Y0056075D03*
X0417904Y0056863D03*
X0407471Y0056863D03*
X0398612Y0056469D03*
X0389951Y0056863D03*
X0389163Y0066311D03*
X0402352Y0066311D03*
X0405108Y0071430D03*
X0421447Y0071430D03*
X0385030Y0071430D03*
X0382274Y0073004D03*
X0379912Y0073004D03*
X0379912Y0075367D03*
X0382274Y0075367D03*
X0377549Y0075367D03*
X0375187Y0075367D03*
X0372825Y0075367D03*
X0372825Y0073004D03*
X0375187Y0073004D03*
X0377549Y0073004D03*
X0370463Y0079697D03*
X0367707Y0079697D03*
X0364951Y0079697D03*
X0362786Y0082060D03*
X0362786Y0084422D03*
X0352943Y0084422D03*
X0352943Y0082060D03*
X0350778Y0079697D03*
X0348022Y0079697D03*
X0345266Y0079697D03*
X0343100Y0081469D03*
X0341526Y0079697D03*
X0342904Y0077729D03*
X0341132Y0075839D03*
X0338770Y0075839D03*
X0355108Y0079697D03*
X0357864Y0079697D03*
X0360620Y0079697D03*
X0372825Y0084422D03*
X0342904Y0083831D03*
X0342904Y0086272D03*
X0329518Y0084422D03*
X0316526Y0083241D03*
X0308652Y0083241D03*
X0291329Y0080288D03*
X0288967Y0080288D03*
X0286604Y0080288D03*
X0281486Y0080288D03*
X0279124Y0080288D03*
X0276762Y0080288D03*
X0271644Y0080288D03*
X0269282Y0080288D03*
X0266919Y0080288D03*
X0261801Y0081272D03*
X0258652Y0081272D03*
X0255502Y0081272D03*
X0252352Y0081272D03*
X0249203Y0081272D03*
X0246053Y0081272D03*
X0244478Y0083241D03*
X0247628Y0083241D03*
X0250778Y0083241D03*
X0253927Y0083241D03*
X0257077Y0083241D03*
X0260226Y0083241D03*
X0263376Y0083241D03*
X0264163Y0077729D03*
X0264163Y0075367D03*
X0274203Y0075367D03*
X0274203Y0077729D03*
X0284045Y0077729D03*
X0284045Y0075367D03*
X0294085Y0075367D03*
X0293888Y0077729D03*
X0298219Y0075563D03*
X0296053Y0068871D03*
X0254321Y0072808D03*
X0249597Y0057256D03*
X0261408Y0052532D03*
X0271250Y0052532D03*
X0275975Y0052532D03*
X0275975Y0047808D03*
X0271250Y0047808D03*
X0265345Y0047808D03*
X0257471Y0047808D03*
X0249597Y0047808D03*
X0241723Y0047808D03*
X0233849Y0047808D03*
X0225975Y0047808D03*
X0218100Y0047808D03*
X0210226Y0047808D03*
X0202352Y0047808D03*
X0194478Y0047808D03*
X0186604Y0047808D03*
X0201368Y0052532D03*
X0212589Y0052532D03*
X0225975Y0057256D03*
X0237786Y0052532D03*
X0302845Y0050662D03*
X0307667Y0052532D03*
X0323120Y0047709D03*
X0318494Y0044461D03*
X0325384Y0041508D03*
X0338868Y0044560D03*
X0311506Y0035308D03*
X0294675Y0027926D03*
X0288967Y0027926D03*
X0283061Y0025760D03*
X0277746Y0025760D03*
X0271250Y0025367D03*
X0265345Y0024973D03*
X0260226Y0028319D03*
X0249597Y0028910D03*
X0253534Y0033634D03*
X0245660Y0033634D03*
X0237786Y0033634D03*
X0241723Y0028910D03*
X0233849Y0028910D03*
X0225975Y0028910D03*
X0229912Y0033634D03*
X0222037Y0033634D03*
X0214163Y0033634D03*
X0210226Y0028910D03*
X0202352Y0028910D03*
X0194478Y0028910D03*
X0190541Y0033634D03*
X0182667Y0033634D03*
X0178730Y0028910D03*
X0170856Y0028910D03*
X0166919Y0033634D03*
X0159045Y0033634D03*
X0155108Y0028910D03*
X0147234Y0028910D03*
X0151171Y0033634D03*
X0140541Y0033634D03*
X0139360Y0028910D03*
X0131486Y0028910D03*
X0123612Y0028910D03*
X0115738Y0028910D03*
X0116329Y0033634D03*
X0126762Y0033634D03*
X0095069Y0033634D03*
X0090738Y0028910D03*
X0088179Y0027851D03*
X0088179Y0025245D03*
X0085620Y0024186D03*
X0090738Y0024186D03*
X0077549Y0030288D03*
X0070266Y0024382D03*
X0162982Y0028910D03*
X0174793Y0033634D03*
X0186604Y0028910D03*
X0198415Y0033634D03*
X0206289Y0033634D03*
X0218100Y0028910D03*
X0261408Y0033634D03*
X0267313Y0033044D03*
X0274203Y0030485D03*
X0284833Y0031075D03*
X0329321Y0024973D03*
X0341919Y0026941D03*
X0352549Y0030485D03*
X0364163Y0030878D03*
X0363179Y0024973D03*
X0409478Y0039146D03*
X0425226Y0039146D03*
X0428376Y0035997D03*
X0418534Y0035209D03*
X0444912Y0036587D03*
X0458061Y0043477D03*
X0456486Y0045839D03*
X0440935Y0054304D03*
X0488179Y0046233D03*
X0482274Y0037571D03*
X0475975Y0036390D03*
X0475384Y0038949D03*
X0479518Y0028516D03*
X0456683Y0028319D03*
X0501762Y0081863D03*
X0505699Y0085997D03*
X0483652Y0087965D03*
X0480699Y0087965D03*
X0475581Y0086981D03*
X0536211Y0088752D03*
X0111801Y0076154D03*
M02*
