%
M48
M72
T01C0.0118
T02C0.0276
T03C0.0400
T04C0.0433
T05C0.0630
T06C0.0669
T07C0.0925
T08C0.1260
%
T01
X7027Y2438
X7755Y3029
X8818Y2785
X9074Y2891
X9507Y3363
X9586Y3718
X8871Y3849
X8686Y3665
X8503Y3478
X7952Y3501
X6968Y3501
X6200Y3580
X7204Y4013
X6456Y4171
X7735Y4426
X8090Y4072
X8838Y4269
X9468Y4525
X9034Y4741
X8542Y4938
X8688Y5174
X8483Y5332
X8948Y5174
X9153Y5312
X9979Y5155
X10550Y5489
X9881Y5726
X10038Y6041
X9172Y6178
X9054Y5804
X8483Y6001
X7932Y6178
X7177Y5844
X7381Y5706
X6916Y5844
X6712Y5706
X6219Y5667
X5668Y5733
X5668Y5489
X5668Y5994
X5668Y6237
X6219Y6178
X5995Y6533
X6212Y6671
X5735Y6533
X5519Y6671
X5011Y6690
X4814Y6533
X4554Y6533
X4361Y6690
X4074Y6887
X3818Y6887
X3070Y6651
X2814Y6651
X2558Y6651
X3070Y6395
X1731Y6907
X2164Y7261
X2834Y7793
X4251Y7714
X4468Y7891
X4723Y7773
X4979Y7714
X4192Y7202
X6751Y6671
X7342Y6671
X7932Y6671
X8523Y6671
X9113Y6671
X9664Y6674
X10334Y6926
X10767Y6710
X11594Y6710
X12168Y6832
X12401Y6513
X12007Y6100
X11023Y5922
X11653Y5371
X11101Y5076
X10918Y4912
X10734Y4728
X10550Y4564
X11003Y4269
X11751Y4466
X12361Y4682
X12545Y4846
X12729Y5030
X12912Y5194
X13676Y5190
X13844Y5358
X14028Y5542
X14196Y5710
X14960Y5812
X15511Y6009
X16062Y6245
X16672Y6060
X17145Y6198
X17952Y6297
X17610Y6533
X17814Y6690
X17349Y6533
X17145Y6690
X16633Y6690
X16429Y6533
X16168Y6533
X15964Y6690
X15452Y6690
X14861Y6690
X14657Y6533
X14396Y6533
X14192Y6690
X13468Y7304
X13487Y7895
X13231Y7895
X13743Y7895
X14034Y7891
X14389Y7812
X14743Y7911
X15019Y7911
X16003Y7714
X16594Y7714
X17184Y7714
X17775Y7714
X18365Y7714
X18956Y7714
X19546Y7714
X21219Y7891
X20038Y8226
X20137Y8619
X19645Y8954
X18660Y8954
X18267Y8954
X13345Y8954
X12952Y8954
X12558Y8954
X11200Y8934
X9802Y8954
X8818Y8954
X8424Y8954
X10393Y8462
X10786Y8285
X11594Y8285
X9763Y7773
X9094Y7734
X8523Y7734
X7932Y7734
X7342Y7734
X6751Y7734
X4054Y8324
X2499Y8737
X2716Y8934
X3109Y8934
X3503Y8934
X4094Y8915
X2145Y8285
X1731Y8285
X5078Y5942
X7420Y5135
X7991Y5096
X6751Y4820
X6219Y4879
X5432Y4820
X9062Y4041
X10019Y4052
X10865Y3836
X11436Y3836
X12204Y3836
X13188Y3836
X14566Y3836
X15511Y3836
X16298Y3836
X17086Y3836
X17873Y3836
X18660Y3836
X19448Y3836
X20235Y3836
X21023Y3836
X21810Y3836
X22597Y3836
X23385Y3836
X24172Y3836
X24960Y3836
X25747Y3836
X26534Y3836
X27597Y3816
X27834Y3403
X28306Y3541
X28936Y3718
X29281Y4062
X29615Y4397
X28582Y4545
X28464Y4072
X27597Y4308
X27125Y4308
X26141Y4308
X25353Y4308
X24566Y4308
X23779Y4308
X22991Y4308
X22204Y4308
X21416Y4308
X20629Y4308
X19842Y4308
X19054Y4308
X18267Y4308
X17479Y4308
X16692Y4308
X15905Y4308
X15117Y4395
X14330Y4710
X13503Y4426
X13956Y4308
X12794Y4308
X15408Y4954
X15576Y5122
X15760Y5306
X15928Y5474
X16810Y5450
X17401Y5293
X17905Y5241
X17873Y4781
X17086Y4781
X16298Y4781
X14605Y5222
X13149Y5706
X17460Y5903
X18109Y5726
X18857Y5726
X19645Y5726
X20353Y5726
X21023Y5726
X21810Y5726
X22204Y5253
X22991Y5253
X22597Y4781
X23385Y4781
X24172Y4781
X24960Y4781
X25747Y4781
X26534Y4781
X27125Y4781
X27597Y4781
X28286Y5155
X28857Y4938
X29129Y5332
X29428Y5706
X29979Y5922
X30885Y6100
X29192Y6356
X28483Y6080
X27597Y6198
X27125Y6198
X26141Y6198
X25353Y6198
X24566Y6198
X23779Y6198
X22991Y6198
X22204Y6198
X21416Y6198
X20629Y6198
X19881Y6198
X19231Y6356
X18857Y6218
X18791Y6533
X18995Y6690
X18530Y6533
X18326Y6690
X19578Y6690
X20609Y6749
X20011Y7045
X21318Y7241
X21810Y6671
X22597Y6671
X23385Y6671
X24172Y6671
X24960Y6671
X25747Y6671
X26534Y6671
X27440Y6690
X28365Y6592
X29605Y6887
X29408Y7537
X29389Y7773
X29822Y7556
X29133Y8029
X28897Y8029
X28660Y8029
X28149Y8029
X27912Y8029
X27676Y8029
X27164Y8029
X26928Y8029
X26692Y8029
X26180Y8127
X25865Y8127
X25550Y8127
X25235Y8127
X24920Y8127
X24605Y8127
X24448Y8324
X24763Y8324
X25078Y8324
X25393Y8324
X25708Y8324
X26023Y8324
X26338Y8324
X26416Y7773
X26416Y7537
X27420Y7537
X27420Y7773
X28405Y7773
X28405Y7537
X30865Y8324
X31653Y8324
X32952Y8442
X34153Y7970
X34310Y8147
X34290Y8383
X34290Y8627
X35294Y8442
X35294Y8206
X35078Y7970
X34802Y7970
X34527Y7970
X34290Y7773
X34113Y7584
X33877Y7584
X35511Y7970
X35786Y7970
X36062Y7970
X36279Y8206
X36279Y8442
X36495Y7970
X36771Y7970
X37046Y7970
X37282Y8442
X37282Y7537
X37282Y7300
X37519Y7300
X37755Y7300
X37991Y7300
X38227Y7300
X38227Y7537
X37991Y7537
X37755Y7537
X37519Y7537
X38503Y7143
X38916Y6631
X40235Y6631
X41397Y6631
X42519Y6631
X43739Y6434
X44133Y5938
X44723Y5765
X44940Y5608
X45216Y5608
X45192Y5867
X45511Y5804
X45824Y6139
X46495Y6277
X46397Y5922
X46672Y5804
X46928Y5804
X47184Y5686
X46849Y5529
X46200Y5430
X48188Y5470
X48975Y5450
X50393Y4978
X51023Y4978
X51062Y5332
X52519Y5056
X52755Y5332
X53621Y6198
X50176Y7104
X49231Y7104
X48936Y7143
X46534Y7694
X46141Y8088
X45727Y8462
X45314Y8698
X44330Y8698
X43621Y8934
X44094Y8108
X44842Y7734
X43739Y7320
X43405Y7478
X44330Y7222
X45353Y7222
X45924Y7241
X44842Y6710
X42637Y6080
X43267Y5844
X42519Y5608
X41790Y5686
X40747Y5686
X39861Y5647
X38995Y5686
X38385Y6041
X39153Y6159
X40373Y6159
X41290Y6159
X44094Y5430
X45649Y4584
X45806Y4348
X47538Y3895
X47597Y3639
X48227Y3757
X48818Y4623
X44491Y3659
X42838Y3600
X42523Y3915
X40948Y3915
X41853Y3521
X45668Y2832
X45629Y2340
X46200Y2005
X47637Y1966
X47991Y1985
X48385Y1985
X48779Y1985
X49172Y1985
X49566Y1985
X47952Y2852
X44684Y1966
X43995Y2143
X43779Y1985
X42676Y1985
X42086Y1946
X40688Y1985
X38936Y1966
X37755Y1966
X37361Y1966
X36180Y1985
X35590Y1985
X34408Y1985
X33227Y1985
X32046Y1985
X30865Y1985
X29881Y1966
X29527Y2005
X29054Y2005
X28700Y1966
X28345Y2005
X27873Y2005
X27519Y1966
X27164Y2005
X26692Y2045
X26338Y1966
X25983Y2005
X25511Y2005
X24960Y2005
X25393Y2320
X24566Y2419
X23779Y2419
X22991Y2419
X22204Y2419
X21416Y2419
X20629Y2419
X19842Y2419
X19054Y2419
X18267Y2419
X17479Y2419
X16692Y2419
X15905Y2419
X15117Y2419
X14330Y2419
X13542Y2419
X12755Y2419
X11810Y2419
X10393Y2419
X10590Y2891
X10373Y3363
X11633Y3363
X12676Y3363
X12361Y2891
X11574Y2891
X13149Y2891
X13936Y2891
X14054Y3363
X15117Y3363
X14723Y2891
X15511Y2891
X16298Y2891
X15905Y3363
X16692Y3363
X17479Y3363
X17086Y2891
X17873Y2891
X18660Y2891
X18267Y3363
X19054Y3363
X19842Y3363
X20629Y3363
X21023Y2891
X21810Y2891
X21416Y3363
X22204Y3363
X22991Y3363
X22597Y2891
X23385Y2891
X24172Y2891
X23779Y3363
X24566Y3363
X25353Y3363
X24960Y2891
X26023Y2832
X26534Y2497
X27125Y2537
X27775Y2576
X28306Y2576
X28897Y2793
X29468Y2793
X28483Y3108
X27420Y3048
X26731Y3304
X26141Y3363
X30038Y3304
X30294Y3718
X31151Y3531
X31347Y4003
X30609Y4072
X30924Y4426
X29950Y4732
X30284Y5066
X30767Y5253
X32312Y4771
X31849Y4446
X32538Y4151
X33887Y4456
X35235Y4525
X35235Y4281
X35235Y4021
X35235Y3777
X34428Y3836
X33040Y3570
X33641Y3206
X32489Y3019
X31712Y2615
X30993Y3019
X32932Y2497
X34192Y2694
X35255Y3048
X36416Y3088
X36318Y2497
X36416Y4426
X35944Y5135
X38070Y5509
X37499Y5922
X36613Y5922
X35629Y6159
X34448Y6552
X33857Y6730
X33523Y6749
X32657Y6730
X32263Y6060
X33109Y6080
X33405Y5824
X33700Y6080
X36515Y6631
X37597Y6592
X40511Y7143
X42145Y7143
X47558Y8698
X48070Y8797
X48365Y8797
X50176Y8186
X50570Y8600
X53621Y8875
X28405Y5608
X27597Y5726
X27125Y5726
X26534Y5726
X25747Y5726
X24960Y5726
X25353Y5253
X24566Y5253
X23779Y5253
X24172Y5726
X23385Y5726
X22597Y5726
X21259Y5253
X20137Y5253
X20235Y4781
X19448Y4781
X18660Y4781
X21023Y4781
X21810Y4781
X26141Y5253
X27125Y5253
X27597Y5253
X25432Y7281
X11180Y7615
X19448Y2891
X20235Y2891
X9074Y2419
X8818Y2524
X8562Y2419
T02
X37164Y2478
X37952Y2478
X38739Y2478
X39527Y2478
X40314Y2478
X41101Y2478
X41889Y2478
X42676Y2478
X43464Y2478
X44251Y2478
X45038Y2478
X46613Y2478
X47401Y2478
X48188Y2478
X48975Y2478
X49763Y2478
X50157Y3265
X49369Y3265
X48582Y3265
X47794Y3265
X47007Y3265
X46219Y3265
X44645Y3265
X43857Y3265
X43070Y3265
X42282Y3265
X41495Y3265
X40708Y3265
X39920Y3265
X39133Y3265
X38345Y3265
X37558Y3265
X37558Y4249
X38345Y4249
X39133Y4249
X39920Y4249
X40708Y4249
X41495Y4249
X42282Y4249
X43070Y4249
X43857Y4249
X44645Y4249
X46219Y4249
X47007Y4249
X47794Y4249
X48582Y4249
X49369Y4249
X50157Y4249
X49763Y5037
X48975Y5037
X48188Y5037
X47401Y5037
X46613Y5037
X45038Y5037
X44251Y5037
X43464Y5037
X42676Y5037
X41889Y5037
X41101Y5037
X40314Y5037
X39527Y5037
X38739Y5037
X37952Y5037
X37164Y5037
T03
X51456Y6655
X51456Y7655
X51456Y8655
T04
X20038Y7812
X10196Y7812
T05
X12164Y7812
X2322Y7812
T06
X7243Y4623
X9999Y4623
T07
X36456Y3757
X45570Y3757
T08
X22460Y7812
M30
