G75*
%MOIN*%
%OFA0B0*%
%FSLAX25Y25*%
%IPPOS*%
%LPD*%
%AMOC8*
5,1,8,0,0,1.08239X$1,22.5*
%
%ADD10C,0.12838*%
%ADD11R,2.55118X0.10433*%
%ADD12C,0.06933*%
%ADD13R,0.02165X0.00984*%
%ADD14R,0.00984X0.02165*%
%ADD15R,0.03390X0.08901*%
%ADD16R,0.01421X0.07622*%
%ADD17C,0.04571*%
%ADD18C,0.06539*%
%ADD19R,0.04964X0.11067*%
%ADD20C,0.05358*%
%ADD21R,0.05358X0.05358*%
%ADD22C,0.09492*%
%ADD23C,0.00651*%
%ADD24R,0.01240X0.03440*%
%ADD25R,0.10840X0.10840*%
%ADD26C,0.01041*%
%ADD27C,0.06602*%
%ADD28R,0.03390X0.03783*%
%ADD29R,0.02602X0.02602*%
%ADD30R,0.04571X0.05358*%
%ADD31C,0.00039*%
%ADD32R,0.07327X0.06539*%
%ADD33R,0.06657X0.24768*%
%ADD34C,0.00678*%
%ADD35C,0.02209*%
D10*
X0224597Y0078123D03*
D11*
X0375187Y0013260D03*
D12*
X0072431Y0046233D03*
X0099990Y0046233D03*
D13*
X0418002Y0069166D03*
D14*
X0438081Y0056371D03*
X0461782Y0059323D03*
D15*
X0460226Y0013752D03*
X0456289Y0013752D03*
X0452352Y0013752D03*
X0448415Y0013752D03*
X0444478Y0013752D03*
X0440541Y0013752D03*
X0436604Y0013752D03*
X0432667Y0013752D03*
X0428730Y0013752D03*
X0424793Y0013752D03*
X0420856Y0013752D03*
X0416919Y0013752D03*
X0412982Y0013752D03*
X0409045Y0013752D03*
X0389360Y0013752D03*
X0385423Y0013752D03*
X0381486Y0013752D03*
X0377549Y0013752D03*
X0373612Y0013752D03*
X0369675Y0013752D03*
X0365738Y0013752D03*
X0361801Y0013752D03*
X0357864Y0013752D03*
X0353927Y0013752D03*
X0349990Y0013752D03*
X0346053Y0013752D03*
X0342116Y0013752D03*
X0338179Y0013752D03*
X0334242Y0013752D03*
X0330305Y0013752D03*
X0326368Y0013752D03*
X0322431Y0013752D03*
X0318494Y0013752D03*
X0314557Y0013752D03*
X0310620Y0013752D03*
X0306683Y0013752D03*
X0302746Y0013752D03*
X0298809Y0013752D03*
X0294872Y0013752D03*
X0290935Y0013752D03*
X0286998Y0013752D03*
X0283061Y0013752D03*
X0279124Y0013752D03*
X0275187Y0013752D03*
X0271250Y0013752D03*
X0267313Y0013752D03*
X0263376Y0013752D03*
X0259439Y0013752D03*
X0255502Y0013752D03*
X0251565Y0013752D03*
X0464163Y0013752D03*
X0468100Y0013752D03*
X0472037Y0013752D03*
X0475975Y0013752D03*
X0479912Y0013752D03*
X0483849Y0013752D03*
X0487786Y0013752D03*
X0491723Y0013752D03*
X0495660Y0013752D03*
X0499597Y0013752D03*
D16*
X0197431Y0071971D03*
X0195463Y0071971D03*
X0193494Y0071971D03*
X0191526Y0071971D03*
X0189557Y0071971D03*
X0187589Y0071971D03*
X0185620Y0071971D03*
X0183652Y0071971D03*
X0181683Y0071971D03*
X0179715Y0071971D03*
X0177746Y0071971D03*
X0175778Y0071971D03*
X0173809Y0071971D03*
X0171841Y0071971D03*
X0169872Y0071971D03*
X0167904Y0071971D03*
X0165935Y0071971D03*
X0163967Y0071971D03*
X0161998Y0071971D03*
X0160030Y0071971D03*
X0158061Y0071971D03*
X0156093Y0071971D03*
X0154124Y0071971D03*
X0152156Y0071971D03*
X0150187Y0071971D03*
X0148219Y0071971D03*
X0146250Y0071971D03*
X0144282Y0071971D03*
X0142313Y0071971D03*
X0132471Y0071971D03*
X0130502Y0071971D03*
X0128534Y0071971D03*
X0126565Y0071971D03*
X0124597Y0071971D03*
X0099006Y0071971D03*
X0097037Y0071971D03*
X0095069Y0071971D03*
X0093100Y0071971D03*
X0091132Y0071971D03*
X0089163Y0071971D03*
X0087195Y0071971D03*
X0085226Y0071971D03*
X0083258Y0071971D03*
X0081289Y0071971D03*
X0079321Y0071971D03*
X0077352Y0071971D03*
X0075384Y0071971D03*
X0073415Y0071971D03*
X0071447Y0071971D03*
X0069478Y0071971D03*
X0067510Y0071971D03*
X0065541Y0071971D03*
X0063573Y0071971D03*
X0061604Y0071971D03*
X0059636Y0071971D03*
X0057667Y0071971D03*
X0055699Y0071971D03*
X0053730Y0071971D03*
X0051762Y0071971D03*
X0049793Y0071971D03*
X0047825Y0071971D03*
X0045856Y0071971D03*
X0043888Y0071971D03*
X0034045Y0071971D03*
X0032077Y0071971D03*
X0030108Y0071971D03*
X0028140Y0071971D03*
X0026171Y0071971D03*
X0027156Y0084274D03*
X0029124Y0084274D03*
X0031093Y0084274D03*
X0033061Y0084274D03*
X0042904Y0084274D03*
X0044872Y0084274D03*
X0046841Y0084274D03*
X0048809Y0084274D03*
X0050778Y0084274D03*
X0052746Y0084274D03*
X0054715Y0084274D03*
X0056683Y0084274D03*
X0058652Y0084274D03*
X0060620Y0084274D03*
X0062589Y0084274D03*
X0064557Y0084274D03*
X0066526Y0084274D03*
X0068494Y0084274D03*
X0070463Y0084274D03*
X0072431Y0084274D03*
X0074400Y0084274D03*
X0076368Y0084274D03*
X0078337Y0084274D03*
X0080305Y0084274D03*
X0082274Y0084274D03*
X0084242Y0084274D03*
X0086211Y0084274D03*
X0088179Y0084274D03*
X0090148Y0084274D03*
X0092116Y0084274D03*
X0094085Y0084274D03*
X0096053Y0084274D03*
X0098022Y0084274D03*
X0125581Y0084274D03*
X0127549Y0084274D03*
X0129518Y0084274D03*
X0131486Y0084274D03*
X0141329Y0084274D03*
X0143297Y0084274D03*
X0145266Y0084274D03*
X0147234Y0084274D03*
X0149203Y0084274D03*
X0151171Y0084274D03*
X0153140Y0084274D03*
X0155108Y0084274D03*
X0157077Y0084274D03*
X0159045Y0084274D03*
X0161014Y0084274D03*
X0162982Y0084274D03*
X0164951Y0084274D03*
X0166919Y0084274D03*
X0168888Y0084274D03*
X0170856Y0084274D03*
X0172825Y0084274D03*
X0174793Y0084274D03*
X0176762Y0084274D03*
X0178730Y0084274D03*
X0180699Y0084274D03*
X0182667Y0084274D03*
X0184636Y0084274D03*
X0186604Y0084274D03*
X0188573Y0084274D03*
X0190541Y0084274D03*
X0192510Y0084274D03*
X0194478Y0084274D03*
X0196447Y0084274D03*
D17*
X0200384Y0078123D03*
X0101959Y0078123D03*
D18*
X0121644Y0078123D03*
X0023219Y0078123D03*
D19*
X0017510Y0075957D03*
X0107667Y0075957D03*
X0115935Y0075957D03*
X0206093Y0075957D03*
D20*
X0371644Y0050367D03*
X0379518Y0050367D03*
X0387392Y0050367D03*
X0395266Y0050367D03*
X0403140Y0050367D03*
X0411014Y0050367D03*
X0418888Y0050367D03*
X0426762Y0050367D03*
X0434636Y0050367D03*
X0442510Y0050367D03*
X0450384Y0050367D03*
X0466132Y0050367D03*
X0474006Y0050367D03*
X0481880Y0050367D03*
X0489754Y0050367D03*
X0497628Y0050367D03*
X0493691Y0042493D03*
X0501565Y0042493D03*
X0485817Y0042493D03*
X0477943Y0042493D03*
X0470069Y0042493D03*
X0462195Y0042493D03*
X0446447Y0042493D03*
X0438573Y0042493D03*
X0430699Y0042493D03*
X0422825Y0042493D03*
X0414951Y0042493D03*
X0407077Y0042493D03*
X0399203Y0042493D03*
X0391329Y0042493D03*
X0383455Y0042493D03*
X0375581Y0042493D03*
X0375581Y0032650D03*
X0383455Y0032650D03*
X0391329Y0032650D03*
X0399203Y0032650D03*
X0407077Y0032650D03*
X0414951Y0032650D03*
X0422825Y0032650D03*
X0430699Y0032650D03*
X0438573Y0032650D03*
X0446447Y0032650D03*
X0462195Y0032650D03*
X0470069Y0032650D03*
X0477943Y0032650D03*
X0485817Y0032650D03*
X0493691Y0032650D03*
X0489754Y0024776D03*
X0481880Y0024776D03*
X0474006Y0024776D03*
X0466132Y0024776D03*
X0450384Y0024776D03*
X0442510Y0024776D03*
X0434636Y0024776D03*
X0426762Y0024776D03*
X0418888Y0024776D03*
X0411014Y0024776D03*
X0403140Y0024776D03*
X0395266Y0024776D03*
X0387392Y0024776D03*
X0379518Y0024776D03*
X0371644Y0024776D03*
X0497628Y0024776D03*
D21*
X0501565Y0032650D03*
D22*
X0455699Y0037571D03*
X0364557Y0037571D03*
D23*
X0466534Y0061595D02*
X0468486Y0061595D01*
X0466534Y0061595D02*
X0466534Y0063941D01*
X0468486Y0063941D01*
X0468486Y0061595D01*
X0468486Y0062245D02*
X0466534Y0062245D01*
X0466534Y0062895D02*
X0468486Y0062895D01*
X0468486Y0063545D02*
X0466534Y0063545D01*
X0470471Y0061595D02*
X0472423Y0061595D01*
X0470471Y0061595D02*
X0470471Y0063941D01*
X0472423Y0063941D01*
X0472423Y0061595D01*
X0472423Y0062245D02*
X0470471Y0062245D01*
X0470471Y0062895D02*
X0472423Y0062895D01*
X0472423Y0063545D02*
X0470471Y0063545D01*
X0470258Y0072028D02*
X0470258Y0073980D01*
X0470258Y0072028D02*
X0467912Y0072028D01*
X0467912Y0073980D01*
X0470258Y0073980D01*
X0470258Y0072678D02*
X0467912Y0072678D01*
X0467912Y0073328D02*
X0470258Y0073328D01*
X0470258Y0073978D02*
X0467912Y0073978D01*
X0470258Y0075965D02*
X0470258Y0077917D01*
X0470258Y0075965D02*
X0467912Y0075965D01*
X0467912Y0077917D01*
X0470258Y0077917D01*
X0470258Y0076615D02*
X0467912Y0076615D01*
X0467912Y0077265D02*
X0470258Y0077265D01*
X0470258Y0077915D02*
X0467912Y0077915D01*
X0467912Y0079902D02*
X0467912Y0081854D01*
X0470258Y0081854D01*
X0470258Y0079902D01*
X0467912Y0079902D01*
X0467912Y0080552D02*
X0470258Y0080552D01*
X0470258Y0081202D02*
X0467912Y0081202D01*
X0467912Y0081852D02*
X0470258Y0081852D01*
X0463581Y0081854D02*
X0463581Y0079902D01*
X0463581Y0081854D02*
X0465927Y0081854D01*
X0465927Y0079902D01*
X0463581Y0079902D01*
X0463581Y0080552D02*
X0465927Y0080552D01*
X0465927Y0081202D02*
X0463581Y0081202D01*
X0463581Y0081852D02*
X0465927Y0081852D01*
X0463581Y0083839D02*
X0463581Y0085791D01*
X0465927Y0085791D01*
X0465927Y0083839D01*
X0463581Y0083839D01*
X0463581Y0084489D02*
X0465927Y0084489D01*
X0465927Y0085139D02*
X0463581Y0085139D01*
X0463581Y0085789D02*
X0465927Y0085789D01*
X0467912Y0085791D02*
X0467912Y0083839D01*
X0467912Y0085791D02*
X0470258Y0085791D01*
X0470258Y0083839D01*
X0467912Y0083839D01*
X0467912Y0084489D02*
X0470258Y0084489D01*
X0470258Y0085139D02*
X0467912Y0085139D01*
X0467912Y0085789D02*
X0470258Y0085789D01*
X0503935Y0072406D02*
X0503935Y0070454D01*
X0503935Y0072406D02*
X0506281Y0072406D01*
X0506281Y0070454D01*
X0503935Y0070454D01*
X0503935Y0071104D02*
X0506281Y0071104D01*
X0506281Y0071754D02*
X0503935Y0071754D01*
X0503935Y0072404D02*
X0506281Y0072404D01*
X0503935Y0068469D02*
X0503935Y0066517D01*
X0503935Y0068469D02*
X0506281Y0068469D01*
X0506281Y0066517D01*
X0503935Y0066517D01*
X0503935Y0067167D02*
X0506281Y0067167D01*
X0506281Y0067817D02*
X0503935Y0067817D01*
X0503935Y0068467D02*
X0506281Y0068467D01*
X0337384Y0083839D02*
X0337384Y0085791D01*
X0337384Y0083839D02*
X0335038Y0083839D01*
X0335038Y0085791D01*
X0337384Y0085791D01*
X0337384Y0084489D02*
X0335038Y0084489D01*
X0335038Y0085139D02*
X0337384Y0085139D01*
X0337384Y0085789D02*
X0335038Y0085789D01*
X0333447Y0085791D02*
X0333447Y0083839D01*
X0331101Y0083839D01*
X0331101Y0085791D01*
X0333447Y0085791D01*
X0333447Y0084489D02*
X0331101Y0084489D01*
X0331101Y0085139D02*
X0333447Y0085139D01*
X0333447Y0085789D02*
X0331101Y0085789D01*
X0333447Y0087776D02*
X0333447Y0089728D01*
X0333447Y0087776D02*
X0331101Y0087776D01*
X0331101Y0089728D01*
X0333447Y0089728D01*
X0333447Y0088426D02*
X0331101Y0088426D01*
X0331101Y0089076D02*
X0333447Y0089076D01*
X0333447Y0089726D02*
X0331101Y0089726D01*
X0337384Y0089728D02*
X0337384Y0087776D01*
X0335038Y0087776D01*
X0335038Y0089728D01*
X0337384Y0089728D01*
X0337384Y0088426D02*
X0335038Y0088426D01*
X0335038Y0089076D02*
X0337384Y0089076D01*
X0337384Y0089726D02*
X0335038Y0089726D01*
D24*
G36*
X0441322Y0073228D02*
X0440445Y0072351D01*
X0438014Y0074782D01*
X0438891Y0075659D01*
X0441322Y0073228D01*
G37*
G36*
X0442714Y0074620D02*
X0441837Y0073743D01*
X0439406Y0076174D01*
X0440283Y0077051D01*
X0442714Y0074620D01*
G37*
G36*
X0444106Y0076012D02*
X0443229Y0075135D01*
X0440798Y0077566D01*
X0441675Y0078443D01*
X0444106Y0076012D01*
G37*
G36*
X0455156Y0078443D02*
X0456033Y0077566D01*
X0453602Y0075135D01*
X0452725Y0076012D01*
X0455156Y0078443D01*
G37*
G36*
X0453764Y0079835D02*
X0454641Y0078958D01*
X0452210Y0076527D01*
X0451333Y0077404D01*
X0453764Y0079835D01*
G37*
G36*
X0452372Y0081227D02*
X0453249Y0080350D01*
X0450818Y0077919D01*
X0449941Y0078796D01*
X0452372Y0081227D01*
G37*
G36*
X0450981Y0082619D02*
X0451858Y0081742D01*
X0449427Y0079311D01*
X0448550Y0080188D01*
X0450981Y0082619D01*
G37*
G36*
X0448281Y0080188D02*
X0447404Y0079311D01*
X0444973Y0081742D01*
X0445850Y0082619D01*
X0448281Y0080188D01*
G37*
G36*
X0446889Y0078796D02*
X0446012Y0077919D01*
X0443581Y0080350D01*
X0444458Y0081227D01*
X0446889Y0078796D01*
G37*
G36*
X0445497Y0077404D02*
X0444620Y0076527D01*
X0442189Y0078958D01*
X0443066Y0079835D01*
X0445497Y0077404D01*
G37*
G36*
X0456548Y0077051D02*
X0457425Y0076174D01*
X0454994Y0073743D01*
X0454117Y0074620D01*
X0456548Y0077051D01*
G37*
G36*
X0457940Y0075659D02*
X0458817Y0074782D01*
X0456386Y0072351D01*
X0455509Y0073228D01*
X0457940Y0075659D01*
G37*
G36*
X0458817Y0069652D02*
X0457940Y0068775D01*
X0455509Y0071206D01*
X0456386Y0072083D01*
X0458817Y0069652D01*
G37*
G36*
X0457425Y0068260D02*
X0456548Y0067383D01*
X0454117Y0069814D01*
X0454994Y0070691D01*
X0457425Y0068260D01*
G37*
G36*
X0456033Y0066868D02*
X0455156Y0065991D01*
X0452725Y0068422D01*
X0453602Y0069299D01*
X0456033Y0066868D01*
G37*
G36*
X0454641Y0065476D02*
X0453764Y0064599D01*
X0451333Y0067030D01*
X0452210Y0067907D01*
X0454641Y0065476D01*
G37*
G36*
X0453249Y0064084D02*
X0452372Y0063207D01*
X0449941Y0065638D01*
X0450818Y0066515D01*
X0453249Y0064084D01*
G37*
G36*
X0451858Y0062692D02*
X0450981Y0061815D01*
X0448550Y0064246D01*
X0449427Y0065123D01*
X0451858Y0062692D01*
G37*
G36*
X0447404Y0065123D02*
X0448281Y0064246D01*
X0445850Y0061815D01*
X0444973Y0062692D01*
X0447404Y0065123D01*
G37*
G36*
X0446012Y0066515D02*
X0446889Y0065638D01*
X0444458Y0063207D01*
X0443581Y0064084D01*
X0446012Y0066515D01*
G37*
G36*
X0444620Y0067907D02*
X0445497Y0067030D01*
X0443066Y0064599D01*
X0442189Y0065476D01*
X0444620Y0067907D01*
G37*
G36*
X0443229Y0069299D02*
X0444106Y0068422D01*
X0441675Y0065991D01*
X0440798Y0066868D01*
X0443229Y0069299D01*
G37*
G36*
X0441837Y0070691D02*
X0442714Y0069814D01*
X0440283Y0067383D01*
X0439406Y0068260D01*
X0441837Y0070691D01*
G37*
G36*
X0440445Y0072083D02*
X0441322Y0071206D01*
X0438891Y0068775D01*
X0438014Y0069652D01*
X0440445Y0072083D01*
G37*
D25*
G36*
X0440750Y0072217D02*
X0448415Y0079882D01*
X0456080Y0072217D01*
X0448415Y0064552D01*
X0440750Y0072217D01*
G37*
D26*
X0437243Y0076198D02*
X0436139Y0075094D01*
X0434757Y0076476D01*
X0435861Y0077580D01*
X0437243Y0076198D01*
X0437179Y0076134D02*
X0435099Y0076134D01*
X0435455Y0077174D02*
X0436267Y0077174D01*
X0438923Y0077878D02*
X0440027Y0078982D01*
X0438923Y0077878D02*
X0437541Y0079260D01*
X0438645Y0080364D01*
X0440027Y0078982D01*
X0439963Y0078918D02*
X0437883Y0078918D01*
X0438239Y0079958D02*
X0439051Y0079958D01*
X0455430Y0083907D02*
X0456534Y0082803D01*
X0455152Y0081421D01*
X0454048Y0082525D01*
X0455430Y0083907D01*
X0456192Y0082461D02*
X0454112Y0082461D01*
X0455024Y0083501D02*
X0455836Y0083501D01*
X0451165Y0086975D02*
X0449603Y0086975D01*
X0451165Y0086975D02*
X0451165Y0085019D01*
X0449603Y0085019D01*
X0449603Y0086975D01*
X0449603Y0086059D02*
X0451165Y0086059D01*
X0447228Y0086975D02*
X0445666Y0086975D01*
X0447228Y0086975D02*
X0447228Y0085019D01*
X0445666Y0085019D01*
X0445666Y0086975D01*
X0445666Y0086059D02*
X0447228Y0086059D01*
X0458214Y0081123D02*
X0459318Y0080019D01*
X0457936Y0078637D01*
X0456832Y0079741D01*
X0458214Y0081123D01*
X0458976Y0079677D02*
X0456896Y0079677D01*
X0457808Y0080717D02*
X0458620Y0080717D01*
X0459166Y0077407D02*
X0460270Y0076303D01*
X0459166Y0077407D02*
X0460548Y0078789D01*
X0461652Y0077685D01*
X0460270Y0076303D01*
X0461310Y0077343D02*
X0459230Y0077343D01*
X0460142Y0078383D02*
X0460954Y0078383D01*
X0461950Y0074623D02*
X0463054Y0073519D01*
X0461950Y0074623D02*
X0463332Y0076005D01*
X0464436Y0074901D01*
X0463054Y0073519D01*
X0464094Y0074559D02*
X0462014Y0074559D01*
X0462926Y0075599D02*
X0463738Y0075599D01*
X0494091Y0070058D02*
X0495653Y0070058D01*
X0494091Y0070058D02*
X0494091Y0072014D01*
X0495653Y0072014D01*
X0495653Y0070058D01*
X0495653Y0071098D02*
X0494091Y0071098D01*
X0498028Y0070058D02*
X0499590Y0070058D01*
X0498028Y0070058D02*
X0498028Y0072014D01*
X0499590Y0072014D01*
X0499590Y0070058D01*
X0499590Y0071098D02*
X0498028Y0071098D01*
X0456164Y0064616D02*
X0455060Y0063512D01*
X0456164Y0064616D02*
X0457546Y0063234D01*
X0456442Y0062130D01*
X0455060Y0063512D01*
X0455402Y0063170D02*
X0457482Y0063170D01*
X0456570Y0064210D02*
X0455758Y0064210D01*
X0453381Y0061832D02*
X0452277Y0060728D01*
X0453381Y0061832D02*
X0454763Y0060450D01*
X0453659Y0059346D01*
X0452277Y0060728D01*
X0452619Y0060386D02*
X0454699Y0060386D01*
X0453787Y0061426D02*
X0452975Y0061426D01*
X0445338Y0058165D02*
X0444234Y0059269D01*
X0445616Y0060651D01*
X0446720Y0059547D01*
X0445338Y0058165D01*
X0446378Y0059205D02*
X0444298Y0059205D01*
X0445210Y0060245D02*
X0446022Y0060245D01*
X0442554Y0060949D02*
X0441450Y0062053D01*
X0442832Y0063435D01*
X0443936Y0062331D01*
X0442554Y0060949D01*
X0443594Y0061989D02*
X0441514Y0061989D01*
X0442426Y0063029D02*
X0443238Y0063029D01*
X0339170Y0084034D02*
X0339170Y0085596D01*
X0341126Y0085596D01*
X0341126Y0084034D01*
X0339170Y0084034D01*
X0339170Y0085074D02*
X0341126Y0085074D01*
X0339170Y0087971D02*
X0339170Y0089533D01*
X0341126Y0089533D01*
X0341126Y0087971D01*
X0339170Y0087971D01*
X0339170Y0089011D02*
X0341126Y0089011D01*
X0328540Y0069848D02*
X0328540Y0068286D01*
X0328540Y0069848D02*
X0330496Y0069848D01*
X0330496Y0068286D01*
X0328540Y0068286D01*
X0328540Y0069326D02*
X0330496Y0069326D01*
X0328540Y0065911D02*
X0328540Y0064349D01*
X0328540Y0065911D02*
X0330496Y0065911D01*
X0330496Y0064349D01*
X0328540Y0064349D01*
X0328540Y0065389D02*
X0330496Y0065389D01*
X0333067Y0065518D02*
X0333067Y0063956D01*
X0333067Y0065518D02*
X0335023Y0065518D01*
X0335023Y0063956D01*
X0333067Y0063956D01*
X0333067Y0064996D02*
X0335023Y0064996D01*
X0333067Y0061581D02*
X0333067Y0060019D01*
X0333067Y0061581D02*
X0335023Y0061581D01*
X0335023Y0060019D01*
X0333067Y0060019D01*
X0333067Y0061059D02*
X0335023Y0061059D01*
D27*
X0513921Y0066548D02*
X0515193Y0066548D01*
X0515193Y0076548D02*
X0513921Y0076548D01*
X0513921Y0086548D02*
X0515193Y0086548D01*
D28*
X0484833Y0083241D03*
X0488573Y0074973D03*
X0481093Y0074973D03*
D29*
X0474793Y0074579D03*
X0474793Y0083241D03*
D30*
X0494282Y0086193D03*
X0501762Y0086193D03*
X0501762Y0077138D03*
X0494282Y0077138D03*
D31*
X0341132Y0077434D02*
X0341113Y0077312D01*
X0341057Y0077202D01*
X0340970Y0077115D01*
X0340860Y0077059D01*
X0340738Y0077040D01*
X0335620Y0077040D01*
X0335499Y0077059D01*
X0335389Y0077115D01*
X0335302Y0077202D01*
X0335246Y0077312D01*
X0335226Y0077434D01*
X0335226Y0078024D01*
X0335246Y0078146D01*
X0335302Y0078255D01*
X0335389Y0078343D01*
X0335499Y0078399D01*
X0335620Y0078418D01*
X0340738Y0078418D01*
X0340860Y0078399D01*
X0340970Y0078343D01*
X0341057Y0078255D01*
X0341113Y0078146D01*
X0341132Y0078024D01*
X0341132Y0077434D01*
X0341132Y0077442D02*
X0335226Y0077442D01*
X0335231Y0077405D02*
X0341127Y0077405D01*
X0341121Y0077367D02*
X0335237Y0077367D01*
X0335243Y0077329D02*
X0341115Y0077329D01*
X0341102Y0077291D02*
X0335256Y0077291D01*
X0335276Y0077253D02*
X0341083Y0077253D01*
X0341063Y0077215D02*
X0335295Y0077215D01*
X0335326Y0077177D02*
X0341032Y0077177D01*
X0340994Y0077139D02*
X0335364Y0077139D01*
X0335415Y0077102D02*
X0340943Y0077102D01*
X0340869Y0077064D02*
X0335490Y0077064D01*
X0335226Y0077480D02*
X0341132Y0077480D01*
X0341132Y0077518D02*
X0335226Y0077518D01*
X0335226Y0077556D02*
X0341132Y0077556D01*
X0341132Y0077594D02*
X0335226Y0077594D01*
X0335226Y0077632D02*
X0341132Y0077632D01*
X0341132Y0077670D02*
X0335226Y0077670D01*
X0335226Y0077708D02*
X0341132Y0077708D01*
X0341132Y0077746D02*
X0335226Y0077746D01*
X0335226Y0077783D02*
X0341132Y0077783D01*
X0341132Y0077821D02*
X0335226Y0077821D01*
X0335226Y0077859D02*
X0341132Y0077859D01*
X0341132Y0077897D02*
X0335226Y0077897D01*
X0335226Y0077935D02*
X0341132Y0077935D01*
X0341132Y0077973D02*
X0335226Y0077973D01*
X0335226Y0078011D02*
X0341132Y0078011D01*
X0341128Y0078049D02*
X0335230Y0078049D01*
X0335236Y0078086D02*
X0341122Y0078086D01*
X0341116Y0078124D02*
X0335242Y0078124D01*
X0335254Y0078162D02*
X0341104Y0078162D01*
X0341085Y0078200D02*
X0335273Y0078200D01*
X0335293Y0078238D02*
X0341066Y0078238D01*
X0341036Y0078276D02*
X0335322Y0078276D01*
X0335360Y0078314D02*
X0340999Y0078314D01*
X0340952Y0078352D02*
X0335407Y0078352D01*
X0335481Y0078390D02*
X0340878Y0078390D01*
X0339690Y0079969D02*
X0339580Y0079913D01*
X0339459Y0079894D01*
X0338868Y0079894D01*
X0338747Y0079913D01*
X0338637Y0079969D01*
X0338550Y0080056D01*
X0339777Y0080056D01*
X0339690Y0079969D01*
X0339701Y0079981D02*
X0338626Y0079981D01*
X0338588Y0080018D02*
X0339739Y0080018D01*
X0339777Y0080056D02*
X0339833Y0080166D01*
X0339852Y0080288D01*
X0339852Y0082256D01*
X0339833Y0082378D01*
X0339777Y0082488D01*
X0339690Y0082575D01*
X0339580Y0082631D01*
X0339459Y0082650D01*
X0338868Y0082650D01*
X0338747Y0082631D01*
X0338637Y0082575D01*
X0338550Y0082488D01*
X0338494Y0082378D01*
X0338475Y0082256D01*
X0338475Y0080288D01*
X0338494Y0080166D01*
X0338550Y0080056D01*
X0338530Y0080094D02*
X0339797Y0080094D01*
X0339816Y0080132D02*
X0338511Y0080132D01*
X0338493Y0080170D02*
X0339834Y0080170D01*
X0339840Y0080208D02*
X0338487Y0080208D01*
X0338481Y0080246D02*
X0339846Y0080246D01*
X0339852Y0080284D02*
X0338475Y0080284D01*
X0338475Y0080321D02*
X0339852Y0080321D01*
X0339852Y0080359D02*
X0338475Y0080359D01*
X0338475Y0080397D02*
X0339852Y0080397D01*
X0339852Y0080435D02*
X0338475Y0080435D01*
X0338475Y0080473D02*
X0339852Y0080473D01*
X0339852Y0080511D02*
X0338475Y0080511D01*
X0338475Y0080549D02*
X0339852Y0080549D01*
X0339852Y0080587D02*
X0338475Y0080587D01*
X0338475Y0080625D02*
X0339852Y0080625D01*
X0339852Y0080662D02*
X0338475Y0080662D01*
X0338475Y0080700D02*
X0339852Y0080700D01*
X0339852Y0080738D02*
X0338475Y0080738D01*
X0338475Y0080776D02*
X0339852Y0080776D01*
X0339852Y0080814D02*
X0338475Y0080814D01*
X0338475Y0080852D02*
X0339852Y0080852D01*
X0339852Y0080890D02*
X0338475Y0080890D01*
X0338475Y0080928D02*
X0339852Y0080928D01*
X0339852Y0080965D02*
X0338475Y0080965D01*
X0338475Y0081003D02*
X0339852Y0081003D01*
X0339852Y0081041D02*
X0338475Y0081041D01*
X0338475Y0081079D02*
X0339852Y0081079D01*
X0339852Y0081117D02*
X0338475Y0081117D01*
X0338475Y0081155D02*
X0339852Y0081155D01*
X0339852Y0081193D02*
X0338475Y0081193D01*
X0338475Y0081231D02*
X0339852Y0081231D01*
X0339852Y0081269D02*
X0338475Y0081269D01*
X0338475Y0081306D02*
X0339852Y0081306D01*
X0339852Y0081344D02*
X0338475Y0081344D01*
X0338475Y0081382D02*
X0339852Y0081382D01*
X0339852Y0081420D02*
X0338475Y0081420D01*
X0338475Y0081458D02*
X0339852Y0081458D01*
X0339852Y0081496D02*
X0338475Y0081496D01*
X0338475Y0081534D02*
X0339852Y0081534D01*
X0339852Y0081572D02*
X0338475Y0081572D01*
X0338475Y0081609D02*
X0339852Y0081609D01*
X0339852Y0081647D02*
X0338475Y0081647D01*
X0338475Y0081685D02*
X0339852Y0081685D01*
X0339852Y0081723D02*
X0338475Y0081723D01*
X0338475Y0081761D02*
X0339852Y0081761D01*
X0339852Y0081799D02*
X0338475Y0081799D01*
X0338475Y0081837D02*
X0339852Y0081837D01*
X0339852Y0081875D02*
X0338475Y0081875D01*
X0338475Y0081913D02*
X0339852Y0081913D01*
X0339852Y0081950D02*
X0338475Y0081950D01*
X0338475Y0081988D02*
X0339852Y0081988D01*
X0339852Y0082026D02*
X0338475Y0082026D01*
X0338475Y0082064D02*
X0339852Y0082064D01*
X0339852Y0082102D02*
X0338475Y0082102D01*
X0338475Y0082140D02*
X0339852Y0082140D01*
X0339852Y0082178D02*
X0338475Y0082178D01*
X0338475Y0082216D02*
X0339852Y0082216D01*
X0339852Y0082253D02*
X0338475Y0082253D01*
X0338480Y0082291D02*
X0339847Y0082291D01*
X0339841Y0082329D02*
X0338486Y0082329D01*
X0338492Y0082367D02*
X0339835Y0082367D01*
X0339819Y0082405D02*
X0338507Y0082405D01*
X0338527Y0082443D02*
X0339800Y0082443D01*
X0339781Y0082481D02*
X0338546Y0082481D01*
X0338581Y0082519D02*
X0339746Y0082519D01*
X0339709Y0082556D02*
X0338618Y0082556D01*
X0338675Y0082594D02*
X0339652Y0082594D01*
X0339571Y0082632D02*
X0338756Y0082632D01*
X0337865Y0082378D02*
X0337884Y0082256D01*
X0337884Y0080288D01*
X0337865Y0080166D01*
X0337809Y0080056D01*
X0336581Y0080056D01*
X0336525Y0080166D01*
X0336506Y0080288D01*
X0336506Y0082256D01*
X0336525Y0082378D01*
X0336581Y0082488D01*
X0336668Y0082575D01*
X0336778Y0082631D01*
X0336900Y0082650D01*
X0337490Y0082650D01*
X0337612Y0082631D01*
X0337722Y0082575D01*
X0337809Y0082488D01*
X0337865Y0082378D01*
X0337866Y0082367D02*
X0336524Y0082367D01*
X0336518Y0082329D02*
X0337872Y0082329D01*
X0337878Y0082291D02*
X0336512Y0082291D01*
X0336506Y0082253D02*
X0337884Y0082253D01*
X0337884Y0082216D02*
X0336506Y0082216D01*
X0336506Y0082178D02*
X0337884Y0082178D01*
X0337884Y0082140D02*
X0336506Y0082140D01*
X0336506Y0082102D02*
X0337884Y0082102D01*
X0337884Y0082064D02*
X0336506Y0082064D01*
X0336506Y0082026D02*
X0337884Y0082026D01*
X0337884Y0081988D02*
X0336506Y0081988D01*
X0336506Y0081950D02*
X0337884Y0081950D01*
X0337884Y0081913D02*
X0336506Y0081913D01*
X0336506Y0081875D02*
X0337884Y0081875D01*
X0337884Y0081837D02*
X0336506Y0081837D01*
X0336506Y0081799D02*
X0337884Y0081799D01*
X0337884Y0081761D02*
X0336506Y0081761D01*
X0336506Y0081723D02*
X0337884Y0081723D01*
X0337884Y0081685D02*
X0336506Y0081685D01*
X0336506Y0081647D02*
X0337884Y0081647D01*
X0337884Y0081609D02*
X0336506Y0081609D01*
X0336506Y0081572D02*
X0337884Y0081572D01*
X0337884Y0081534D02*
X0336506Y0081534D01*
X0336506Y0081496D02*
X0337884Y0081496D01*
X0337884Y0081458D02*
X0336506Y0081458D01*
X0336506Y0081420D02*
X0337884Y0081420D01*
X0337884Y0081382D02*
X0336506Y0081382D01*
X0336506Y0081344D02*
X0337884Y0081344D01*
X0337884Y0081306D02*
X0336506Y0081306D01*
X0336506Y0081269D02*
X0337884Y0081269D01*
X0337884Y0081231D02*
X0336506Y0081231D01*
X0336506Y0081193D02*
X0337884Y0081193D01*
X0337884Y0081155D02*
X0336506Y0081155D01*
X0336506Y0081117D02*
X0337884Y0081117D01*
X0337884Y0081079D02*
X0336506Y0081079D01*
X0336506Y0081041D02*
X0337884Y0081041D01*
X0337884Y0081003D02*
X0336506Y0081003D01*
X0336506Y0080965D02*
X0337884Y0080965D01*
X0337884Y0080928D02*
X0336506Y0080928D01*
X0336506Y0080890D02*
X0337884Y0080890D01*
X0337884Y0080852D02*
X0336506Y0080852D01*
X0336506Y0080814D02*
X0337884Y0080814D01*
X0337884Y0080776D02*
X0336506Y0080776D01*
X0336506Y0080738D02*
X0337884Y0080738D01*
X0337884Y0080700D02*
X0336506Y0080700D01*
X0336506Y0080662D02*
X0337884Y0080662D01*
X0337884Y0080625D02*
X0336506Y0080625D01*
X0336506Y0080587D02*
X0337884Y0080587D01*
X0337884Y0080549D02*
X0336506Y0080549D01*
X0336506Y0080511D02*
X0337884Y0080511D01*
X0337884Y0080473D02*
X0336506Y0080473D01*
X0336506Y0080435D02*
X0337884Y0080435D01*
X0337884Y0080397D02*
X0336506Y0080397D01*
X0336506Y0080359D02*
X0337884Y0080359D01*
X0337884Y0080321D02*
X0336506Y0080321D01*
X0336507Y0080284D02*
X0337883Y0080284D01*
X0337877Y0080246D02*
X0336513Y0080246D01*
X0336519Y0080208D02*
X0337871Y0080208D01*
X0337865Y0080170D02*
X0336525Y0080170D01*
X0336543Y0080132D02*
X0337847Y0080132D01*
X0337828Y0080094D02*
X0336562Y0080094D01*
X0336581Y0080056D02*
X0336668Y0079969D01*
X0336778Y0079913D01*
X0336900Y0079894D01*
X0337490Y0079894D01*
X0337612Y0079913D01*
X0337722Y0079969D01*
X0337809Y0080056D01*
X0337771Y0080018D02*
X0336619Y0080018D01*
X0336657Y0079981D02*
X0337733Y0079981D01*
X0337669Y0079943D02*
X0336721Y0079943D01*
X0336833Y0079905D02*
X0337557Y0079905D01*
X0338689Y0079943D02*
X0339638Y0079943D01*
X0339526Y0079905D02*
X0338801Y0079905D01*
X0337851Y0082405D02*
X0336539Y0082405D01*
X0336558Y0082443D02*
X0337832Y0082443D01*
X0337812Y0082481D02*
X0336578Y0082481D01*
X0336612Y0082519D02*
X0337778Y0082519D01*
X0337740Y0082556D02*
X0336650Y0082556D01*
X0336707Y0082594D02*
X0337683Y0082594D01*
X0337603Y0082632D02*
X0336787Y0082632D01*
X0335896Y0082378D02*
X0335915Y0082256D01*
X0335915Y0080288D01*
X0335896Y0080166D01*
X0335840Y0080056D01*
X0334613Y0080056D01*
X0334557Y0080166D01*
X0334538Y0080288D01*
X0334538Y0082256D01*
X0334557Y0082378D01*
X0334613Y0082488D01*
X0334700Y0082575D01*
X0334810Y0082631D01*
X0334931Y0082650D01*
X0335522Y0082650D01*
X0335643Y0082631D01*
X0335753Y0082575D01*
X0335840Y0082488D01*
X0335896Y0082378D01*
X0335898Y0082367D02*
X0334555Y0082367D01*
X0334549Y0082329D02*
X0335904Y0082329D01*
X0335910Y0082291D02*
X0334543Y0082291D01*
X0334538Y0082253D02*
X0335915Y0082253D01*
X0335915Y0082216D02*
X0334538Y0082216D01*
X0334538Y0082178D02*
X0335915Y0082178D01*
X0335915Y0082140D02*
X0334538Y0082140D01*
X0334538Y0082102D02*
X0335915Y0082102D01*
X0335915Y0082064D02*
X0334538Y0082064D01*
X0334538Y0082026D02*
X0335915Y0082026D01*
X0335915Y0081988D02*
X0334538Y0081988D01*
X0334538Y0081950D02*
X0335915Y0081950D01*
X0335915Y0081913D02*
X0334538Y0081913D01*
X0334538Y0081875D02*
X0335915Y0081875D01*
X0335915Y0081837D02*
X0334538Y0081837D01*
X0334538Y0081799D02*
X0335915Y0081799D01*
X0335915Y0081761D02*
X0334538Y0081761D01*
X0334538Y0081723D02*
X0335915Y0081723D01*
X0335915Y0081685D02*
X0334538Y0081685D01*
X0334538Y0081647D02*
X0335915Y0081647D01*
X0335915Y0081609D02*
X0334538Y0081609D01*
X0334538Y0081572D02*
X0335915Y0081572D01*
X0335915Y0081534D02*
X0334538Y0081534D01*
X0334538Y0081496D02*
X0335915Y0081496D01*
X0335915Y0081458D02*
X0334538Y0081458D01*
X0334538Y0081420D02*
X0335915Y0081420D01*
X0335915Y0081382D02*
X0334538Y0081382D01*
X0334538Y0081344D02*
X0335915Y0081344D01*
X0335915Y0081306D02*
X0334538Y0081306D01*
X0334538Y0081269D02*
X0335915Y0081269D01*
X0335915Y0081231D02*
X0334538Y0081231D01*
X0334538Y0081193D02*
X0335915Y0081193D01*
X0335915Y0081155D02*
X0334538Y0081155D01*
X0334538Y0081117D02*
X0335915Y0081117D01*
X0335915Y0081079D02*
X0334538Y0081079D01*
X0334538Y0081041D02*
X0335915Y0081041D01*
X0335915Y0081003D02*
X0334538Y0081003D01*
X0334538Y0080965D02*
X0335915Y0080965D01*
X0335915Y0080928D02*
X0334538Y0080928D01*
X0334538Y0080890D02*
X0335915Y0080890D01*
X0335915Y0080852D02*
X0334538Y0080852D01*
X0334538Y0080814D02*
X0335915Y0080814D01*
X0335915Y0080776D02*
X0334538Y0080776D01*
X0334538Y0080738D02*
X0335915Y0080738D01*
X0335915Y0080700D02*
X0334538Y0080700D01*
X0334538Y0080662D02*
X0335915Y0080662D01*
X0335915Y0080625D02*
X0334538Y0080625D01*
X0334538Y0080587D02*
X0335915Y0080587D01*
X0335915Y0080549D02*
X0334538Y0080549D01*
X0334538Y0080511D02*
X0335915Y0080511D01*
X0335915Y0080473D02*
X0334538Y0080473D01*
X0334538Y0080435D02*
X0335915Y0080435D01*
X0335915Y0080397D02*
X0334538Y0080397D01*
X0334538Y0080359D02*
X0335915Y0080359D01*
X0335915Y0080321D02*
X0334538Y0080321D01*
X0334538Y0080284D02*
X0335915Y0080284D01*
X0335909Y0080246D02*
X0334544Y0080246D01*
X0334550Y0080208D02*
X0335903Y0080208D01*
X0335897Y0080170D02*
X0334556Y0080170D01*
X0334574Y0080132D02*
X0335879Y0080132D01*
X0335859Y0080094D02*
X0334593Y0080094D01*
X0334613Y0080056D02*
X0334700Y0079969D01*
X0334810Y0079913D01*
X0334931Y0079894D01*
X0335522Y0079894D01*
X0335643Y0079913D01*
X0335753Y0079969D01*
X0335840Y0080056D01*
X0335802Y0080018D02*
X0334651Y0080018D01*
X0334689Y0079981D02*
X0335764Y0079981D01*
X0335701Y0079943D02*
X0334752Y0079943D01*
X0334864Y0079905D02*
X0335589Y0079905D01*
X0333928Y0080170D02*
X0332588Y0080170D01*
X0332588Y0080166D02*
X0332569Y0080288D01*
X0332569Y0082256D01*
X0332588Y0082378D01*
X0332644Y0082488D01*
X0332731Y0082575D01*
X0332841Y0082631D01*
X0332963Y0082650D01*
X0333553Y0082650D01*
X0333675Y0082631D01*
X0333785Y0082575D01*
X0333872Y0082488D01*
X0333928Y0082378D01*
X0333947Y0082256D01*
X0333947Y0080288D01*
X0333928Y0080166D01*
X0333872Y0080056D01*
X0332644Y0080056D01*
X0332588Y0080166D01*
X0332606Y0080132D02*
X0333910Y0080132D01*
X0333891Y0080094D02*
X0332625Y0080094D01*
X0332644Y0080056D02*
X0332731Y0079969D01*
X0332841Y0079913D01*
X0332963Y0079894D01*
X0333553Y0079894D01*
X0333675Y0079913D01*
X0333785Y0079969D01*
X0333872Y0080056D01*
X0333834Y0080018D02*
X0332682Y0080018D01*
X0332720Y0079981D02*
X0333796Y0079981D01*
X0333732Y0079943D02*
X0332784Y0079943D01*
X0332896Y0079905D02*
X0333620Y0079905D01*
X0333934Y0080208D02*
X0332582Y0080208D01*
X0332576Y0080246D02*
X0333940Y0080246D01*
X0333946Y0080284D02*
X0332570Y0080284D01*
X0332569Y0080321D02*
X0333947Y0080321D01*
X0333947Y0080359D02*
X0332569Y0080359D01*
X0332569Y0080397D02*
X0333947Y0080397D01*
X0333947Y0080435D02*
X0332569Y0080435D01*
X0332569Y0080473D02*
X0333947Y0080473D01*
X0333947Y0080511D02*
X0332569Y0080511D01*
X0332569Y0080549D02*
X0333947Y0080549D01*
X0333947Y0080587D02*
X0332569Y0080587D01*
X0332569Y0080625D02*
X0333947Y0080625D01*
X0333947Y0080662D02*
X0332569Y0080662D01*
X0332569Y0080700D02*
X0333947Y0080700D01*
X0333947Y0080738D02*
X0332569Y0080738D01*
X0332569Y0080776D02*
X0333947Y0080776D01*
X0333947Y0080814D02*
X0332569Y0080814D01*
X0332569Y0080852D02*
X0333947Y0080852D01*
X0333947Y0080890D02*
X0332569Y0080890D01*
X0332569Y0080928D02*
X0333947Y0080928D01*
X0333947Y0080965D02*
X0332569Y0080965D01*
X0332569Y0081003D02*
X0333947Y0081003D01*
X0333947Y0081041D02*
X0332569Y0081041D01*
X0332569Y0081079D02*
X0333947Y0081079D01*
X0333947Y0081117D02*
X0332569Y0081117D01*
X0332569Y0081155D02*
X0333947Y0081155D01*
X0333947Y0081193D02*
X0332569Y0081193D01*
X0332569Y0081231D02*
X0333947Y0081231D01*
X0333947Y0081269D02*
X0332569Y0081269D01*
X0332569Y0081306D02*
X0333947Y0081306D01*
X0333947Y0081344D02*
X0332569Y0081344D01*
X0332569Y0081382D02*
X0333947Y0081382D01*
X0333947Y0081420D02*
X0332569Y0081420D01*
X0332569Y0081458D02*
X0333947Y0081458D01*
X0333947Y0081496D02*
X0332569Y0081496D01*
X0332569Y0081534D02*
X0333947Y0081534D01*
X0333947Y0081572D02*
X0332569Y0081572D01*
X0332569Y0081609D02*
X0333947Y0081609D01*
X0333947Y0081647D02*
X0332569Y0081647D01*
X0332569Y0081685D02*
X0333947Y0081685D01*
X0333947Y0081723D02*
X0332569Y0081723D01*
X0332569Y0081761D02*
X0333947Y0081761D01*
X0333947Y0081799D02*
X0332569Y0081799D01*
X0332569Y0081837D02*
X0333947Y0081837D01*
X0333947Y0081875D02*
X0332569Y0081875D01*
X0332569Y0081913D02*
X0333947Y0081913D01*
X0333947Y0081950D02*
X0332569Y0081950D01*
X0332569Y0081988D02*
X0333947Y0081988D01*
X0333947Y0082026D02*
X0332569Y0082026D01*
X0332569Y0082064D02*
X0333947Y0082064D01*
X0333947Y0082102D02*
X0332569Y0082102D01*
X0332569Y0082140D02*
X0333947Y0082140D01*
X0333947Y0082178D02*
X0332569Y0082178D01*
X0332569Y0082216D02*
X0333947Y0082216D01*
X0333947Y0082253D02*
X0332569Y0082253D01*
X0332575Y0082291D02*
X0333941Y0082291D01*
X0333935Y0082329D02*
X0332581Y0082329D01*
X0332587Y0082367D02*
X0333929Y0082367D01*
X0333914Y0082405D02*
X0332602Y0082405D01*
X0332621Y0082443D02*
X0333895Y0082443D01*
X0333875Y0082481D02*
X0332641Y0082481D01*
X0332675Y0082519D02*
X0333841Y0082519D01*
X0333803Y0082556D02*
X0332713Y0082556D01*
X0332770Y0082594D02*
X0333746Y0082594D01*
X0333666Y0082632D02*
X0332850Y0082632D01*
X0334570Y0082405D02*
X0335882Y0082405D01*
X0335863Y0082443D02*
X0334590Y0082443D01*
X0334609Y0082481D02*
X0335844Y0082481D01*
X0335809Y0082519D02*
X0334644Y0082519D01*
X0334681Y0082556D02*
X0335772Y0082556D01*
X0335715Y0082594D02*
X0334738Y0082594D01*
X0334819Y0082632D02*
X0335634Y0082632D01*
X0336801Y0076449D02*
X0331683Y0076449D01*
X0331562Y0076430D01*
X0331452Y0076374D01*
X0331365Y0076287D01*
X0331309Y0076177D01*
X0331289Y0076056D01*
X0331289Y0075465D01*
X0331309Y0075343D01*
X0331365Y0075234D01*
X0331452Y0075147D01*
X0331562Y0075091D01*
X0331683Y0075071D01*
X0336801Y0075071D01*
X0336923Y0075091D01*
X0337033Y0075147D01*
X0337120Y0075234D01*
X0337176Y0075343D01*
X0337195Y0075465D01*
X0337195Y0076056D01*
X0337176Y0076177D01*
X0337120Y0076287D01*
X0337033Y0076374D01*
X0336923Y0076430D01*
X0336801Y0076449D01*
X0336943Y0076420D02*
X0331541Y0076420D01*
X0331467Y0076382D02*
X0337018Y0076382D01*
X0337063Y0076344D02*
X0331422Y0076344D01*
X0331384Y0076306D02*
X0337101Y0076306D01*
X0337129Y0076268D02*
X0331355Y0076268D01*
X0331336Y0076230D02*
X0337149Y0076230D01*
X0337168Y0076192D02*
X0331316Y0076192D01*
X0331305Y0076155D02*
X0337179Y0076155D01*
X0337185Y0076117D02*
X0331299Y0076117D01*
X0331293Y0076079D02*
X0337191Y0076079D01*
X0337195Y0076041D02*
X0331289Y0076041D01*
X0331289Y0076003D02*
X0337195Y0076003D01*
X0337195Y0075965D02*
X0331289Y0075965D01*
X0331289Y0075927D02*
X0337195Y0075927D01*
X0337195Y0075889D02*
X0331289Y0075889D01*
X0331289Y0075851D02*
X0337195Y0075851D01*
X0337195Y0075814D02*
X0331289Y0075814D01*
X0331289Y0075776D02*
X0337195Y0075776D01*
X0337195Y0075738D02*
X0331289Y0075738D01*
X0331289Y0075700D02*
X0337195Y0075700D01*
X0337195Y0075662D02*
X0331289Y0075662D01*
X0331289Y0075624D02*
X0337195Y0075624D01*
X0337195Y0075586D02*
X0331289Y0075586D01*
X0331289Y0075548D02*
X0337195Y0075548D01*
X0337195Y0075511D02*
X0331289Y0075511D01*
X0331289Y0075473D02*
X0337195Y0075473D01*
X0337190Y0075435D02*
X0331294Y0075435D01*
X0331300Y0075397D02*
X0337184Y0075397D01*
X0337178Y0075359D02*
X0331306Y0075359D01*
X0331320Y0075321D02*
X0337164Y0075321D01*
X0337145Y0075283D02*
X0331339Y0075283D01*
X0331359Y0075245D02*
X0337126Y0075245D01*
X0337094Y0075207D02*
X0331391Y0075207D01*
X0331429Y0075170D02*
X0337056Y0075170D01*
X0337004Y0075132D02*
X0331481Y0075132D01*
X0331555Y0075094D02*
X0336929Y0075094D01*
X0335620Y0074481D02*
X0340738Y0074481D01*
X0340860Y0074462D01*
X0340970Y0074406D01*
X0341057Y0074318D01*
X0341113Y0074209D01*
X0341132Y0074087D01*
X0341132Y0073497D01*
X0341113Y0073375D01*
X0341057Y0073265D01*
X0340970Y0073178D01*
X0340860Y0073122D01*
X0340738Y0073103D01*
X0335620Y0073103D01*
X0335499Y0073122D01*
X0335389Y0073178D01*
X0335302Y0073265D01*
X0335246Y0073375D01*
X0335226Y0073497D01*
X0335226Y0074087D01*
X0335246Y0074209D01*
X0335302Y0074318D01*
X0335389Y0074406D01*
X0335499Y0074462D01*
X0335620Y0074481D01*
X0335476Y0074450D02*
X0340883Y0074450D01*
X0340957Y0074412D02*
X0335401Y0074412D01*
X0335357Y0074374D02*
X0341001Y0074374D01*
X0341039Y0074336D02*
X0335319Y0074336D01*
X0335291Y0074298D02*
X0341067Y0074298D01*
X0341086Y0074260D02*
X0335272Y0074260D01*
X0335253Y0074223D02*
X0341106Y0074223D01*
X0341117Y0074185D02*
X0335242Y0074185D01*
X0335236Y0074147D02*
X0341123Y0074147D01*
X0341129Y0074109D02*
X0335230Y0074109D01*
X0335226Y0074071D02*
X0341132Y0074071D01*
X0341132Y0074033D02*
X0335226Y0074033D01*
X0335226Y0073995D02*
X0341132Y0073995D01*
X0341132Y0073957D02*
X0335226Y0073957D01*
X0335226Y0073920D02*
X0341132Y0073920D01*
X0341132Y0073882D02*
X0335226Y0073882D01*
X0335226Y0073844D02*
X0341132Y0073844D01*
X0341132Y0073806D02*
X0335226Y0073806D01*
X0335226Y0073768D02*
X0341132Y0073768D01*
X0341132Y0073730D02*
X0335226Y0073730D01*
X0335226Y0073692D02*
X0341132Y0073692D01*
X0341132Y0073654D02*
X0335226Y0073654D01*
X0335226Y0073616D02*
X0341132Y0073616D01*
X0341132Y0073579D02*
X0335226Y0073579D01*
X0335226Y0073541D02*
X0341132Y0073541D01*
X0341132Y0073503D02*
X0335226Y0073503D01*
X0335231Y0073465D02*
X0341127Y0073465D01*
X0341121Y0073427D02*
X0335237Y0073427D01*
X0335243Y0073389D02*
X0341115Y0073389D01*
X0341101Y0073351D02*
X0335258Y0073351D01*
X0335277Y0073313D02*
X0341081Y0073313D01*
X0341062Y0073276D02*
X0335296Y0073276D01*
X0335329Y0073238D02*
X0341029Y0073238D01*
X0340991Y0073200D02*
X0335367Y0073200D01*
X0335420Y0073162D02*
X0340938Y0073162D01*
X0340864Y0073124D02*
X0335495Y0073124D01*
X0334026Y0073375D02*
X0333970Y0073265D01*
X0333883Y0073178D01*
X0333773Y0073122D01*
X0333652Y0073103D01*
X0331683Y0073103D01*
X0331562Y0073122D01*
X0331452Y0073178D01*
X0331365Y0073265D01*
X0331309Y0073375D01*
X0331289Y0073497D01*
X0331289Y0074087D01*
X0331309Y0074209D01*
X0331365Y0074318D01*
X0331452Y0074406D01*
X0331562Y0074462D01*
X0331683Y0074481D01*
X0333652Y0074481D01*
X0333773Y0074462D01*
X0333883Y0074406D01*
X0333970Y0074318D01*
X0334026Y0074209D01*
X0334045Y0074087D01*
X0334045Y0073497D01*
X0334026Y0073375D01*
X0334028Y0073389D02*
X0331306Y0073389D01*
X0331300Y0073427D02*
X0334034Y0073427D01*
X0334040Y0073465D02*
X0331294Y0073465D01*
X0331289Y0073503D02*
X0334045Y0073503D01*
X0334045Y0073541D02*
X0331289Y0073541D01*
X0331289Y0073579D02*
X0334045Y0073579D01*
X0334045Y0073616D02*
X0331289Y0073616D01*
X0331289Y0073654D02*
X0334045Y0073654D01*
X0334045Y0073692D02*
X0331289Y0073692D01*
X0331289Y0073730D02*
X0334045Y0073730D01*
X0334045Y0073768D02*
X0331289Y0073768D01*
X0331289Y0073806D02*
X0334045Y0073806D01*
X0334045Y0073844D02*
X0331289Y0073844D01*
X0331289Y0073882D02*
X0334045Y0073882D01*
X0334045Y0073920D02*
X0331289Y0073920D01*
X0331289Y0073957D02*
X0334045Y0073957D01*
X0334045Y0073995D02*
X0331289Y0073995D01*
X0331289Y0074033D02*
X0334045Y0074033D01*
X0334045Y0074071D02*
X0331289Y0074071D01*
X0331293Y0074109D02*
X0334042Y0074109D01*
X0334036Y0074147D02*
X0331299Y0074147D01*
X0331305Y0074185D02*
X0334030Y0074185D01*
X0334019Y0074223D02*
X0331316Y0074223D01*
X0331335Y0074260D02*
X0334000Y0074260D01*
X0333980Y0074298D02*
X0331354Y0074298D01*
X0331382Y0074336D02*
X0333952Y0074336D01*
X0333915Y0074374D02*
X0331420Y0074374D01*
X0331464Y0074412D02*
X0333871Y0074412D01*
X0333796Y0074450D02*
X0331539Y0074450D01*
X0331321Y0073351D02*
X0334014Y0073351D01*
X0333995Y0073313D02*
X0331340Y0073313D01*
X0331359Y0073276D02*
X0333976Y0073276D01*
X0333943Y0073238D02*
X0331392Y0073238D01*
X0331430Y0073200D02*
X0333905Y0073200D01*
X0333851Y0073162D02*
X0331483Y0073162D01*
X0331558Y0073124D02*
X0333777Y0073124D01*
X0333553Y0071626D02*
X0332963Y0071626D01*
X0332841Y0071607D01*
X0332731Y0071551D01*
X0332644Y0071464D01*
X0332588Y0071354D01*
X0332569Y0071233D01*
X0332569Y0069264D01*
X0332588Y0069143D01*
X0332644Y0069033D01*
X0332731Y0068946D01*
X0332841Y0068890D01*
X0332963Y0068871D01*
X0333553Y0068871D01*
X0333675Y0068890D01*
X0333785Y0068946D01*
X0333872Y0069033D01*
X0333928Y0069143D01*
X0333947Y0069264D01*
X0333947Y0071233D01*
X0333928Y0071354D01*
X0333872Y0071464D01*
X0333785Y0071551D01*
X0333675Y0071607D01*
X0333553Y0071626D01*
X0333665Y0071609D02*
X0332851Y0071609D01*
X0332770Y0071571D02*
X0333746Y0071571D01*
X0333803Y0071533D02*
X0332713Y0071533D01*
X0332675Y0071495D02*
X0333841Y0071495D01*
X0333875Y0071457D02*
X0332641Y0071457D01*
X0332621Y0071419D02*
X0333895Y0071419D01*
X0333914Y0071381D02*
X0332602Y0071381D01*
X0332587Y0071344D02*
X0333929Y0071344D01*
X0333935Y0071306D02*
X0332581Y0071306D01*
X0332575Y0071268D02*
X0333941Y0071268D01*
X0333947Y0071230D02*
X0332569Y0071230D01*
X0332569Y0071192D02*
X0333947Y0071192D01*
X0333947Y0071154D02*
X0332569Y0071154D01*
X0332569Y0071116D02*
X0333947Y0071116D01*
X0333947Y0071078D02*
X0332569Y0071078D01*
X0332569Y0071041D02*
X0333947Y0071041D01*
X0333947Y0071003D02*
X0332569Y0071003D01*
X0332569Y0070965D02*
X0333947Y0070965D01*
X0333947Y0070927D02*
X0332569Y0070927D01*
X0332569Y0070889D02*
X0333947Y0070889D01*
X0333947Y0070851D02*
X0332569Y0070851D01*
X0332569Y0070813D02*
X0333947Y0070813D01*
X0333947Y0070775D02*
X0332569Y0070775D01*
X0332569Y0070737D02*
X0333947Y0070737D01*
X0333947Y0070700D02*
X0332569Y0070700D01*
X0332569Y0070662D02*
X0333947Y0070662D01*
X0333947Y0070624D02*
X0332569Y0070624D01*
X0332569Y0070586D02*
X0333947Y0070586D01*
X0333947Y0070548D02*
X0332569Y0070548D01*
X0332569Y0070510D02*
X0333947Y0070510D01*
X0333947Y0070472D02*
X0332569Y0070472D01*
X0332569Y0070434D02*
X0333947Y0070434D01*
X0333947Y0070397D02*
X0332569Y0070397D01*
X0332569Y0070359D02*
X0333947Y0070359D01*
X0333947Y0070321D02*
X0332569Y0070321D01*
X0332569Y0070283D02*
X0333947Y0070283D01*
X0333947Y0070245D02*
X0332569Y0070245D01*
X0332569Y0070207D02*
X0333947Y0070207D01*
X0333947Y0070169D02*
X0332569Y0070169D01*
X0332569Y0070131D02*
X0333947Y0070131D01*
X0333947Y0070094D02*
X0332569Y0070094D01*
X0332569Y0070056D02*
X0333947Y0070056D01*
X0333947Y0070018D02*
X0332569Y0070018D01*
X0332569Y0069980D02*
X0333947Y0069980D01*
X0333947Y0069942D02*
X0332569Y0069942D01*
X0332569Y0069904D02*
X0333947Y0069904D01*
X0333947Y0069866D02*
X0332569Y0069866D01*
X0332569Y0069828D02*
X0333947Y0069828D01*
X0333947Y0069790D02*
X0332569Y0069790D01*
X0332569Y0069753D02*
X0333947Y0069753D01*
X0333947Y0069715D02*
X0332569Y0069715D01*
X0332569Y0069677D02*
X0333947Y0069677D01*
X0333947Y0069639D02*
X0332569Y0069639D01*
X0332569Y0069601D02*
X0333947Y0069601D01*
X0333947Y0069563D02*
X0332569Y0069563D01*
X0332569Y0069525D02*
X0333947Y0069525D01*
X0333947Y0069487D02*
X0332569Y0069487D01*
X0332569Y0069450D02*
X0333947Y0069450D01*
X0333947Y0069412D02*
X0332569Y0069412D01*
X0332569Y0069374D02*
X0333947Y0069374D01*
X0333947Y0069336D02*
X0332569Y0069336D01*
X0332569Y0069298D02*
X0333947Y0069298D01*
X0333946Y0069260D02*
X0332570Y0069260D01*
X0332576Y0069222D02*
X0333940Y0069222D01*
X0333934Y0069184D02*
X0332582Y0069184D01*
X0332588Y0069146D02*
X0333928Y0069146D01*
X0333910Y0069109D02*
X0332606Y0069109D01*
X0332625Y0069071D02*
X0333891Y0069071D01*
X0333872Y0069033D02*
X0332644Y0069033D01*
X0332682Y0068995D02*
X0333834Y0068995D01*
X0333796Y0068957D02*
X0332720Y0068957D01*
X0332783Y0068919D02*
X0333733Y0068919D01*
X0333621Y0068881D02*
X0332895Y0068881D01*
X0334556Y0069146D02*
X0335897Y0069146D01*
X0335896Y0069143D02*
X0335840Y0069033D01*
X0334613Y0069033D01*
X0334557Y0069143D01*
X0334538Y0069264D01*
X0334538Y0071233D01*
X0334557Y0071354D01*
X0334613Y0071464D01*
X0334700Y0071551D01*
X0334810Y0071607D01*
X0334931Y0071626D01*
X0335522Y0071626D01*
X0335643Y0071607D01*
X0335753Y0071551D01*
X0335840Y0071464D01*
X0335896Y0071354D01*
X0335915Y0071233D01*
X0335915Y0069264D01*
X0335896Y0069143D01*
X0335879Y0069109D02*
X0334574Y0069109D01*
X0334593Y0069071D02*
X0335860Y0069071D01*
X0335840Y0069033D02*
X0335753Y0068946D01*
X0335643Y0068890D01*
X0335522Y0068871D01*
X0334931Y0068871D01*
X0334810Y0068890D01*
X0334700Y0068946D01*
X0334613Y0069033D01*
X0334651Y0068995D02*
X0335802Y0068995D01*
X0335764Y0068957D02*
X0334688Y0068957D01*
X0334752Y0068919D02*
X0335701Y0068919D01*
X0335590Y0068881D02*
X0334863Y0068881D01*
X0334550Y0069184D02*
X0335903Y0069184D01*
X0335909Y0069222D02*
X0334544Y0069222D01*
X0334538Y0069260D02*
X0335915Y0069260D01*
X0335915Y0069298D02*
X0334538Y0069298D01*
X0334538Y0069336D02*
X0335915Y0069336D01*
X0335915Y0069374D02*
X0334538Y0069374D01*
X0334538Y0069412D02*
X0335915Y0069412D01*
X0335915Y0069450D02*
X0334538Y0069450D01*
X0334538Y0069487D02*
X0335915Y0069487D01*
X0335915Y0069525D02*
X0334538Y0069525D01*
X0334538Y0069563D02*
X0335915Y0069563D01*
X0335915Y0069601D02*
X0334538Y0069601D01*
X0334538Y0069639D02*
X0335915Y0069639D01*
X0335915Y0069677D02*
X0334538Y0069677D01*
X0334538Y0069715D02*
X0335915Y0069715D01*
X0335915Y0069753D02*
X0334538Y0069753D01*
X0334538Y0069790D02*
X0335915Y0069790D01*
X0335915Y0069828D02*
X0334538Y0069828D01*
X0334538Y0069866D02*
X0335915Y0069866D01*
X0335915Y0069904D02*
X0334538Y0069904D01*
X0334538Y0069942D02*
X0335915Y0069942D01*
X0335915Y0069980D02*
X0334538Y0069980D01*
X0334538Y0070018D02*
X0335915Y0070018D01*
X0335915Y0070056D02*
X0334538Y0070056D01*
X0334538Y0070094D02*
X0335915Y0070094D01*
X0335915Y0070131D02*
X0334538Y0070131D01*
X0334538Y0070169D02*
X0335915Y0070169D01*
X0335915Y0070207D02*
X0334538Y0070207D01*
X0334538Y0070245D02*
X0335915Y0070245D01*
X0335915Y0070283D02*
X0334538Y0070283D01*
X0334538Y0070321D02*
X0335915Y0070321D01*
X0335915Y0070359D02*
X0334538Y0070359D01*
X0334538Y0070397D02*
X0335915Y0070397D01*
X0335915Y0070434D02*
X0334538Y0070434D01*
X0334538Y0070472D02*
X0335915Y0070472D01*
X0335915Y0070510D02*
X0334538Y0070510D01*
X0334538Y0070548D02*
X0335915Y0070548D01*
X0335915Y0070586D02*
X0334538Y0070586D01*
X0334538Y0070624D02*
X0335915Y0070624D01*
X0335915Y0070662D02*
X0334538Y0070662D01*
X0334538Y0070700D02*
X0335915Y0070700D01*
X0335915Y0070737D02*
X0334538Y0070737D01*
X0334538Y0070775D02*
X0335915Y0070775D01*
X0335915Y0070813D02*
X0334538Y0070813D01*
X0334538Y0070851D02*
X0335915Y0070851D01*
X0335915Y0070889D02*
X0334538Y0070889D01*
X0334538Y0070927D02*
X0335915Y0070927D01*
X0335915Y0070965D02*
X0334538Y0070965D01*
X0334538Y0071003D02*
X0335915Y0071003D01*
X0335915Y0071041D02*
X0334538Y0071041D01*
X0334538Y0071078D02*
X0335915Y0071078D01*
X0335915Y0071116D02*
X0334538Y0071116D01*
X0334538Y0071154D02*
X0335915Y0071154D01*
X0335915Y0071192D02*
X0334538Y0071192D01*
X0334538Y0071230D02*
X0335915Y0071230D01*
X0335910Y0071268D02*
X0334543Y0071268D01*
X0334549Y0071306D02*
X0335904Y0071306D01*
X0335898Y0071344D02*
X0334555Y0071344D01*
X0334571Y0071381D02*
X0335882Y0071381D01*
X0335863Y0071419D02*
X0334590Y0071419D01*
X0334609Y0071457D02*
X0335844Y0071457D01*
X0335809Y0071495D02*
X0334644Y0071495D01*
X0334682Y0071533D02*
X0335771Y0071533D01*
X0335715Y0071571D02*
X0334738Y0071571D01*
X0334819Y0071609D02*
X0335633Y0071609D01*
X0336525Y0071354D02*
X0336581Y0071464D01*
X0336668Y0071551D01*
X0336778Y0071607D01*
X0336900Y0071626D01*
X0337490Y0071626D01*
X0337612Y0071607D01*
X0337722Y0071551D01*
X0337809Y0071464D01*
X0337865Y0071354D01*
X0337884Y0071233D01*
X0337884Y0069264D01*
X0337865Y0069143D01*
X0337809Y0069033D01*
X0337722Y0068946D01*
X0337612Y0068890D01*
X0337490Y0068871D01*
X0336900Y0068871D01*
X0336778Y0068890D01*
X0336668Y0068946D01*
X0336581Y0069033D01*
X0336525Y0069143D01*
X0336506Y0069264D01*
X0336506Y0071233D01*
X0336525Y0071354D01*
X0336524Y0071344D02*
X0337866Y0071344D01*
X0337872Y0071306D02*
X0336518Y0071306D01*
X0336512Y0071268D02*
X0337878Y0071268D01*
X0337884Y0071230D02*
X0336506Y0071230D01*
X0336506Y0071192D02*
X0337884Y0071192D01*
X0337884Y0071154D02*
X0336506Y0071154D01*
X0336506Y0071116D02*
X0337884Y0071116D01*
X0337884Y0071078D02*
X0336506Y0071078D01*
X0336506Y0071041D02*
X0337884Y0071041D01*
X0337884Y0071003D02*
X0336506Y0071003D01*
X0336506Y0070965D02*
X0337884Y0070965D01*
X0337884Y0070927D02*
X0336506Y0070927D01*
X0336506Y0070889D02*
X0337884Y0070889D01*
X0337884Y0070851D02*
X0336506Y0070851D01*
X0336506Y0070813D02*
X0337884Y0070813D01*
X0337884Y0070775D02*
X0336506Y0070775D01*
X0336506Y0070737D02*
X0337884Y0070737D01*
X0337884Y0070700D02*
X0336506Y0070700D01*
X0336506Y0070662D02*
X0337884Y0070662D01*
X0337884Y0070624D02*
X0336506Y0070624D01*
X0336506Y0070586D02*
X0337884Y0070586D01*
X0337884Y0070548D02*
X0336506Y0070548D01*
X0336506Y0070510D02*
X0337884Y0070510D01*
X0337884Y0070472D02*
X0336506Y0070472D01*
X0336506Y0070434D02*
X0337884Y0070434D01*
X0337884Y0070397D02*
X0336506Y0070397D01*
X0336506Y0070359D02*
X0337884Y0070359D01*
X0337884Y0070321D02*
X0336506Y0070321D01*
X0336506Y0070283D02*
X0337884Y0070283D01*
X0337884Y0070245D02*
X0336506Y0070245D01*
X0336506Y0070207D02*
X0337884Y0070207D01*
X0337884Y0070169D02*
X0336506Y0070169D01*
X0336506Y0070131D02*
X0337884Y0070131D01*
X0337884Y0070094D02*
X0336506Y0070094D01*
X0336506Y0070056D02*
X0337884Y0070056D01*
X0337884Y0070018D02*
X0336506Y0070018D01*
X0336506Y0069980D02*
X0337884Y0069980D01*
X0337884Y0069942D02*
X0336506Y0069942D01*
X0336506Y0069904D02*
X0337884Y0069904D01*
X0337884Y0069866D02*
X0336506Y0069866D01*
X0336506Y0069828D02*
X0337884Y0069828D01*
X0337884Y0069790D02*
X0336506Y0069790D01*
X0336506Y0069753D02*
X0337884Y0069753D01*
X0337884Y0069715D02*
X0336506Y0069715D01*
X0336506Y0069677D02*
X0337884Y0069677D01*
X0337884Y0069639D02*
X0336506Y0069639D01*
X0336506Y0069601D02*
X0337884Y0069601D01*
X0337884Y0069563D02*
X0336506Y0069563D01*
X0336506Y0069525D02*
X0337884Y0069525D01*
X0337884Y0069487D02*
X0336506Y0069487D01*
X0336506Y0069450D02*
X0337884Y0069450D01*
X0337884Y0069412D02*
X0336506Y0069412D01*
X0336506Y0069374D02*
X0337884Y0069374D01*
X0337884Y0069336D02*
X0336506Y0069336D01*
X0336506Y0069298D02*
X0337884Y0069298D01*
X0337883Y0069260D02*
X0336507Y0069260D01*
X0336513Y0069222D02*
X0337877Y0069222D01*
X0337871Y0069184D02*
X0336519Y0069184D01*
X0336525Y0069146D02*
X0337865Y0069146D01*
X0337847Y0069109D02*
X0336543Y0069109D01*
X0336562Y0069071D02*
X0337828Y0069071D01*
X0337809Y0069033D02*
X0336581Y0069033D01*
X0336619Y0068995D02*
X0337771Y0068995D01*
X0337733Y0068957D02*
X0336657Y0068957D01*
X0336720Y0068919D02*
X0337670Y0068919D01*
X0337558Y0068881D02*
X0336832Y0068881D01*
X0338493Y0069146D02*
X0339834Y0069146D01*
X0339833Y0069143D02*
X0339777Y0069033D01*
X0338550Y0069033D01*
X0338494Y0069143D01*
X0338475Y0069264D01*
X0338475Y0071233D01*
X0338494Y0071354D01*
X0338550Y0071464D01*
X0338637Y0071551D01*
X0338747Y0071607D01*
X0338868Y0071626D01*
X0339459Y0071626D01*
X0339580Y0071607D01*
X0339690Y0071551D01*
X0339777Y0071464D01*
X0339833Y0071354D01*
X0339852Y0071233D01*
X0339852Y0069264D01*
X0339833Y0069143D01*
X0339816Y0069109D02*
X0338511Y0069109D01*
X0338530Y0069071D02*
X0339797Y0069071D01*
X0339777Y0069033D02*
X0339690Y0068946D01*
X0339580Y0068890D01*
X0339459Y0068871D01*
X0338868Y0068871D01*
X0338747Y0068890D01*
X0338637Y0068946D01*
X0338550Y0069033D01*
X0338588Y0068995D02*
X0339739Y0068995D01*
X0339702Y0068957D02*
X0338625Y0068957D01*
X0338689Y0068919D02*
X0339638Y0068919D01*
X0339527Y0068881D02*
X0338800Y0068881D01*
X0338487Y0069184D02*
X0339840Y0069184D01*
X0339846Y0069222D02*
X0338481Y0069222D01*
X0338475Y0069260D02*
X0339852Y0069260D01*
X0339852Y0069298D02*
X0338475Y0069298D01*
X0338475Y0069336D02*
X0339852Y0069336D01*
X0339852Y0069374D02*
X0338475Y0069374D01*
X0338475Y0069412D02*
X0339852Y0069412D01*
X0339852Y0069450D02*
X0338475Y0069450D01*
X0338475Y0069487D02*
X0339852Y0069487D01*
X0339852Y0069525D02*
X0338475Y0069525D01*
X0338475Y0069563D02*
X0339852Y0069563D01*
X0339852Y0069601D02*
X0338475Y0069601D01*
X0338475Y0069639D02*
X0339852Y0069639D01*
X0339852Y0069677D02*
X0338475Y0069677D01*
X0338475Y0069715D02*
X0339852Y0069715D01*
X0339852Y0069753D02*
X0338475Y0069753D01*
X0338475Y0069790D02*
X0339852Y0069790D01*
X0339852Y0069828D02*
X0338475Y0069828D01*
X0338475Y0069866D02*
X0339852Y0069866D01*
X0339852Y0069904D02*
X0338475Y0069904D01*
X0338475Y0069942D02*
X0339852Y0069942D01*
X0339852Y0069980D02*
X0338475Y0069980D01*
X0338475Y0070018D02*
X0339852Y0070018D01*
X0339852Y0070056D02*
X0338475Y0070056D01*
X0338475Y0070094D02*
X0339852Y0070094D01*
X0339852Y0070131D02*
X0338475Y0070131D01*
X0338475Y0070169D02*
X0339852Y0070169D01*
X0339852Y0070207D02*
X0338475Y0070207D01*
X0338475Y0070245D02*
X0339852Y0070245D01*
X0339852Y0070283D02*
X0338475Y0070283D01*
X0338475Y0070321D02*
X0339852Y0070321D01*
X0339852Y0070359D02*
X0338475Y0070359D01*
X0338475Y0070397D02*
X0339852Y0070397D01*
X0339852Y0070434D02*
X0338475Y0070434D01*
X0338475Y0070472D02*
X0339852Y0070472D01*
X0339852Y0070510D02*
X0338475Y0070510D01*
X0338475Y0070548D02*
X0339852Y0070548D01*
X0339852Y0070586D02*
X0338475Y0070586D01*
X0338475Y0070624D02*
X0339852Y0070624D01*
X0339852Y0070662D02*
X0338475Y0070662D01*
X0338475Y0070700D02*
X0339852Y0070700D01*
X0339852Y0070737D02*
X0338475Y0070737D01*
X0338475Y0070775D02*
X0339852Y0070775D01*
X0339852Y0070813D02*
X0338475Y0070813D01*
X0338475Y0070851D02*
X0339852Y0070851D01*
X0339852Y0070889D02*
X0338475Y0070889D01*
X0338475Y0070927D02*
X0339852Y0070927D01*
X0339852Y0070965D02*
X0338475Y0070965D01*
X0338475Y0071003D02*
X0339852Y0071003D01*
X0339852Y0071041D02*
X0338475Y0071041D01*
X0338475Y0071078D02*
X0339852Y0071078D01*
X0339852Y0071116D02*
X0338475Y0071116D01*
X0338475Y0071154D02*
X0339852Y0071154D01*
X0339852Y0071192D02*
X0338475Y0071192D01*
X0338475Y0071230D02*
X0339852Y0071230D01*
X0339847Y0071268D02*
X0338480Y0071268D01*
X0338486Y0071306D02*
X0339841Y0071306D01*
X0339835Y0071344D02*
X0338492Y0071344D01*
X0338508Y0071381D02*
X0339819Y0071381D01*
X0339800Y0071419D02*
X0338527Y0071419D01*
X0338546Y0071457D02*
X0339781Y0071457D01*
X0339746Y0071495D02*
X0338581Y0071495D01*
X0338619Y0071533D02*
X0339708Y0071533D01*
X0339652Y0071571D02*
X0338675Y0071571D01*
X0338756Y0071609D02*
X0339570Y0071609D01*
X0337851Y0071381D02*
X0336539Y0071381D01*
X0336558Y0071419D02*
X0337832Y0071419D01*
X0337812Y0071457D02*
X0336578Y0071457D01*
X0336612Y0071495D02*
X0337778Y0071495D01*
X0337740Y0071533D02*
X0336650Y0071533D01*
X0336707Y0071571D02*
X0337683Y0071571D01*
X0337602Y0071609D02*
X0336788Y0071609D01*
D32*
X0348022Y0073398D03*
X0357864Y0073398D03*
X0367707Y0073398D03*
X0367707Y0084422D03*
X0357864Y0084422D03*
X0348022Y0084422D03*
X0288967Y0086390D03*
X0279124Y0086390D03*
X0269282Y0086390D03*
X0269282Y0075367D03*
X0279124Y0075367D03*
X0288967Y0075367D03*
D33*
X0303593Y0074973D03*
X0321585Y0074973D03*
D34*
X0121819Y0090502D02*
X0119107Y0090502D01*
X0121819Y0090502D02*
X0121819Y0086610D01*
X0119107Y0086610D01*
X0119107Y0090502D01*
X0119107Y0087287D02*
X0121819Y0087287D01*
X0121819Y0087964D02*
X0119107Y0087964D01*
X0119107Y0088641D02*
X0121819Y0088641D01*
X0121819Y0089318D02*
X0119107Y0089318D01*
X0119107Y0089995D02*
X0121819Y0089995D01*
X0116307Y0090502D02*
X0113595Y0090502D01*
X0116307Y0090502D02*
X0116307Y0086610D01*
X0113595Y0086610D01*
X0113595Y0090502D01*
X0113595Y0087287D02*
X0116307Y0087287D01*
X0116307Y0087964D02*
X0113595Y0087964D01*
X0113595Y0088641D02*
X0116307Y0088641D01*
X0116307Y0089318D02*
X0113595Y0089318D01*
X0113595Y0089995D02*
X0116307Y0089995D01*
X0041110Y0067076D02*
X0038398Y0067076D01*
X0041110Y0067076D02*
X0041110Y0063184D01*
X0038398Y0063184D01*
X0038398Y0067076D01*
X0038398Y0063861D02*
X0041110Y0063861D01*
X0041110Y0064538D02*
X0038398Y0064538D01*
X0038398Y0065215D02*
X0041110Y0065215D01*
X0041110Y0065892D02*
X0038398Y0065892D01*
X0038398Y0066569D02*
X0041110Y0066569D01*
X0035598Y0067076D02*
X0032886Y0067076D01*
X0035598Y0067076D02*
X0035598Y0063184D01*
X0032886Y0063184D01*
X0032886Y0067076D01*
X0032886Y0063861D02*
X0035598Y0063861D01*
X0035598Y0064538D02*
X0032886Y0064538D01*
X0032886Y0065215D02*
X0035598Y0065215D01*
X0035598Y0065892D02*
X0032886Y0065892D01*
X0032886Y0066569D02*
X0035598Y0066569D01*
D35*
X0212195Y0078910D03*
X0244478Y0083241D03*
X0471841Y0056863D03*
X0475581Y0086981D03*
X0480699Y0087965D03*
M02*
