G75*
%MOIN*%
%OFA0B0*%
%FSLAX25Y25*%
%IPPOS*%
%LPD*%
%AMOC8*
5,1,8,0,0,1.08239X$1,22.5*
%
%ADD10C,0.12838*%
%ADD11R,2.55118X0.10433*%
%ADD12C,0.06933*%
%ADD13R,0.03390X0.08901*%
%ADD14C,0.04571*%
%ADD15C,0.06539*%
%ADD16C,0.05358*%
%ADD17R,0.05358X0.05358*%
%ADD18C,0.09492*%
%ADD19C,0.06602*%
%ADD20C,0.02209*%
D10*
X0224597Y0078123D03*
D11*
X0375187Y0013260D03*
D12*
X0072431Y0046233D03*
X0099990Y0046233D03*
D13*
X0251565Y0013752D03*
X0255502Y0013752D03*
X0259439Y0013752D03*
X0263376Y0013752D03*
X0267313Y0013752D03*
X0271250Y0013752D03*
X0275187Y0013752D03*
X0279124Y0013752D03*
X0283061Y0013752D03*
X0286998Y0013752D03*
X0290935Y0013752D03*
X0294872Y0013752D03*
X0298809Y0013752D03*
X0302746Y0013752D03*
X0306683Y0013752D03*
X0310620Y0013752D03*
X0314557Y0013752D03*
X0318494Y0013752D03*
X0322431Y0013752D03*
X0326368Y0013752D03*
X0330305Y0013752D03*
X0334242Y0013752D03*
X0338179Y0013752D03*
X0342116Y0013752D03*
X0346053Y0013752D03*
X0349990Y0013752D03*
X0353927Y0013752D03*
X0357864Y0013752D03*
X0361801Y0013752D03*
X0365738Y0013752D03*
X0369675Y0013752D03*
X0373612Y0013752D03*
X0377549Y0013752D03*
X0381486Y0013752D03*
X0385423Y0013752D03*
X0389360Y0013752D03*
X0409045Y0013752D03*
X0412982Y0013752D03*
X0416919Y0013752D03*
X0420856Y0013752D03*
X0424793Y0013752D03*
X0428730Y0013752D03*
X0432667Y0013752D03*
X0436604Y0013752D03*
X0440541Y0013752D03*
X0444478Y0013752D03*
X0448415Y0013752D03*
X0452352Y0013752D03*
X0456289Y0013752D03*
X0460226Y0013752D03*
X0464163Y0013752D03*
X0468100Y0013752D03*
X0472037Y0013752D03*
X0475975Y0013752D03*
X0479912Y0013752D03*
X0483849Y0013752D03*
X0487786Y0013752D03*
X0491723Y0013752D03*
X0495660Y0013752D03*
X0499597Y0013752D03*
D14*
X0200384Y0078123D03*
X0101959Y0078123D03*
D15*
X0121644Y0078123D03*
X0023219Y0078123D03*
D16*
X0371644Y0050367D03*
X0379518Y0050367D03*
X0387392Y0050367D03*
X0395266Y0050367D03*
X0403140Y0050367D03*
X0411014Y0050367D03*
X0418888Y0050367D03*
X0426762Y0050367D03*
X0434636Y0050367D03*
X0442510Y0050367D03*
X0450384Y0050367D03*
X0466132Y0050367D03*
X0474006Y0050367D03*
X0481880Y0050367D03*
X0489754Y0050367D03*
X0497628Y0050367D03*
X0493691Y0042493D03*
X0501565Y0042493D03*
X0485817Y0042493D03*
X0477943Y0042493D03*
X0470069Y0042493D03*
X0462195Y0042493D03*
X0446447Y0042493D03*
X0438573Y0042493D03*
X0430699Y0042493D03*
X0422825Y0042493D03*
X0414951Y0042493D03*
X0407077Y0042493D03*
X0399203Y0042493D03*
X0391329Y0042493D03*
X0383455Y0042493D03*
X0375581Y0042493D03*
X0375581Y0032650D03*
X0383455Y0032650D03*
X0391329Y0032650D03*
X0399203Y0032650D03*
X0407077Y0032650D03*
X0414951Y0032650D03*
X0422825Y0032650D03*
X0430699Y0032650D03*
X0438573Y0032650D03*
X0446447Y0032650D03*
X0462195Y0032650D03*
X0470069Y0032650D03*
X0477943Y0032650D03*
X0485817Y0032650D03*
X0493691Y0032650D03*
X0489754Y0024776D03*
X0481880Y0024776D03*
X0474006Y0024776D03*
X0466132Y0024776D03*
X0450384Y0024776D03*
X0442510Y0024776D03*
X0434636Y0024776D03*
X0426762Y0024776D03*
X0418888Y0024776D03*
X0411014Y0024776D03*
X0403140Y0024776D03*
X0395266Y0024776D03*
X0387392Y0024776D03*
X0379518Y0024776D03*
X0371644Y0024776D03*
X0497628Y0024776D03*
D17*
X0501565Y0032650D03*
D18*
X0455699Y0037571D03*
X0364557Y0037571D03*
D19*
X0513921Y0066548D02*
X0515193Y0066548D01*
X0515193Y0076548D02*
X0513921Y0076548D01*
X0513921Y0086548D02*
X0515193Y0086548D01*
D20*
X0480699Y0087965D03*
X0475581Y0086981D03*
X0471841Y0056863D03*
X0244478Y0083241D03*
X0212195Y0078910D03*
M02*
